OCRAStd.ufo
<glyph name="exclam" format="1">
  <advance width="720"/>
  <unicode hex="0021"/>
  <outline>
    <contour>
      <point x="334" y="778" type="curve" smooth="yes"/>
      <point x="385" y="778" type="line" smooth="yes"/>
      <point x="428" y="778"/>
      <point x="430" y="752"/>
      <point x="428" y="704" type="curve" smooth="yes"/>
      <point x="410" y="361" type="line" smooth="yes"/>
      <point x="408" y="326"/>
      <point x="400" y="297"/>
      <point x="359" y="297" type="curve" smooth="yes"/>
      <point x="318" y="297"/>
      <point x="310" y="326"/>
      <point x="308" y="361" type="curve" smooth="yes"/>
      <point x="290" y="704" type="line" smooth="yes"/>
      <point x="287" y="752"/>
      <point x="291" y="778"/>
    </contour>
    <contour>
      <point x="346" y="140" type="curve" smooth="yes"/>
      <point x="372" y="140" type="line" smooth="yes"/>
      <point x="410" y="140"/>
      <point x="428" y="121"/>
      <point x="428" y="83" type="curve" smooth="yes"/>
      <point x="428" y="57" type="line" smooth="yes"/>
      <point x="428" y="19"/>
      <point x="410" y="0"/>
      <point x="372" y="0" type="curve" smooth="yes"/>
      <point x="346" y="0" type="line" smooth="yes"/>
      <point x="308" y="0"/>
      <point x="290" y="19"/>
      <point x="290" y="57" type="curve" smooth="yes"/>
      <point x="290" y="83" type="line" smooth="yes"/>
      <point x="290" y="121"/>
      <point x="308" y="140"/>
    </contour>
  </outline>
</glyph>
<glyph name="numbersign" format="1">
  <advance width="720"/>
  <unicode hex="0023"/>
  <outline>
    <contour>
      <point x="313" y="566" type="line"/>
      <point x="407" y="566" type="line"/>
      <point x="407" y="663" type="line" smooth="yes"/>
      <point x="407" y="695"/>
      <point x="411" y="729"/>
      <point x="455" y="729" type="curve" smooth="yes"/>
      <point x="499" y="729"/>
      <point x="503" y="695"/>
      <point x="503" y="663" type="curve" smooth="yes"/>
      <point x="503" y="566" type="line"/>
      <point x="533" y="566" type="line" smooth="yes"/>
      <point x="568" y="566"/>
      <point x="599" y="559"/>
      <point x="599" y="518" type="curve" smooth="yes"/>
      <point x="599" y="477"/>
      <point x="568" y="470"/>
      <point x="533" y="470" type="curve" smooth="yes"/>
      <point x="503" y="470" type="line"/>
      <point x="503" y="359" type="line"/>
      <point x="533" y="359" type="line" smooth="yes"/>
      <point x="568" y="359"/>
      <point x="599" y="352"/>
      <point x="599" y="311" type="curve" smooth="yes"/>
      <point x="599" y="270"/>
      <point x="568" y="263"/>
      <point x="533" y="263" type="curve" smooth="yes"/>
      <point x="503" y="263" type="line"/>
      <point x="503" y="166" type="line" smooth="yes"/>
      <point x="503" y="134"/>
      <point x="499" y="100"/>
      <point x="455" y="100" type="curve" smooth="yes"/>
      <point x="411" y="100"/>
      <point x="407" y="134"/>
      <point x="407" y="166" type="curve" smooth="yes"/>
      <point x="407" y="263" type="line"/>
      <point x="313" y="263" type="line"/>
      <point x="313" y="166" type="line" smooth="yes"/>
      <point x="313" y="134"/>
      <point x="309" y="100"/>
      <point x="265" y="100" type="curve" smooth="yes"/>
      <point x="221" y="100"/>
      <point x="217" y="134"/>
      <point x="217" y="166" type="curve" smooth="yes"/>
      <point x="217" y="263" type="line"/>
      <point x="187" y="263" type="line" smooth="yes"/>
      <point x="152" y="263"/>
      <point x="121" y="270"/>
      <point x="121" y="311" type="curve" smooth="yes"/>
      <point x="121" y="352"/>
      <point x="152" y="359"/>
      <point x="187" y="359" type="curve" smooth="yes"/>
      <point x="217" y="359" type="line"/>
      <point x="217" y="470" type="line"/>
      <point x="187" y="470" type="line" smooth="yes"/>
      <point x="152" y="470"/>
      <point x="121" y="477"/>
      <point x="121" y="518" type="curve" smooth="yes"/>
      <point x="121" y="559"/>
      <point x="152" y="566"/>
      <point x="187" y="566" type="curve" smooth="yes"/>
      <point x="217" y="566" type="line"/>
      <point x="217" y="663" type="line" smooth="yes"/>
      <point x="217" y="695"/>
      <point x="221" y="729"/>
      <point x="265" y="729" type="curve" smooth="yes"/>
      <point x="309" y="729"/>
      <point x="313" y="695"/>
      <point x="313" y="663" type="curve" smooth="yes"/>
    </contour>
    <contour>
      <point x="407" y="470" type="line"/>
      <point x="313" y="470" type="line"/>
      <point x="313" y="359" type="line"/>
      <point x="407" y="359" type="line"/>
    </contour>
  </outline>
</glyph>
<glyph name="dollar" format="1">
  <advance width="720"/>
  <unicode hex="0024"/>
  <outline>
    <contour>
      <point x="310" y="608" type="line"/>
      <point x="310" y="728" type="line" smooth="yes"/>
      <point x="310" y="760"/>
      <point x="324" y="778"/>
      <point x="360" y="778" type="curve" smooth="yes"/>
      <point x="396" y="778"/>
      <point x="410" y="760"/>
      <point x="410" y="728" type="curve" smooth="yes"/>
      <point x="410" y="608" type="line"/>
      <point x="557" y="608" type="line" smooth="yes"/>
      <point x="583" y="608"/>
      <point x="607" y="594"/>
      <point x="607" y="558" type="curve" smooth="yes"/>
      <point x="607" y="522"/>
      <point x="583" y="508"/>
      <point x="557" y="508" type="curve" smooth="yes"/>
      <point x="213" y="508" type="line"/>
      <point x="213" y="439" type="line"/>
      <point x="557" y="439" type="line" smooth="yes"/>
      <point x="584" y="439"/>
      <point x="607" y="416"/>
      <point x="607" y="389" type="curve" smooth="yes"/>
      <point x="607" y="220" type="line" smooth="yes"/>
      <point x="607" y="193"/>
      <point x="584" y="170"/>
      <point x="557" y="170" type="curve" smooth="yes"/>
      <point x="410" y="170" type="line"/>
      <point x="410" y="50" type="line" smooth="yes"/>
      <point x="410" y="18"/>
      <point x="396" y="0"/>
      <point x="360" y="0" type="curve" smooth="yes"/>
      <point x="324" y="0"/>
      <point x="310" y="18"/>
      <point x="310" y="50" type="curve" smooth="yes"/>
      <point x="310" y="170" type="line"/>
      <point x="163" y="170" type="line" smooth="yes"/>
      <point x="137" y="170"/>
      <point x="113" y="184"/>
      <point x="113" y="220" type="curve" smooth="yes"/>
      <point x="113" y="256"/>
      <point x="137" y="270"/>
      <point x="163" y="270" type="curve" smooth="yes"/>
      <point x="507" y="270" type="line"/>
      <point x="507" y="339" type="line"/>
      <point x="163" y="339" type="line" smooth="yes"/>
      <point x="136" y="339"/>
      <point x="113" y="362"/>
      <point x="113" y="389" type="curve" smooth="yes"/>
      <point x="113" y="558" type="line" smooth="yes"/>
      <point x="113" y="585"/>
      <point x="136" y="608"/>
      <point x="163" y="608" type="curve" smooth="yes"/>
    </contour>
  </outline>
</glyph>
<glyph name="quotesingle" format="1">
  <advance width="720"/>
  <unicode hex="0027"/>
  <outline>
    <contour>
      <point x="455" y="778" type="line"/>
      <point x="455" y="728" type="line"/>
      <point x="412" y="515" type="line" smooth="yes"/>
      <point x="405" y="481"/>
      <point x="401" y="455"/>
      <point x="356" y="455" type="curve" smooth="yes"/>
      <point x="311" y="455"/>
      <point x="307" y="481"/>
      <point x="300" y="515" type="curve" smooth="yes"/>
      <point x="257" y="728" type="line"/>
      <point x="257" y="778" type="line"/>
    </contour>
  </outline>
</glyph>
<glyph name="hyphen" format="1">
  <advance width="720"/>
  <unicode hex="002D"/>
  <outline>
    <contour>
      <point x="243" y="449" type="curve" smooth="yes"/>
      <point x="477" y="449" type="line" smooth="yes"/>
      <point x="518" y="449"/>
      <point x="537" y="433"/>
      <point x="537" y="388" type="curve" smooth="yes"/>
      <point x="537" y="343"/>
      <point x="518" y="327"/>
      <point x="477" y="327" type="curve" smooth="yes"/>
      <point x="243" y="327" type="line" smooth="yes"/>
      <point x="202" y="327"/>
      <point x="183" y="343"/>
      <point x="183" y="388" type="curve" smooth="yes"/>
      <point x="183" y="433"/>
      <point x="202" y="449"/>
    </contour>
  </outline>
</glyph>
<glyph name="slash" format="1">
  <advance width="720"/>
  <unicode hex="002F"/>
  <outline>
    <contour>
      <point x="596" y="692" type="curve" smooth="yes"/>
      <point x="212" y="35" type="line" smooth="yes"/>
      <point x="200" y="14"/>
      <point x="188" y="0"/>
      <point x="163" y="0" type="curve" smooth="yes"/>
      <point x="138" y="0"/>
      <point x="113" y="21"/>
      <point x="113" y="47" type="curve" smooth="yes"/>
      <point x="113" y="66"/>
      <point x="125" y="83"/>
      <point x="135" y="99" type="curve" smooth="yes"/>
      <point x="509" y="740" type="line" smooth="yes"/>
      <point x="521" y="760"/>
      <point x="533" y="778"/>
      <point x="558" y="778" type="curve" smooth="yes"/>
      <point x="584" y="778"/>
      <point x="607" y="757"/>
      <point x="607" y="731" type="curve" smooth="yes"/>
      <point x="607" y="715"/>
      <point x="602" y="703"/>
    </contour>
  </outline>
</glyph>
<glyph name="zero" format="1">
  <advance width="720"/>
  <unicode hex="0030"/>
  <outline>
    <contour>
      <point x="213" y="778" type="curve" smooth="yes"/>
      <point x="507" y="778" type="line" smooth="yes"/>
      <point x="562" y="778"/>
      <point x="607" y="733"/>
      <point x="607" y="678" type="curve" smooth="yes"/>
      <point x="607" y="100" type="line" smooth="yes"/>
      <point x="607" y="44"/>
      <point x="564" y="0"/>
      <point x="507" y="0" type="curve" smooth="yes"/>
      <point x="213" y="0" type="line" smooth="yes"/>
      <point x="156" y="0"/>
      <point x="113" y="44"/>
      <point x="113" y="100" type="curve" smooth="yes"/>
      <point x="113" y="678" type="line" smooth="yes"/>
      <point x="113" y="733"/>
      <point x="158" y="778"/>
    </contour>
    <contour>
      <point x="213" y="100" type="line"/>
      <point x="507" y="100" type="line"/>
      <point x="507" y="678" type="line"/>
      <point x="213" y="678" type="line"/>
    </contour>
  </outline>
</glyph>
<glyph name="one" format="1">
  <advance width="720"/>
  <unicode hex="0031"/>
  <outline>
    <contour>
      <point x="410" y="100" type="line"/>
      <point x="507" y="100" type="line"/>
      <point x="507" y="302" type="line" smooth="yes"/>
      <point x="507" y="331"/>
      <point x="520" y="352"/>
      <point x="557" y="352" type="curve" smooth="yes"/>
      <point x="594" y="352"/>
      <point x="607" y="331"/>
      <point x="607" y="302" type="curve" smooth="yes"/>
      <point x="607" y="50" type="line" smooth="yes"/>
      <point x="607" y="14"/>
      <point x="583" y="0"/>
      <point x="557" y="0" type="curve" smooth="yes"/>
      <point x="163" y="0" type="line" smooth="yes"/>
      <point x="137" y="0"/>
      <point x="113" y="14"/>
      <point x="113" y="50" type="curve" smooth="yes"/>
      <point x="113" y="86"/>
      <point x="137" y="100"/>
      <point x="163" y="100" type="curve" smooth="yes"/>
      <point x="310" y="100" type="line"/>
      <point x="310" y="678" type="line"/>
      <point x="163" y="678" type="line" smooth="yes"/>
      <point x="137" y="678"/>
      <point x="113" y="692"/>
      <point x="113" y="728" type="curve" smooth="yes"/>
      <point x="113" y="764"/>
      <point x="137" y="778"/>
      <point x="163" y="778" type="curve" smooth="yes"/>
      <point x="410" y="778" type="line"/>
    </contour>
  </outline>
</glyph>
<glyph name="four" format="1">
  <advance width="720"/>
  <unicode hex="0034"/>
  <outline>
    <contour>
      <point x="263" y="354" type="line"/>
      <point x="457" y="354" type="line"/>
      <point x="457" y="643" type="line" smooth="yes"/>
      <point x="457" y="668"/>
      <point x="469" y="693"/>
      <point x="507" y="693" type="curve" smooth="yes"/>
      <point x="545" y="693"/>
      <point x="557" y="668"/>
      <point x="557" y="643" type="curve" smooth="yes"/>
      <point x="557" y="354" type="line"/>
      <point x="583" y="354"/>
      <point x="607" y="340"/>
      <point x="607" y="304" type="curve" smooth="yes"/>
      <point x="607" y="268"/>
      <point x="583" y="254"/>
      <point x="557" y="254" type="curve"/>
      <point x="557" y="50" type="line" smooth="yes"/>
      <point x="557" y="18"/>
      <point x="543" y="0"/>
      <point x="507" y="0" type="curve" smooth="yes"/>
      <point x="471" y="0"/>
      <point x="457" y="18"/>
      <point x="457" y="50" type="curve" smooth="yes"/>
      <point x="457" y="254" type="line"/>
      <point x="163" y="254" type="line"/>
      <point x="163" y="728" type="line" smooth="yes"/>
      <point x="163" y="753"/>
      <point x="175" y="778"/>
      <point x="213" y="778" type="curve" smooth="yes"/>
      <point x="251" y="778"/>
      <point x="263" y="753"/>
      <point x="263" y="728" type="curve" smooth="yes"/>
    </contour>
  </outline>
</glyph>
<glyph name="five" format="1">
  <advance width="720"/>
  <unicode hex="0035"/>
  <outline>
    <contour>
      <point x="312" y="678" type="line"/>
      <point x="312" y="439" type="line"/>
      <point x="496" y="439" type="line" smooth="yes"/>
      <point x="528" y="439"/>
      <point x="552" y="434"/>
      <point x="576" y="411" type="curve" smooth="yes"/>
      <point x="604" y="385"/>
      <point x="607" y="361"/>
      <point x="607" y="326" type="curve" smooth="yes"/>
      <point x="607" y="112" type="line" smooth="yes"/>
      <point x="607" y="81"/>
      <point x="604" y="59"/>
      <point x="583" y="34" type="curve" smooth="yes"/>
      <point x="558" y="4"/>
      <point x="532" y="0"/>
      <point x="496" y="0" type="curve" smooth="yes"/>
      <point x="274" y="0" type="line" smooth="yes"/>
      <point x="248" y="0"/>
      <point x="233" y="7"/>
      <point x="208" y="18" type="curve" smooth="yes"/>
      <point x="170" y="35" type="line" smooth="yes"/>
      <point x="143" y="47"/>
      <point x="113" y="56"/>
      <point x="113" y="91" type="curve" smooth="yes"/>
      <point x="113" y="117"/>
      <point x="135" y="141"/>
      <point x="161" y="141" type="curve" smooth="yes"/>
      <point x="173" y="141"/>
      <point x="182" y="138"/>
      <point x="193" y="133" type="curve" smooth="yes"/>
      <point x="223" y="120" type="line" smooth="yes"/>
      <point x="237" y="114"/>
      <point x="260" y="100"/>
      <point x="276" y="100" type="curve" smooth="yes"/>
      <point x="507" y="100" type="line"/>
      <point x="507" y="339" type="line"/>
      <point x="212" y="339" type="line"/>
      <point x="212" y="778" type="line"/>
      <point x="557" y="778" type="line" smooth="yes"/>
      <point x="583" y="778"/>
      <point x="607" y="764"/>
      <point x="607" y="728" type="curve" smooth="yes"/>
      <point x="607" y="692"/>
      <point x="583" y="678"/>
      <point x="557" y="678" type="curve" smooth="yes"/>
    </contour>
  </outline>
</glyph>
<glyph name="six" format="1">
  <advance width="720"/>
  <unicode hex="0036"/>
  <outline>
    <contour>
      <point x="213" y="678" type="curve"/>
      <point x="213" y="354" type="line"/>
      <point x="547" y="354" type="line" smooth="yes"/>
      <point x="597" y="354"/>
      <point x="607" y="333"/>
      <point x="607" y="287" type="curve" smooth="yes"/>
      <point x="607" y="63" type="line" smooth="yes"/>
      <point x="607" y="16"/>
      <point x="587" y="0"/>
      <point x="542" y="0" type="curve" smooth="yes"/>
      <point x="178" y="0" type="line" smooth="yes"/>
      <point x="131" y="0"/>
      <point x="113" y="17"/>
      <point x="113" y="63" type="curve" smooth="yes"/>
      <point x="113" y="728" type="line" smooth="yes"/>
      <point x="113" y="751"/>
      <point x="121" y="778"/>
      <point x="156" y="778" type="curve" smooth="yes"/>
      <point x="216" y="778" type="line" smooth="yes"/>
      <point x="242" y="778"/>
      <point x="263" y="754"/>
      <point x="263" y="728" type="curve" smooth="yes"/>
      <point x="263" y="698"/>
      <point x="242" y="678"/>
    </contour>
    <contour>
      <point x="507" y="254" type="line"/>
      <point x="213" y="254" type="line"/>
      <point x="213" y="100" type="line"/>
      <point x="507" y="100" type="line"/>
    </contour>
  </outline>
</glyph>
<glyph name="seven" format="1">
  <advance width="720"/>
  <unicode hex="0037"/>
  <outline>
    <contour>
      <point x="507" y="678" type="line"/>
      <point x="213" y="678" type="line"/>
      <point x="213" y="656"/>
      <point x="195" y="628"/>
      <point x="163" y="628" type="curve" smooth="yes"/>
      <point x="131" y="628"/>
      <point x="113" y="656"/>
      <point x="113" y="678" type="curve" smooth="yes"/>
      <point x="113" y="728" type="line" smooth="yes"/>
      <point x="113" y="750"/>
      <point x="131" y="778"/>
      <point x="163" y="778" type="curve" smooth="yes"/>
      <point x="607" y="778" type="line"/>
      <point x="607" y="488" type="line" smooth="yes"/>
      <point x="607" y="453"/>
      <point x="608" y="449"/>
      <point x="580" y="425" type="curve" smooth="yes"/>
      <point x="440" y="304" type="line" smooth="yes"/>
      <point x="414" y="281"/>
      <point x="412" y="279"/>
      <point x="412" y="244" type="curve" smooth="yes"/>
      <point x="412" y="50" type="line" smooth="yes"/>
      <point x="412" y="18"/>
      <point x="398" y="0"/>
      <point x="362" y="0" type="curve" smooth="yes"/>
      <point x="326" y="0"/>
      <point x="312" y="18"/>
      <point x="312" y="50" type="curve" smooth="yes"/>
      <point x="312" y="291" type="line" smooth="yes"/>
      <point x="312" y="324"/>
      <point x="313" y="327"/>
      <point x="338" y="349" type="curve" smooth="yes"/>
      <point x="476" y="468" type="line" smooth="yes"/>
      <point x="509" y="497"/>
      <point x="507" y="496"/>
      <point x="507" y="540" type="curve" smooth="yes"/>
    </contour>
  </outline>
</glyph>
<glyph name="nine" format="1">
  <advance width="720"/>
  <unicode hex="0039"/>
  <outline>
    <contour>
      <point x="507" y="100" type="curve"/>
      <point x="507" y="422" type="line"/>
      <point x="163" y="422" type="line" smooth="yes"/>
      <point x="135" y="422"/>
      <point x="113" y="446"/>
      <point x="113" y="472" type="curve" smooth="yes"/>
      <point x="113" y="728" type="line" smooth="yes"/>
      <point x="113" y="754"/>
      <point x="135" y="778"/>
      <point x="163" y="778" type="curve" smooth="yes"/>
      <point x="557" y="778" type="line" smooth="yes"/>
      <point x="585" y="778"/>
      <point x="607" y="754"/>
      <point x="607" y="728" type="curve" smooth="yes"/>
      <point x="607" y="50" type="line" smooth="yes"/>
      <point x="607" y="23"/>
      <point x="587" y="0"/>
      <point x="557" y="0" type="curve" smooth="yes"/>
      <point x="507" y="0" type="line" smooth="yes"/>
      <point x="477" y="0"/>
      <point x="457" y="23"/>
      <point x="457" y="50" type="curve" smooth="yes"/>
      <point x="457" y="80"/>
      <point x="478" y="100"/>
    </contour>
    <contour>
      <point x="213" y="522" type="line"/>
      <point x="507" y="522" type="line"/>
      <point x="507" y="678" type="line"/>
      <point x="213" y="678" type="line"/>
    </contour>
  </outline>
</glyph>
<glyph name="semicolon" format="1">
  <advance width="720"/>
  <unicode hex="003B"/>
  <outline>
    <contour>
      <point x="409" y="254" type="line"/>
      <point x="261" y="254" type="line" smooth="yes"/>
      <point x="235" y="254"/>
      <point x="211" y="268"/>
      <point x="211" y="304" type="curve" smooth="yes"/>
      <point x="211" y="340"/>
      <point x="235" y="354"/>
      <point x="261" y="354" type="curve" smooth="yes"/>
      <point x="449" y="354" type="line" smooth="yes"/>
      <point x="467" y="354"/>
      <point x="478" y="354"/>
      <point x="493" y="340" type="curve" smooth="yes"/>
      <point x="510" y="325"/>
      <point x="509" y="311"/>
      <point x="509" y="290" type="curve" smooth="yes"/>
      <point x="509" y="50" type="line" smooth="yes"/>
      <point x="509" y="18"/>
      <point x="495" y="0"/>
      <point x="459" y="0" type="curve" smooth="yes"/>
      <point x="423" y="0"/>
      <point x="409" y="18"/>
      <point x="409" y="50" type="curve" smooth="yes"/>
    </contour>
    <contour>
      <point x="346" y="509" type="curve" smooth="yes"/>
      <point x="274" y="509" type="line" smooth="yes"/>
      <point x="252" y="509"/>
      <point x="236" y="509"/>
      <point x="222" y="528" type="curve" smooth="yes"/>
      <point x="211" y="543"/>
      <point x="211" y="554"/>
      <point x="211" y="573" type="curve" smooth="yes"/>
      <point x="211" y="629" type="line" smooth="yes"/>
      <point x="211" y="648"/>
      <point x="211" y="659"/>
      <point x="222" y="674" type="curve" smooth="yes"/>
      <point x="236" y="693"/>
      <point x="252" y="693"/>
      <point x="274" y="693" type="curve" smooth="yes"/>
      <point x="346" y="693" type="line" smooth="yes"/>
      <point x="368" y="693"/>
      <point x="384" y="693"/>
      <point x="398" y="674" type="curve" smooth="yes"/>
      <point x="409" y="659"/>
      <point x="409" y="648"/>
      <point x="409" y="629" type="curve" smooth="yes"/>
      <point x="409" y="573" type="line" smooth="yes"/>
      <point x="409" y="554"/>
      <point x="409" y="543"/>
      <point x="398" y="528" type="curve" smooth="yes"/>
      <point x="384" y="509"/>
      <point x="368" y="509"/>
    </contour>
  </outline>
</glyph>
<glyph name="equal" format="1">
  <advance width="720"/>
  <unicode hex="003D"/>
  <outline>
    <contour>
      <point x="557" y="253" type="curve" smooth="yes"/>
      <point x="163" y="253" type="line" smooth="yes"/>
      <point x="137" y="253"/>
      <point x="113" y="267"/>
      <point x="113" y="303" type="curve" smooth="yes"/>
      <point x="113" y="339"/>
      <point x="137" y="353"/>
      <point x="163" y="353" type="curve" smooth="yes"/>
      <point x="557" y="353" type="line" smooth="yes"/>
      <point x="583" y="353"/>
      <point x="607" y="339"/>
      <point x="607" y="303" type="curve" smooth="yes"/>
      <point x="607" y="267"/>
      <point x="583" y="253"/>
    </contour>
    <contour>
      <point x="557" y="465" type="curve" smooth="yes"/>
      <point x="163" y="465" type="line" smooth="yes"/>
      <point x="137" y="465"/>
      <point x="113" y="479"/>
      <point x="113" y="515" type="curve" smooth="yes"/>
      <point x="113" y="551"/>
      <point x="137" y="565"/>
      <point x="163" y="565" type="curve" smooth="yes"/>
      <point x="557" y="565" type="line" smooth="yes"/>
      <point x="583" y="565"/>
      <point x="607" y="551"/>
      <point x="607" y="515" type="curve" smooth="yes"/>
      <point x="607" y="479"/>
      <point x="583" y="465"/>
    </contour>
  </outline>
</glyph>
<glyph name="greater" format="1">
  <advance width="720"/>
  <unicode hex="003E"/>
  <outline>
    <contour>
      <point x="122" y="174" type="curve" smooth="yes"/>
      <point x="480" y="412" type="line"/>
      <point x="124" y="648" type="line" smooth="yes"/>
      <point x="105" y="661"/>
      <point x="89" y="675"/>
      <point x="89" y="701" type="curve" smooth="yes"/>
      <point x="90" y="729"/>
      <point x="113" y="755"/>
      <point x="142" y="755" type="curve" smooth="yes"/>
      <point x="157" y="755"/>
      <point x="171" y="748"/>
      <point x="183" y="740" type="curve" smooth="yes"/>
      <point x="595" y="466" type="line" smooth="yes"/>
      <point x="617" y="452"/>
      <point x="633" y="440"/>
      <point x="632" y="412" type="curve" smooth="yes"/>
      <point x="632" y="383"/>
      <point x="617" y="372"/>
      <point x="595" y="358" type="curve" smooth="yes"/>
      <point x="184" y="85" type="line" smooth="yes"/>
      <point x="172" y="77"/>
      <point x="158" y="68"/>
      <point x="141" y="68" type="curve" smooth="yes"/>
      <point x="113" y="68"/>
      <point x="89" y="95"/>
      <point x="89" y="123" type="curve" smooth="yes"/>
      <point x="90" y="148"/>
      <point x="102" y="161"/>
    </contour>
  </outline>
</glyph>
<glyph name="question" format="1">
  <advance width="720"/>
  <unicode hex="003F"/>
  <outline>
    <contour>
      <point x="507" y="583" type="line"/>
      <point x="507" y="620" type="line"/>
      <point x="458" y="662" type="line"/>
      <point x="205" y="445" type="line" smooth="yes"/>
      <point x="193" y="435"/>
      <point x="179" y="425"/>
      <point x="163" y="425" type="curve" smooth="yes"/>
      <point x="134" y="425"/>
      <point x="113" y="449"/>
      <point x="113" y="477" type="curve" smooth="yes"/>
      <point x="113" y="501"/>
      <point x="136" y="518"/>
      <point x="152" y="532" type="curve" smooth="yes"/>
      <point x="417" y="758" type="line" smooth="yes"/>
      <point x="429" y="769"/>
      <point x="440" y="778"/>
      <point x="458" y="778" type="curve" smooth="yes"/>
      <point x="477" y="778"/>
      <point x="485" y="770"/>
      <point x="499" y="758" type="curve" smooth="yes"/>
      <point x="581" y="688" type="line" smooth="yes"/>
      <point x="607" y="666"/>
      <point x="607" y="661"/>
      <point x="607" y="628" type="curve" smooth="yes"/>
      <point x="607" y="573" type="line" smooth="yes"/>
      <point x="607" y="537"/>
      <point x="603" y="534"/>
      <point x="576" y="510" type="curve" smooth="yes"/>
      <point x="311" y="281" type="line"/>
      <point x="311" y="220" type="line" smooth="yes"/>
      <point x="311" y="188"/>
      <point x="297" y="170"/>
      <point x="261" y="170" type="curve" smooth="yes"/>
      <point x="225" y="170"/>
      <point x="211" y="188"/>
      <point x="211" y="220" type="curve" smooth="yes"/>
      <point x="211" y="294" type="line" smooth="yes"/>
      <point x="211" y="328"/>
      <point x="216" y="331"/>
      <point x="241" y="352" type="curve" smooth="yes"/>
    </contour>
    <contour>
      <point x="261" y="100" type="curve" smooth="yes"/>
      <point x="289" y="100"/>
      <point x="311" y="77"/>
      <point x="311" y="49" type="curve" smooth="yes"/>
      <point x="311" y="22"/>
      <point x="289" y="0"/>
      <point x="261" y="0" type="curve" smooth="yes"/>
      <point x="234" y="0"/>
      <point x="211" y="22"/>
      <point x="211" y="49" type="curve" smooth="yes"/>
      <point x="211" y="76"/>
      <point x="234" y="100"/>
    </contour>
  </outline>
</glyph>
<glyph name="at" format="1">
  <advance width="720"/>
  <unicode hex="0040"/>
  <outline>
    <contour>
      <point x="121" y="165" type="curve" smooth="yes"/>
      <point x="121" y="318" type="line" smooth="yes"/>
      <point x="121" y="407"/>
      <point x="173" y="480"/>
      <point x="269" y="480" type="curve" smooth="yes"/>
      <point x="337" y="480" type="line" smooth="yes"/>
      <point x="392" y="480"/>
      <point x="408" y="468"/>
      <point x="408" y="411" type="curve" smooth="yes"/>
      <point x="408" y="174" type="line" smooth="yes"/>
      <point x="408" y="141"/>
      <point x="411" y="96"/>
      <point x="456" y="96" type="curve" smooth="yes"/>
      <point x="508" y="96"/>
      <point x="503" y="149"/>
      <point x="503" y="185" type="curve" smooth="yes"/>
      <point x="503" y="572" type="line" smooth="yes"/>
      <point x="503" y="600"/>
      <point x="506" y="623"/>
      <point x="490" y="647" type="curve" smooth="yes"/>
      <point x="470" y="677"/>
      <point x="440" y="682"/>
      <point x="406" y="682" type="curve" smooth="yes"/>
      <point x="306" y="682" type="line" smooth="yes"/>
      <point x="273" y="682"/>
      <point x="242" y="681"/>
      <point x="224" y="648" type="curve" smooth="yes"/>
      <point x="211" y="624"/>
      <point x="201" y="598"/>
      <point x="169" y="598" type="curve" smooth="yes"/>
      <point x="143" y="598"/>
      <point x="121" y="617"/>
      <point x="121" y="643" type="curve" smooth="yes"/>
      <point x="121" y="676"/>
      <point x="154" y="717"/>
      <point x="178" y="737" type="curve" smooth="yes"/>
      <point x="219" y="772"/>
      <point x="258" y="778"/>
      <point x="309" y="778" type="curve" smooth="yes"/>
      <point x="396" y="778" type="line" smooth="yes"/>
      <point x="431" y="778"/>
      <point x="448" y="778"/>
      <point x="483" y="764" type="curve" smooth="yes"/>
      <point x="561" y="733"/>
      <point x="599" y="674"/>
      <point x="599" y="592" type="curve" smooth="yes"/>
      <point x="599" y="172" type="line" smooth="yes"/>
      <point x="599" y="125"/>
      <point x="600" y="94"/>
      <point x="569" y="56" type="curve" smooth="yes"/>
      <point x="543" y="24"/>
      <point x="500" y="0"/>
      <point x="458" y="0" type="curve" smooth="yes"/>
      <point x="423" y="0"/>
      <point x="385" y="14"/>
      <point x="360" y="40" type="curve"/>
      <point x="335" y="16"/>
      <point x="300" y="0"/>
      <point x="266" y="0" type="curve" smooth="yes"/>
      <point x="173" y="0"/>
      <point x="121" y="79"/>
    </contour>
    <contour>
      <point x="312" y="173" type="curve" smooth="yes"/>
      <point x="312" y="384" type="line"/>
      <point x="266" y="384" type="line" smooth="yes"/>
      <point x="240" y="384"/>
      <point x="217" y="371"/>
      <point x="217" y="314" type="curve" smooth="yes"/>
      <point x="217" y="178" type="line" smooth="yes"/>
      <point x="217" y="145"/>
      <point x="220" y="96"/>
      <point x="266" y="96" type="curve" smooth="yes"/>
      <point x="319" y="96"/>
      <point x="312" y="158"/>
    </contour>
  </outline>
</glyph>
<glyph name="B" format="1">
  <advance width="720"/>
  <unicode hex="0042"/>
  <outline>
    <contour>
      <point x="113" y="0" type="line"/>
      <point x="113" y="778" type="line"/>
      <point x="393" y="778" type="line" smooth="yes"/>
      <point x="540" y="778"/>
      <point x="607" y="688"/>
      <point x="607" y="547" type="curve" smooth="yes"/>
      <point x="607" y="489"/>
      <point x="594" y="436"/>
      <point x="541" y="389" type="curve"/>
      <point x="598" y="335"/>
      <point x="607" y="282"/>
      <point x="607" y="208" type="curve" smooth="yes"/>
      <point x="607" y="77"/>
      <point x="520" y="0"/>
      <point x="393" y="0" type="curve" smooth="yes"/>
    </contour>
    <contour>
      <point x="213" y="339" type="line"/>
      <point x="213" y="100" type="line"/>
      <point x="393" y="100" type="line" smooth="yes"/>
      <point x="465" y="100"/>
      <point x="507" y="132"/>
      <point x="507" y="208" type="curve" smooth="yes"/>
      <point x="507" y="292"/>
      <point x="484" y="339"/>
      <point x="393" y="339" type="curve" smooth="yes"/>
    </contour>
    <contour>
      <point x="213" y="678" type="line"/>
      <point x="213" y="439" type="line"/>
      <point x="393" y="439" type="line" smooth="yes"/>
      <point x="465" y="439"/>
      <point x="507" y="471"/>
      <point x="507" y="547" type="curve" smooth="yes"/>
      <point x="507" y="631"/>
      <point x="484" y="678"/>
      <point x="393" y="678" type="curve" smooth="yes"/>
    </contour>
  </outline>
</glyph>
<glyph name="E" format="1">
  <advance width="720"/>
  <unicode hex="0045"/>
  <outline>
    <contour>
      <point x="213" y="100" type="line"/>
      <point x="557" y="100" type="line" smooth="yes"/>
      <point x="583" y="100"/>
      <point x="607" y="86"/>
      <point x="607" y="50" type="curve" smooth="yes"/>
      <point x="607" y="14"/>
      <point x="583" y="0"/>
      <point x="557" y="0" type="curve" smooth="yes"/>
      <point x="113" y="0" type="line"/>
      <point x="113" y="778" type="line"/>
      <point x="557" y="778" type="line" smooth="yes"/>
      <point x="583" y="778"/>
      <point x="607" y="764"/>
      <point x="607" y="728" type="curve" smooth="yes"/>
      <point x="607" y="692"/>
      <point x="583" y="678"/>
      <point x="557" y="678" type="curve" smooth="yes"/>
      <point x="213" y="678" type="line"/>
      <point x="213" y="439" type="line"/>
      <point x="360" y="439" type="line" smooth="yes"/>
      <point x="386" y="439"/>
      <point x="410" y="425"/>
      <point x="410" y="389" type="curve" smooth="yes"/>
      <point x="410" y="353"/>
      <point x="386" y="339"/>
      <point x="360" y="339" type="curve" smooth="yes"/>
      <point x="213" y="339" type="line"/>
    </contour>
  </outline>
</glyph>
<glyph name="F" format="1">
  <advance width="720"/>
  <unicode hex="0046"/>
  <outline>
    <contour>
      <point x="113" y="50" type="curve" smooth="yes"/>
      <point x="113" y="778" type="line"/>
      <point x="557" y="778" type="line" smooth="yes"/>
      <point x="583" y="778"/>
      <point x="607" y="764"/>
      <point x="607" y="728" type="curve" smooth="yes"/>
      <point x="607" y="692"/>
      <point x="583" y="678"/>
      <point x="557" y="678" type="curve" smooth="yes"/>
      <point x="213" y="678" type="line"/>
      <point x="213" y="524" type="line"/>
      <point x="459" y="524" type="line" smooth="yes"/>
      <point x="485" y="524"/>
      <point x="509" y="510"/>
      <point x="509" y="474" type="curve" smooth="yes"/>
      <point x="509" y="438"/>
      <point x="485" y="424"/>
      <point x="459" y="424" type="curve" smooth="yes"/>
      <point x="213" y="424" type="line"/>
      <point x="213" y="50" type="line" smooth="yes"/>
      <point x="213" y="18"/>
      <point x="199" y="0"/>
      <point x="163" y="0" type="curve" smooth="yes"/>
      <point x="127" y="0"/>
      <point x="113" y="18"/>
    </contour>
  </outline>
</glyph>
<glyph name="K" format="1">
  <advance width="720"/>
  <unicode hex="004B"/>
  <outline>
    <contour>
      <point x="113" y="50" type="curve" smooth="yes"/>
      <point x="113" y="728" type="line" smooth="yes"/>
      <point x="113" y="760"/>
      <point x="127" y="778"/>
      <point x="163" y="778" type="curve" smooth="yes"/>
      <point x="199" y="778"/>
      <point x="213" y="760"/>
      <point x="213" y="728" type="curve" smooth="yes"/>
      <point x="213" y="498" type="line"/>
      <point x="518" y="757" type="line" smooth="yes"/>
      <point x="530" y="767"/>
      <point x="543" y="777"/>
      <point x="559" y="777" type="curve" smooth="yes"/>
      <point x="588" y="777"/>
      <point x="607" y="753"/>
      <point x="607" y="725" type="curve" smooth="yes"/>
      <point x="607" y="708"/>
      <point x="596" y="694"/>
      <point x="584" y="683" type="curve" smooth="yes"/>
      <point x="239" y="389" type="line"/>
      <point x="582" y="95" type="line" smooth="yes"/>
      <point x="595" y="84"/>
      <point x="607" y="70"/>
      <point x="607" y="52" type="curve" smooth="yes"/>
      <point x="607" y="24"/>
      <point x="588" y="0"/>
      <point x="559" y="0" type="curve" smooth="yes"/>
      <point x="538" y="0"/>
      <point x="521" y="18"/>
      <point x="505" y="30" type="curve" smooth="yes"/>
      <point x="213" y="281" type="line"/>
      <point x="213" y="50" type="line" smooth="yes"/>
      <point x="213" y="18"/>
      <point x="199" y="0"/>
      <point x="163" y="0" type="curve" smooth="yes"/>
      <point x="127" y="0"/>
      <point x="113" y="18"/>
    </contour>
  </outline>
</glyph>
<glyph name="N" format="1">
  <advance width="720"/>
  <unicode hex="004E"/>
  <outline>
    <contour>
      <point x="507" y="171" type="line"/>
      <point x="508" y="727" type="line" smooth="yes"/>
      <point x="508" y="759"/>
      <point x="522" y="777"/>
      <point x="558" y="777" type="curve" smooth="yes"/>
      <point x="594" y="777"/>
      <point x="608" y="759"/>
      <point x="608" y="727" type="curve" smooth="yes"/>
      <point x="608" y="-1" type="line"/>
      <point x="476" y="-1" type="line"/>
      <point x="215" y="599" type="line"/>
      <point x="215" y="600" type="line"/>
      <point x="213" y="600" type="line"/>
      <point x="213" y="50" type="line" smooth="yes"/>
      <point x="213" y="18"/>
      <point x="199" y="0"/>
      <point x="163" y="0" type="curve" smooth="yes"/>
      <point x="127" y="0"/>
      <point x="113" y="18"/>
      <point x="113" y="50" type="curve" smooth="yes"/>
      <point x="113" y="778" type="line"/>
      <point x="245" y="778" type="line"/>
      <point x="506" y="171" type="line"/>
      <point x="505" y="171" type="line"/>
    </contour>
  </outline>
</glyph>
<glyph name="O" format="1">
  <advance width="720"/>
  <unicode hex="004F"/>
  <outline>
    <contour>
      <point x="481" y="696" type="curve" smooth="yes"/>
      <point x="581" y="497" type="line" smooth="yes"/>
      <point x="600" y="458"/>
      <point x="607" y="429"/>
      <point x="607" y="386" type="curve" smooth="yes"/>
      <point x="607" y="338"/>
      <point x="594" y="308"/>
      <point x="574" y="267" type="curve" smooth="yes"/>
      <point x="482" y="83" type="line" smooth="yes"/>
      <point x="458" y="35"/>
      <point x="418" y="0"/>
      <point x="360" y="0" type="curve" smooth="yes"/>
      <point x="302" y="0"/>
      <point x="262" y="35"/>
      <point x="238" y="83" type="curve" smooth="yes"/>
      <point x="146" y="267" type="line" smooth="yes"/>
      <point x="126" y="308"/>
      <point x="113" y="338"/>
      <point x="113" y="386" type="curve" smooth="yes"/>
      <point x="113" y="429"/>
      <point x="120" y="458"/>
      <point x="139" y="497" type="curve" smooth="yes"/>
      <point x="239" y="696" type="line" smooth="yes"/>
      <point x="263" y="743"/>
      <point x="304" y="778"/>
      <point x="360" y="778" type="curve" smooth="yes"/>
      <point x="416" y="778"/>
      <point x="457" y="743"/>
    </contour>
    <contour>
      <point x="484" y="467" type="curve" smooth="yes"/>
      <point x="394" y="648" type="line" smooth="yes"/>
      <point x="386" y="664"/>
      <point x="381" y="678"/>
      <point x="360" y="678" type="curve" smooth="yes"/>
      <point x="339" y="678"/>
      <point x="334" y="664"/>
      <point x="326" y="648" type="curve" smooth="yes"/>
      <point x="236" y="467" type="line" smooth="yes"/>
      <point x="221" y="438"/>
      <point x="213" y="419"/>
      <point x="213" y="386" type="curve" smooth="yes"/>
      <point x="213" y="360"/>
      <point x="219" y="342"/>
      <point x="230" y="320" type="curve" smooth="yes"/>
      <point x="326" y="130" type="line" smooth="yes"/>
      <point x="333" y="116"/>
      <point x="340" y="100"/>
      <point x="360" y="100" type="curve" smooth="yes"/>
      <point x="380" y="100"/>
      <point x="387" y="116"/>
      <point x="394" y="130" type="curve" smooth="yes"/>
      <point x="490" y="320" type="line" smooth="yes"/>
      <point x="501" y="342"/>
      <point x="507" y="360"/>
      <point x="507" y="386" type="curve" smooth="yes"/>
      <point x="507" y="419"/>
      <point x="499" y="438"/>
    </contour>
  </outline>
</glyph>
<glyph name="X" format="1">
  <advance width="720"/>
  <unicode hex="0058"/>
  <outline>
    <contour>
      <point x="125" y="83" type="curve" smooth="yes"/>
      <point x="303" y="389" type="line"/>
      <point x="125" y="695" type="line" smooth="yes"/>
      <point x="118" y="706"/>
      <point x="113" y="717"/>
      <point x="113" y="731" type="curve" smooth="yes"/>
      <point x="113" y="757"/>
      <point x="137" y="778"/>
      <point x="162" y="778" type="curve" smooth="yes"/>
      <point x="195" y="778"/>
      <point x="206" y="753"/>
      <point x="220" y="729" type="curve" smooth="yes"/>
      <point x="360" y="490" type="line"/>
      <point x="500" y="729" type="line" smooth="yes"/>
      <point x="514" y="753"/>
      <point x="525" y="778"/>
      <point x="558" y="778" type="curve" smooth="yes"/>
      <point x="583" y="778"/>
      <point x="607" y="757"/>
      <point x="607" y="731" type="curve" smooth="yes"/>
      <point x="607" y="717"/>
      <point x="602" y="706"/>
      <point x="595" y="695" type="curve" smooth="yes"/>
      <point x="417" y="389" type="line"/>
      <point x="595" y="83" type="line" smooth="yes"/>
      <point x="602" y="72"/>
      <point x="607" y="61"/>
      <point x="607" y="47" type="curve" smooth="yes"/>
      <point x="607" y="21"/>
      <point x="583" y="0"/>
      <point x="558" y="0" type="curve" smooth="yes"/>
      <point x="525" y="0"/>
      <point x="514" y="25"/>
      <point x="500" y="49" type="curve" smooth="yes"/>
      <point x="360" y="288" type="line"/>
      <point x="220" y="49" type="line" smooth="yes"/>
      <point x="206" y="25"/>
      <point x="195" y="0"/>
      <point x="162" y="0" type="curve" smooth="yes"/>
      <point x="137" y="0"/>
      <point x="113" y="21"/>
      <point x="113" y="47" type="curve" smooth="yes"/>
      <point x="113" y="61"/>
      <point x="118" y="72"/>
    </contour>
  </outline>
</glyph>
<glyph name="Z" format="1">
  <advance width="720"/>
  <unicode hex="005A"/>
  <outline>
    <contour>
      <point x="607" y="778" type="line"/>
      <point x="607" y="713" type="line"/>
      <point x="248" y="100" type="line"/>
      <point x="557" y="100" type="line" smooth="yes"/>
      <point x="583" y="100"/>
      <point x="607" y="86"/>
      <point x="607" y="50" type="curve" smooth="yes"/>
      <point x="607" y="14"/>
      <point x="583" y="0"/>
      <point x="557" y="0" type="curve" smooth="yes"/>
      <point x="113" y="0" type="line"/>
      <point x="113" y="63" type="line"/>
      <point x="471" y="678" type="line"/>
      <point x="163" y="678" type="line" smooth="yes"/>
      <point x="137" y="678"/>
      <point x="113" y="692"/>
      <point x="113" y="728" type="curve" smooth="yes"/>
      <point x="113" y="764"/>
      <point x="137" y="778"/>
      <point x="163" y="778" type="curve" smooth="yes"/>
    </contour>
  </outline>
</glyph>
<glyph name="backslash" format="1">
  <advance width="720"/>
  <unicode hex="005C"/>
  <outline>
    <contour>
      <point x="509" y="35" type="curve" smooth="yes"/>
      <point x="125" y="692" type="line" smooth="yes"/>
      <point x="119" y="703"/>
      <point x="113" y="715"/>
      <point x="113" y="728" type="curve" smooth="yes"/>
      <point x="113" y="754"/>
      <point x="137" y="778"/>
      <point x="163" y="778" type="curve" smooth="yes"/>
      <point x="188" y="778"/>
      <point x="200" y="760"/>
      <point x="212" y="740" type="curve" smooth="yes"/>
      <point x="586" y="99" type="line" smooth="yes"/>
      <point x="596" y="83"/>
      <point x="607" y="66"/>
      <point x="607" y="47" type="curve" smooth="yes"/>
      <point x="607" y="21"/>
      <point x="583" y="0"/>
      <point x="558" y="0" type="curve" smooth="yes"/>
      <point x="533" y="0"/>
      <point x="521" y="14"/>
    </contour>
  </outline>
</glyph>
<glyph name="underscore" format="1">
  <advance width="720"/>
  <unicode hex="005F"/>
  <outline>
    <contour>
      <point x="0" y="-59" type="line"/>
      <point x="720" y="-59" type="line"/>
      <point x="720" y="-159" type="line"/>
      <point x="0" y="-159" type="line"/>
    </contour>
  </outline>
</glyph>
<glyph name="grave" format="1">
  <advance width="720"/>
  <unicode hex="0060"/>
  <outline>
    <contour>
      <point x="252" y="773" type="curve" smooth="yes"/>
      <point x="434" y="668" type="line" smooth="yes"/>
      <point x="448" y="660"/>
      <point x="453" y="647"/>
      <point x="453" y="634" type="curve" smooth="yes"/>
      <point x="453" y="610"/>
      <point x="434" y="583"/>
      <point x="409" y="583" type="curve" smooth="yes"/>
      <point x="403" y="583"/>
      <point x="397" y="585"/>
      <point x="391" y="588" type="curve" smooth="yes"/>
      <point x="200" y="682" type="line" smooth="yes"/>
      <point x="186" y="689"/>
      <point x="180" y="701"/>
      <point x="179" y="714" type="curve" smooth="yes"/>
      <point x="177" y="743"/>
      <point x="203" y="778"/>
      <point x="232" y="778" type="curve" smooth="yes"/>
      <point x="239" y="778"/>
      <point x="247" y="776"/>
    </contour>
  </outline>
</glyph>
<glyph name="d" format="1">
  <advance width="720"/>
  <unicode hex="0064"/>
  <outline>
    <contour>
      <point x="303" y="539" type="curve" smooth="yes"/>
      <point x="388" y="539" type="line" smooth="yes"/>
      <point x="421" y="539"/>
      <point x="448" y="521"/>
      <point x="483" y="486" type="curve" smooth="yes"/>
      <point x="499" y="469" type="line"/>
      <point x="499" y="671" type="line" smooth="yes"/>
      <point x="499" y="704"/>
      <point x="506" y="737"/>
      <point x="547" y="737" type="curve" smooth="yes"/>
      <point x="588" y="737"/>
      <point x="595" y="704"/>
      <point x="595" y="671" type="curve" smooth="yes"/>
      <point x="595" y="67" type="line" smooth="yes"/>
      <point x="595" y="34"/>
      <point x="588" y="0"/>
      <point x="547" y="0" type="curve" smooth="yes"/>
      <point x="509" y="0"/>
      <point x="499" y="32"/>
      <point x="499" y="64" type="curve" smooth="yes"/>
      <point x="499" y="70" type="line"/>
      <point x="478" y="49" type="line" smooth="yes"/>
      <point x="448" y="21"/>
      <point x="415" y="0"/>
      <point x="386" y="0" type="curve" smooth="yes"/>
      <point x="293" y="0" type="line" smooth="yes"/>
      <point x="261" y="0"/>
      <point x="225" y="22"/>
      <point x="211" y="34" type="curve" smooth="yes"/>
      <point x="178" y="62" type="line" smooth="yes"/>
      <point x="138" y="96"/>
      <point x="125" y="122"/>
      <point x="125" y="173" type="curve" smooth="yes"/>
      <point x="125" y="366" type="line" smooth="yes"/>
      <point x="125" y="417"/>
      <point x="138" y="443"/>
      <point x="178" y="477" type="curve" smooth="yes"/>
      <point x="211" y="505" type="line" smooth="yes"/>
      <point x="241" y="531"/>
      <point x="263" y="539"/>
    </contour>
    <contour>
      <point x="221" y="328" type="curve" smooth="yes"/>
      <point x="221" y="211" type="line" smooth="yes"/>
      <point x="221" y="184"/>
      <point x="221" y="150"/>
      <point x="236" y="138" type="curve" smooth="yes"/>
      <point x="265" y="115" type="line" smooth="yes"/>
      <point x="277" y="105"/>
      <point x="289" y="96"/>
      <point x="301" y="96" type="curve" smooth="yes"/>
      <point x="369" y="96" type="line" smooth="yes"/>
      <point x="381" y="96"/>
      <point x="398" y="104"/>
      <point x="416" y="120" type="curve" smooth="yes"/>
      <point x="471" y="167" type="line" smooth="yes"/>
      <point x="485" y="179"/>
      <point x="499" y="191"/>
      <point x="499" y="209" type="curve" smooth="yes"/>
      <point x="499" y="330" type="line" smooth="yes"/>
      <point x="499" y="348"/>
      <point x="485" y="360"/>
      <point x="471" y="372" type="curve" smooth="yes"/>
      <point x="416" y="419" type="line" smooth="yes"/>
      <point x="398" y="435"/>
      <point x="381" y="443"/>
      <point x="369" y="443" type="curve" smooth="yes"/>
      <point x="301" y="443" type="line" smooth="yes"/>
      <point x="289" y="443"/>
      <point x="277" y="434"/>
      <point x="265" y="424" type="curve" smooth="yes"/>
      <point x="236" y="401" type="line" smooth="yes"/>
      <point x="221" y="389"/>
      <point x="221" y="355"/>
    </contour>
  </outline>
</glyph>
<glyph name="f" format="1">
  <advance width="720"/>
  <unicode hex="0066"/>
  <outline>
    <contour>
      <point x="266" y="66" type="curve" smooth="yes"/>
      <point x="266" y="443" type="line"/>
      <point x="239" y="443" type="line" smooth="yes"/>
      <point x="211" y="443"/>
      <point x="173" y="449"/>
      <point x="173" y="491" type="curve" smooth="yes"/>
      <point x="173" y="532"/>
      <point x="207" y="539"/>
      <point x="239" y="539" type="curve" smooth="yes"/>
      <point x="266" y="539" type="line"/>
      <point x="266" y="552" type="line" smooth="yes"/>
      <point x="266" y="607"/>
      <point x="269" y="647"/>
      <point x="312" y="689" type="curve" smooth="yes"/>
      <point x="358" y="733"/>
      <point x="401" y="737"/>
      <point x="460" y="737" type="curve" smooth="yes"/>
      <point x="525" y="737" type="line" smooth="yes"/>
      <point x="558" y="737"/>
      <point x="595" y="734"/>
      <point x="595" y="689" type="curve" smooth="yes"/>
      <point x="595" y="648"/>
      <point x="562" y="641"/>
      <point x="529" y="641" type="curve" smooth="yes"/>
      <point x="454" y="641" type="line" smooth="yes"/>
      <point x="389" y="641"/>
      <point x="362" y="628"/>
      <point x="362" y="558" type="curve" smooth="yes"/>
      <point x="362" y="539" type="line"/>
      <point x="447" y="539" type="line" smooth="yes"/>
      <point x="479" y="539"/>
      <point x="513" y="532"/>
      <point x="513" y="491" type="curve" smooth="yes"/>
      <point x="513" y="449"/>
      <point x="475" y="443"/>
      <point x="447" y="443" type="curve" smooth="yes"/>
      <point x="362" y="443" type="line"/>
      <point x="362" y="66" type="line" smooth="yes"/>
      <point x="362" y="33"/>
      <point x="355" y="0"/>
      <point x="314" y="0" type="curve" smooth="yes"/>
      <point x="273" y="0"/>
      <point x="266" y="33"/>
    </contour>
  </outline>
</glyph>
<glyph name="g" format="1">
  <advance width="720"/>
  <unicode hex="0067"/>
  <outline>
    <contour>
      <point x="125" y="214" type="curve" smooth="yes"/>
      <point x="125" y="360" type="line" smooth="yes"/>
      <point x="125" y="405"/>
      <point x="138" y="445"/>
      <point x="158" y="461" type="curve" smooth="yes"/>
      <point x="228" y="516" type="line" smooth="yes"/>
      <point x="248" y="532"/>
      <point x="263" y="539"/>
      <point x="288" y="539" type="curve" smooth="yes"/>
      <point x="381" y="539" type="line" smooth="yes"/>
      <point x="407" y="539"/>
      <point x="438" y="520"/>
      <point x="475" y="491" type="curve" smooth="yes"/>
      <point x="499" y="472" type="line"/>
      <point x="499" y="483" type="line" smooth="yes"/>
      <point x="499" y="513"/>
      <point x="515" y="539"/>
      <point x="548" y="539" type="curve" smooth="yes"/>
      <point x="590" y="539"/>
      <point x="595" y="504"/>
      <point x="595" y="472" type="curve" smooth="yes"/>
      <point x="595" y="3" type="line" smooth="yes"/>
      <point x="595" y="-84"/>
      <point x="588" y="-102"/>
      <point x="548" y="-136" type="curve" smooth="yes"/>
      <point x="516" y="-163" type="line" smooth="yes"/>
      <point x="474" y="-198"/>
      <point x="450" y="-204"/>
      <point x="396" y="-204" type="curve" smooth="yes"/>
      <point x="237" y="-204" type="line" smooth="yes"/>
      <point x="209" y="-204"/>
      <point x="171" y="-198"/>
      <point x="171" y="-156" type="curve" smooth="yes"/>
      <point x="171" y="-115"/>
      <point x="205" y="-108"/>
      <point x="237" y="-108" type="curve" smooth="yes"/>
      <point x="413" y="-108" type="line" smooth="yes"/>
      <point x="433" y="-108"/>
      <point x="446" y="-99"/>
      <point x="461" y="-86" type="curve" smooth="yes"/>
      <point x="485" y="-64" type="line" smooth="yes"/>
      <point x="493" y="-56"/>
      <point x="499" y="-42"/>
      <point x="499" y="-24" type="curve" smooth="yes"/>
      <point x="499" y="108" type="line"/>
      <point x="479" y="88" type="line" smooth="yes"/>
      <point x="457" y="66"/>
      <point x="427" y="41"/>
      <point x="400" y="41" type="curve" smooth="yes"/>
      <point x="287" y="41" type="line" smooth="yes"/>
      <point x="267" y="41"/>
      <point x="244" y="44"/>
      <point x="215" y="70" type="curve" smooth="yes"/>
      <point x="155" y="124" type="line" smooth="yes"/>
      <point x="127" y="150"/>
      <point x="125" y="175"/>
    </contour>
    <contour>
      <point x="221" y="352" type="curve" smooth="yes"/>
      <point x="221" y="228" type="line" smooth="yes"/>
      <point x="221" y="208"/>
      <point x="222" y="187"/>
      <point x="233" y="178" type="curve" smooth="yes"/>
      <point x="273" y="146" type="line" smooth="yes"/>
      <point x="280" y="140"/>
      <point x="289" y="137"/>
      <point x="301" y="137" type="curve" smooth="yes"/>
      <point x="371" y="137" type="line" smooth="yes"/>
      <point x="383" y="137"/>
      <point x="397" y="147"/>
      <point x="415" y="162" type="curve" smooth="yes"/>
      <point x="489" y="223" type="line" smooth="yes"/>
      <point x="496" y="229"/>
      <point x="499" y="242"/>
      <point x="499" y="255" type="curve" smooth="yes"/>
      <point x="499" y="325" type="line" smooth="yes"/>
      <point x="499" y="338"/>
      <point x="496" y="351"/>
      <point x="489" y="357" type="curve" smooth="yes"/>
      <point x="415" y="418" type="line" smooth="yes"/>
      <point x="397" y="433"/>
      <point x="383" y="443"/>
      <point x="371" y="443" type="curve" smooth="yes"/>
      <point x="301" y="443" type="line" smooth="yes"/>
      <point x="289" y="443"/>
      <point x="280" y="440"/>
      <point x="273" y="434" type="curve" smooth="yes"/>
      <point x="233" y="402" type="line" smooth="yes"/>
      <point x="222" y="393"/>
      <point x="221" y="372"/>
    </contour>
  </outline>
</glyph>
<glyph name="j" format="1">
  <advance width="720"/>
  <unicode hex="006A"/>
  <outline>
    <contour>
      <point x="548" y="472" type="curve" smooth="yes"/>
      <point x="548" y="-27" type="line" smooth="yes"/>
      <point x="548" y="-80"/>
      <point x="548" y="-121"/>
      <point x="509" y="-162" type="curve" smooth="yes"/>
      <point x="470" y="-204"/>
      <point x="429" y="-204"/>
      <point x="397" y="-204" type="curve" smooth="yes"/>
      <point x="317" y="-204" type="line" smooth="yes"/>
      <point x="290" y="-204"/>
      <point x="258" y="-201"/>
      <point x="227" y="-177" type="curve" smooth="yes"/>
      <point x="199" y="-156"/>
      <point x="172" y="-113"/>
      <point x="172" y="-77" type="curve" smooth="yes"/>
      <point x="172" y="-51"/>
      <point x="194" y="-30"/>
      <point x="219" y="-30" type="curve" smooth="yes"/>
      <point x="245" y="-30"/>
      <point x="261" y="-44"/>
      <point x="268" y="-68" type="curve" smooth="yes"/>
      <point x="278" y="-104"/>
      <point x="294" y="-108"/>
      <point x="330" y="-108" type="curve" smooth="yes"/>
      <point x="393" y="-108" type="line" smooth="yes"/>
      <point x="454" y="-108"/>
      <point x="452" y="-83"/>
      <point x="452" y="-27" type="curve" smooth="yes"/>
      <point x="452" y="443" type="line"/>
      <point x="336" y="443" type="line" smooth="yes"/>
      <point x="308" y="443"/>
      <point x="270" y="449"/>
      <point x="270" y="491" type="curve" smooth="yes"/>
      <point x="270" y="532"/>
      <point x="304" y="539"/>
      <point x="336" y="539" type="curve" smooth="yes"/>
      <point x="477" y="539" type="line" smooth="yes"/>
      <point x="532" y="539"/>
      <point x="548" y="529"/>
    </contour>
    <contour>
      <point x="403" y="687" type="curve" smooth="yes"/>
      <point x="403" y="733" type="line" smooth="yes"/>
      <point x="403" y="767"/>
      <point x="422" y="778"/>
      <point x="448" y="778" type="curve" smooth="yes"/>
      <point x="503" y="778" type="line" smooth="yes"/>
      <point x="529" y="778"/>
      <point x="548" y="767"/>
      <point x="548" y="733" type="curve" smooth="yes"/>
      <point x="548" y="687" type="line" smooth="yes"/>
      <point x="548" y="653"/>
      <point x="529" y="642"/>
      <point x="503" y="642" type="curve" smooth="yes"/>
      <point x="448" y="642" type="line" smooth="yes"/>
      <point x="422" y="642"/>
      <point x="403" y="653"/>
    </contour>
  </outline>
</glyph>
<glyph name="m" format="1">
  <advance width="720"/>
  <unicode hex="006D"/>
  <outline>
    <contour>
      <point x="428" y="400" type="curve" smooth="yes"/>
      <point x="408" y="378" type="line"/>
      <point x="408" y="66" type="line" smooth="yes"/>
      <point x="408" y="33"/>
      <point x="401" y="0"/>
      <point x="360" y="0" type="curve" smooth="yes"/>
      <point x="319" y="0"/>
      <point x="312" y="33"/>
      <point x="312" y="66" type="curve" smooth="yes"/>
      <point x="312" y="387" type="line" smooth="yes"/>
      <point x="312" y="403"/>
      <point x="314" y="433"/>
      <point x="289" y="433" type="curve" smooth="yes"/>
      <point x="278" y="433"/>
      <point x="271" y="424"/>
      <point x="263" y="417" type="curve" smooth="yes"/>
      <point x="221" y="378" type="line"/>
      <point x="221" y="66" type="line" smooth="yes"/>
      <point x="221" y="33"/>
      <point x="214" y="0"/>
      <point x="173" y="0" type="curve" smooth="yes"/>
      <point x="132" y="0"/>
      <point x="125" y="33"/>
      <point x="125" y="66" type="curve" smooth="yes"/>
      <point x="125" y="471" type="line" smooth="yes"/>
      <point x="125" y="505"/>
      <point x="134" y="539"/>
      <point x="175" y="539" type="curve" smooth="yes"/>
      <point x="199" y="539"/>
      <point x="215" y="523"/>
      <point x="221" y="501" type="curve"/>
      <point x="229" y="507" type="line" smooth="yes"/>
      <point x="254" y="526"/>
      <point x="269" y="539"/>
      <point x="302" y="539" type="curve" smooth="yes"/>
      <point x="339" y="539"/>
      <point x="368" y="521"/>
      <point x="390" y="491" type="curve"/>
      <point x="398" y="499" type="line" smooth="yes"/>
      <point x="428" y="529"/>
      <point x="440" y="539"/>
      <point x="482" y="539" type="curve" smooth="yes"/>
      <point x="514" y="539"/>
      <point x="543" y="525"/>
      <point x="562" y="500" type="curve" smooth="yes"/>
      <point x="586" y="469"/>
      <point x="584" y="441"/>
      <point x="585" y="404" type="curve" smooth="yes"/>
      <point x="595" y="72" type="line" smooth="yes"/>
      <point x="596" y="38"/>
      <point x="591" y="0"/>
      <point x="548" y="0" type="curve" smooth="yes"/>
      <point x="509" y="0"/>
      <point x="501" y="33"/>
      <point x="500" y="65" type="curve" smooth="yes"/>
      <point x="490" y="382" type="line" smooth="yes"/>
      <point x="489" y="399"/>
      <point x="494" y="433"/>
      <point x="468" y="433" type="curve" smooth="yes"/>
      <point x="454" y="433"/>
      <point x="436" y="409"/>
    </contour>
  </outline>
</glyph>
<glyph name="o" format="1">
  <advance width="720"/>
  <unicode hex="006F"/>
  <outline>
    <contour>
      <point x="125" y="179" type="curve" smooth="yes"/>
      <point x="125" y="360" type="line" smooth="yes"/>
      <point x="125" y="424"/>
      <point x="138" y="446"/>
      <point x="186" y="485" type="curve" smooth="yes"/>
      <point x="233" y="524"/>
      <point x="255" y="539"/>
      <point x="322" y="539" type="curve" smooth="yes"/>
      <point x="398" y="539" type="line" smooth="yes"/>
      <point x="465" y="539"/>
      <point x="487" y="524"/>
      <point x="534" y="485" type="curve" smooth="yes"/>
      <point x="582" y="446"/>
      <point x="595" y="424"/>
      <point x="595" y="360" type="curve" smooth="yes"/>
      <point x="595" y="179" type="line" smooth="yes"/>
      <point x="595" y="116"/>
      <point x="579" y="92"/>
      <point x="529" y="50" type="curve" smooth="yes"/>
      <point x="479" y="8"/>
      <point x="459" y="0"/>
      <point x="398" y="0" type="curve" smooth="yes"/>
      <point x="322" y="0" type="line" smooth="yes"/>
      <point x="261" y="0"/>
      <point x="241" y="8"/>
      <point x="191" y="50" type="curve" smooth="yes"/>
      <point x="141" y="92"/>
      <point x="125" y="116"/>
    </contour>
    <contour>
      <point x="221" y="360" type="curve" smooth="yes"/>
      <point x="221" y="179" type="line" smooth="yes"/>
      <point x="221" y="159"/>
      <point x="228" y="146"/>
      <point x="256" y="122" type="curve" smooth="yes"/>
      <point x="277" y="104"/>
      <point x="292" y="96"/>
      <point x="322" y="96" type="curve" smooth="yes"/>
      <point x="398" y="96" type="line" smooth="yes"/>
      <point x="428" y="96"/>
      <point x="443" y="104"/>
      <point x="464" y="122" type="curve" smooth="yes"/>
      <point x="492" y="146"/>
      <point x="499" y="159"/>
      <point x="499" y="179" type="curve" smooth="yes"/>
      <point x="499" y="360" type="line" smooth="yes"/>
      <point x="499" y="380"/>
      <point x="492" y="393"/>
      <point x="464" y="417" type="curve" smooth="yes"/>
      <point x="443" y="435"/>
      <point x="428" y="443"/>
      <point x="398" y="443" type="curve" smooth="yes"/>
      <point x="322" y="443" type="line" smooth="yes"/>
      <point x="292" y="443"/>
      <point x="277" y="435"/>
      <point x="256" y="417" type="curve" smooth="yes"/>
      <point x="228" y="393"/>
      <point x="221" y="380"/>
    </contour>
  </outline>
</glyph>
<glyph name="s" format="1">
  <advance width="720"/>
  <unicode hex="0073"/>
  <outline>
    <contour>
      <point x="435" y="443" type="curve" smooth="yes"/>
      <point x="289" y="443" type="line" smooth="yes"/>
      <point x="269" y="443"/>
      <point x="235" y="447"/>
      <point x="235" y="416" type="curve" smooth="yes"/>
      <point x="235" y="400"/>
      <point x="247" y="394"/>
      <point x="261" y="388" type="curve" smooth="yes"/>
      <point x="501" y="279" type="line" smooth="yes"/>
      <point x="563" y="251"/>
      <point x="595" y="212"/>
      <point x="595" y="143" type="curve" smooth="yes"/>
      <point x="595" y="46"/>
      <point x="529" y="0"/>
      <point x="437" y="0" type="curve" smooth="yes"/>
      <point x="289" y="0" type="line" smooth="yes"/>
      <point x="239" y="0"/>
      <point x="205" y="2"/>
      <point x="169" y="30" type="curve" smooth="yes"/>
      <point x="151" y="44"/>
      <point x="125" y="62"/>
      <point x="125" y="86" type="curve" smooth="yes"/>
      <point x="125" y="113"/>
      <point x="148" y="134"/>
      <point x="175" y="134" type="curve" smooth="yes"/>
      <point x="190" y="134"/>
      <point x="201" y="129"/>
      <point x="212" y="117" type="curve" smooth="yes"/>
      <point x="229" y="98"/>
      <point x="259" y="96"/>
      <point x="289" y="96" type="curve" smooth="yes"/>
      <point x="419" y="96" type="line" smooth="yes"/>
      <point x="453" y="96"/>
      <point x="499" y="93"/>
      <point x="499" y="149" type="curve" smooth="yes"/>
      <point x="499" y="172"/>
      <point x="471" y="187"/>
      <point x="449" y="197" type="curve" smooth="yes"/>
      <point x="223" y="300" type="line" smooth="yes"/>
      <point x="170" y="324"/>
      <point x="139" y="355"/>
      <point x="139" y="417" type="curve" smooth="yes"/>
      <point x="139" y="493"/>
      <point x="199" y="539"/>
      <point x="271" y="539" type="curve" smooth="yes"/>
      <point x="435" y="539" type="line" smooth="yes"/>
      <point x="488" y="539"/>
      <point x="510" y="536"/>
      <point x="546" y="506" type="curve" smooth="yes"/>
      <point x="564" y="491"/>
      <point x="584" y="479"/>
      <point x="584" y="452" type="curve" smooth="yes"/>
      <point x="584" y="425"/>
      <point x="561" y="404"/>
      <point x="535" y="404" type="curve" smooth="yes"/>
      <point x="517" y="404"/>
      <point x="506" y="411"/>
      <point x="494" y="424" type="curve" smooth="yes"/>
      <point x="478" y="441"/>
      <point x="461" y="443"/>
    </contour>
  </outline>
</glyph>
<glyph name="u" format="1">
  <advance width="720"/>
  <unicode hex="0075"/>
  <outline>
    <contour>
      <point x="595" y="473" type="curve" smooth="yes"/>
      <point x="595" y="71" type="line" smooth="yes"/>
      <point x="595" y="49"/>
      <point x="599" y="0"/>
      <point x="548" y="0" type="curve" smooth="yes"/>
      <point x="507" y="0"/>
      <point x="500" y="34"/>
      <point x="500" y="67" type="curve" smooth="yes"/>
      <point x="500" y="83" type="line"/>
      <point x="422" y="32" type="line" smooth="yes"/>
      <point x="391" y="12"/>
      <point x="365" y="0"/>
      <point x="339" y="0" type="curve" smooth="yes"/>
      <point x="268" y="0" type="line" smooth="yes"/>
      <point x="241" y="0"/>
      <point x="211" y="8"/>
      <point x="179" y="35" type="curve" smooth="yes"/>
      <point x="136" y="72"/>
      <point x="137" y="113"/>
      <point x="135" y="165" type="curve" smooth="yes"/>
      <point x="125" y="467" type="line" smooth="yes"/>
      <point x="124" y="502"/>
      <point x="129" y="539"/>
      <point x="173" y="539" type="curve" smooth="yes"/>
      <point x="214" y="539"/>
      <point x="219" y="504"/>
      <point x="220" y="473" type="curve" smooth="yes"/>
      <point x="230" y="178" type="line" smooth="yes"/>
      <point x="231" y="156"/>
      <point x="232" y="130"/>
      <point x="240" y="116" type="curve" smooth="yes"/>
      <point x="248" y="102"/>
      <point x="273" y="96"/>
      <point x="296" y="96" type="curve" smooth="yes"/>
      <point x="328" y="96" type="line" smooth="yes"/>
      <point x="339" y="96"/>
      <point x="349" y="99"/>
      <point x="358" y="105" type="curve" smooth="yes"/>
      <point x="499" y="194" type="line"/>
      <point x="499" y="473" type="line" smooth="yes"/>
      <point x="499" y="506"/>
      <point x="506" y="539"/>
      <point x="547" y="539" type="curve" smooth="yes"/>
      <point x="588" y="539"/>
      <point x="595" y="506"/>
    </contour>
  </outline>
</glyph>
<glyph name="v" format="1">
  <advance width="720"/>
  <unicode hex="0076"/>
  <outline>
    <contour>
      <point x="360" y="100" type="line"/>
      <point x="499" y="419" type="line"/>
      <point x="499" y="468" type="line" smooth="yes"/>
      <point x="499" y="502"/>
      <point x="505" y="539"/>
      <point x="548" y="539" type="curve" smooth="yes"/>
      <point x="582" y="539"/>
      <point x="595" y="512"/>
      <point x="595" y="481" type="curve" smooth="yes"/>
      <point x="595" y="413" type="line" smooth="yes"/>
      <point x="595" y="397"/>
      <point x="591" y="389"/>
      <point x="584" y="374" type="curve" smooth="yes"/>
      <point x="441" y="60" type="line" smooth="yes"/>
      <point x="432" y="40"/>
      <point x="415" y="0"/>
      <point x="391" y="0" type="curve" smooth="yes"/>
      <point x="329" y="0" type="line" smooth="yes"/>
      <point x="305" y="0"/>
      <point x="288" y="40"/>
      <point x="279" y="60" type="curve" smooth="yes"/>
      <point x="136" y="374" type="line" smooth="yes"/>
      <point x="129" y="389"/>
      <point x="125" y="397"/>
      <point x="125" y="413" type="curve" smooth="yes"/>
      <point x="125" y="481" type="line" smooth="yes"/>
      <point x="125" y="512"/>
      <point x="138" y="539"/>
      <point x="172" y="539" type="curve" smooth="yes"/>
      <point x="215" y="539"/>
      <point x="221" y="502"/>
      <point x="221" y="468" type="curve" smooth="yes"/>
      <point x="221" y="419" type="line"/>
    </contour>
  </outline>
</glyph>
<glyph name="x" format="1">
  <advance width="720"/>
  <unicode hex="0078"/>
  <outline>
    <contour>
      <point x="148" y="95" type="curve" smooth="yes"/>
      <point x="295" y="269" type="line"/>
      <point x="148" y="443" type="line" smooth="yes"/>
      <point x="137" y="457"/>
      <point x="125" y="470"/>
      <point x="125" y="488" type="curve" smooth="yes"/>
      <point x="125" y="515"/>
      <point x="146" y="539"/>
      <point x="173" y="539" type="curve" smooth="yes"/>
      <point x="202" y="539"/>
      <point x="221" y="509"/>
      <point x="238" y="488" type="curve" smooth="yes"/>
      <point x="360" y="338" type="line"/>
      <point x="482" y="488" type="line" smooth="yes"/>
      <point x="499" y="509"/>
      <point x="518" y="539"/>
      <point x="547" y="539" type="curve" smooth="yes"/>
      <point x="574" y="539"/>
      <point x="595" y="515"/>
      <point x="595" y="488" type="curve" smooth="yes"/>
      <point x="595" y="470"/>
      <point x="583" y="457"/>
      <point x="572" y="443" type="curve" smooth="yes"/>
      <point x="425" y="269" type="line"/>
      <point x="572" y="95" type="line" smooth="yes"/>
      <point x="583" y="81"/>
      <point x="595" y="68"/>
      <point x="595" y="50" type="curve" smooth="yes"/>
      <point x="595" y="23"/>
      <point x="574" y="0"/>
      <point x="547" y="0" type="curve" smooth="yes"/>
      <point x="518" y="0"/>
      <point x="499" y="29"/>
      <point x="482" y="50" type="curve" smooth="yes"/>
      <point x="360" y="200" type="line"/>
      <point x="238" y="50" type="line" smooth="yes"/>
      <point x="221" y="29"/>
      <point x="202" y="0"/>
      <point x="173" y="0" type="curve" smooth="yes"/>
      <point x="146" y="0"/>
      <point x="125" y="23"/>
      <point x="125" y="50" type="curve" smooth="yes"/>
      <point x="125" y="68"/>
      <point x="137" y="81"/>
    </contour>
  </outline>
</glyph>
<glyph name="cent" format="1">
  <advance width="720"/>
  <unicode hex="00A2"/>
  <outline>
    <contour>
      <point x="153" y="300" type="curve" smooth="yes"/>
      <point x="153" y="558" type="line" smooth="yes"/>
      <point x="153" y="585"/>
      <point x="176" y="608"/>
      <point x="203" y="608" type="curve" smooth="yes"/>
      <point x="310" y="608" type="line"/>
      <point x="310" y="728" type="line" smooth="yes"/>
      <point x="310" y="760"/>
      <point x="324" y="778"/>
      <point x="360" y="778" type="curve" smooth="yes"/>
      <point x="396" y="778"/>
      <point x="410" y="760"/>
      <point x="410" y="728" type="curve" smooth="yes"/>
      <point x="410" y="608" type="line"/>
      <point x="517" y="608" type="line" smooth="yes"/>
      <point x="543" y="608"/>
      <point x="567" y="594"/>
      <point x="567" y="558" type="curve" smooth="yes"/>
      <point x="567" y="522"/>
      <point x="543" y="508"/>
      <point x="517" y="508" type="curve" smooth="yes"/>
      <point x="253" y="508" type="line"/>
      <point x="253" y="350" type="line"/>
      <point x="517" y="350" type="line" smooth="yes"/>
      <point x="543" y="350"/>
      <point x="567" y="336"/>
      <point x="567" y="300" type="curve" smooth="yes"/>
      <point x="567" y="264"/>
      <point x="543" y="250"/>
      <point x="517" y="250" type="curve" smooth="yes"/>
      <point x="410" y="250" type="line"/>
      <point x="410" y="130" type="line" smooth="yes"/>
      <point x="410" y="98"/>
      <point x="396" y="80"/>
      <point x="360" y="80" type="curve" smooth="yes"/>
      <point x="324" y="80"/>
      <point x="310" y="98"/>
      <point x="310" y="130" type="curve" smooth="yes"/>
      <point x="310" y="250" type="line"/>
      <point x="203" y="250" type="line" smooth="yes"/>
      <point x="176" y="250"/>
      <point x="153" y="273"/>
    </contour>
  </outline>
</glyph>
<glyph name="sterling" format="1">
  <advance width="720"/>
  <unicode hex="00A3"/>
  <outline>
    <contour>
      <point x="328" y="100" type="line"/>
      <point x="557" y="100" type="line" smooth="yes"/>
      <point x="583" y="100"/>
      <point x="607" y="86"/>
      <point x="607" y="50" type="curve" smooth="yes"/>
      <point x="607" y="14"/>
      <point x="583" y="0"/>
      <point x="557" y="0" type="curve" smooth="yes"/>
      <point x="163" y="0" type="line" smooth="yes"/>
      <point x="137" y="0"/>
      <point x="113" y="14"/>
      <point x="113" y="50" type="curve" smooth="yes"/>
      <point x="113" y="86"/>
      <point x="137" y="100"/>
      <point x="163" y="100" type="curve" smooth="yes"/>
      <point x="223" y="100" type="line"/>
      <point x="293" y="340" type="line"/>
      <point x="163" y="340" type="line" smooth="yes"/>
      <point x="137" y="340"/>
      <point x="113" y="354"/>
      <point x="113" y="390" type="curve" smooth="yes"/>
      <point x="113" y="426"/>
      <point x="137" y="440"/>
      <point x="163" y="440" type="curve" smooth="yes"/>
      <point x="321" y="440" type="line"/>
      <point x="398" y="708" type="line" smooth="yes"/>
      <point x="410" y="750"/>
      <point x="455" y="778"/>
      <point x="521" y="778" type="curve" smooth="yes"/>
      <point x="557" y="778" type="line" smooth="yes"/>
      <point x="583" y="778"/>
      <point x="607" y="764"/>
      <point x="607" y="728" type="curve" smooth="yes"/>
      <point x="607" y="692"/>
      <point x="583" y="678"/>
      <point x="557" y="678" type="curve" smooth="yes"/>
      <point x="526" y="678" type="line" smooth="yes"/>
      <point x="499" y="678"/>
      <point x="490" y="661"/>
      <point x="485" y="644" type="curve" smooth="yes"/>
      <point x="426" y="440" type="line"/>
      <point x="557" y="440" type="line" smooth="yes"/>
      <point x="583" y="440"/>
      <point x="607" y="426"/>
      <point x="607" y="390" type="curve" smooth="yes"/>
      <point x="607" y="354"/>
      <point x="583" y="340"/>
      <point x="557" y="340" type="curve" smooth="yes"/>
      <point x="397" y="340" type="line"/>
    </contour>
  </outline>
</glyph>
<glyph name="currency" format="1">
  <advance width="720"/>
  <unicode hex="00A4"/>
  <outline>
    <contour>
      <point x="533" y="476" type="curve" smooth="yes"/>
      <point x="533" y="330" type="line" smooth="yes"/>
      <point x="533" y="313"/>
      <point x="531" y="298"/>
      <point x="527" y="285" type="curve"/>
      <point x="581" y="218" type="line" smooth="yes"/>
      <point x="590" y="207"/>
      <point x="594" y="195"/>
      <point x="594" y="185" type="curve" smooth="yes"/>
      <point x="594" y="159"/>
      <point x="571" y="138"/>
      <point x="545" y="138" type="curve" smooth="yes"/>
      <point x="531" y="138"/>
      <point x="515" y="144"/>
      <point x="502" y="160" type="curve" smooth="yes"/>
      <point x="450" y="223" type="line"/>
      <point x="441" y="222"/>
      <point x="431" y="221"/>
      <point x="421" y="221" type="curve" smooth="yes"/>
      <point x="299" y="221" type="line" smooth="yes"/>
      <point x="289" y="221"/>
      <point x="279" y="222"/>
      <point x="270" y="223" type="curve"/>
      <point x="218" y="160" type="line" smooth="yes"/>
      <point x="205" y="144"/>
      <point x="189" y="138"/>
      <point x="175" y="138" type="curve" smooth="yes"/>
      <point x="149" y="138"/>
      <point x="126" y="159"/>
      <point x="126" y="185" type="curve" smooth="yes"/>
      <point x="126" y="195"/>
      <point x="130" y="207"/>
      <point x="139" y="218" type="curve" smooth="yes"/>
      <point x="193" y="285" type="line"/>
      <point x="189" y="298"/>
      <point x="187" y="313"/>
      <point x="187" y="330" type="curve" smooth="yes"/>
      <point x="187" y="476" type="line" smooth="yes"/>
      <point x="187" y="493"/>
      <point x="189" y="508"/>
      <point x="193" y="521" type="curve"/>
      <point x="139" y="588" type="line" smooth="yes"/>
      <point x="130" y="599"/>
      <point x="126" y="611"/>
      <point x="126" y="621" type="curve" smooth="yes"/>
      <point x="126" y="647"/>
      <point x="149" y="668"/>
      <point x="175" y="668" type="curve" smooth="yes"/>
      <point x="189" y="668"/>
      <point x="205" y="662"/>
      <point x="218" y="646" type="curve" smooth="yes"/>
      <point x="270" y="583" type="line"/>
      <point x="279" y="584"/>
      <point x="289" y="585"/>
      <point x="299" y="585" type="curve" smooth="yes"/>
      <point x="421" y="585" type="line" smooth="yes"/>
      <point x="431" y="585"/>
      <point x="441" y="584"/>
      <point x="450" y="583" type="curve"/>
      <point x="502" y="646" type="line" smooth="yes"/>
      <point x="515" y="662"/>
      <point x="531" y="668"/>
      <point x="545" y="668" type="curve" smooth="yes"/>
      <point x="571" y="668"/>
      <point x="594" y="647"/>
      <point x="594" y="621" type="curve" smooth="yes"/>
      <point x="594" y="611"/>
      <point x="590" y="599"/>
      <point x="581" y="588" type="curve" smooth="yes"/>
      <point x="527" y="521" type="line"/>
      <point x="531" y="508"/>
      <point x="533" y="493"/>
    </contour>
    <contour>
      <point x="287" y="496" type="line"/>
      <point x="287" y="310" type="line"/>
      <point x="433" y="310" type="line"/>
      <point x="433" y="496" type="line"/>
    </contour>
  </outline>
</glyph>
<glyph name="brokenbar" format="1">
  <advance width="720"/>
  <unicode hex="00A6"/>
  <outline>
    <contour>
      <point x="410" y="383" type="line"/>
      <point x="310" y="383" type="line"/>
      <point x="310" y="813" type="line"/>
      <point x="410" y="813" type="line"/>
    </contour>
    <contour>
      <point x="410" y="-239" type="line"/>
      <point x="310" y="-239" type="line"/>
      <point x="310" y="191" type="line"/>
      <point x="410" y="191" type="line"/>
    </contour>
  </outline>
</glyph>
<glyph name="copyright" format="1">
  <advance width="720"/>
  <unicode hex="00A9"/>
  <outline>
    <contour>
      <point x="482" y="0" type="curve" smooth="yes"/>
      <point x="306" y="0" type="line" smooth="yes"/>
      <point x="255" y="0"/>
      <point x="216" y="6"/>
      <point x="175" y="41" type="curve" smooth="yes"/>
      <point x="151" y="61"/>
      <point x="118" y="102"/>
      <point x="118" y="135" type="curve" smooth="yes"/>
      <point x="118" y="161"/>
      <point x="140" y="180"/>
      <point x="166" y="180" type="curve" smooth="yes"/>
      <point x="198" y="180"/>
      <point x="208" y="154"/>
      <point x="221" y="130" type="curve" smooth="yes"/>
      <point x="239" y="97"/>
      <point x="270" y="96"/>
      <point x="303" y="96" type="curve" smooth="yes"/>
      <point x="480" y="96" type="line" smooth="yes"/>
      <point x="532" y="96"/>
      <point x="527" y="149"/>
      <point x="527" y="185" type="curve" smooth="yes"/>
      <point x="527" y="572" type="line" smooth="yes"/>
      <point x="527" y="600"/>
      <point x="530" y="623"/>
      <point x="514" y="647" type="curve" smooth="yes"/>
      <point x="494" y="677"/>
      <point x="464" y="682"/>
      <point x="430" y="682" type="curve" smooth="yes"/>
      <point x="303" y="682" type="line" smooth="yes"/>
      <point x="270" y="682"/>
      <point x="239" y="681"/>
      <point x="221" y="648" type="curve" smooth="yes"/>
      <point x="208" y="624"/>
      <point x="198" y="598"/>
      <point x="166" y="598" type="curve" smooth="yes"/>
      <point x="140" y="598"/>
      <point x="118" y="617"/>
      <point x="118" y="643" type="curve" smooth="yes"/>
      <point x="118" y="676"/>
      <point x="151" y="717"/>
      <point x="175" y="737" type="curve" smooth="yes"/>
      <point x="216" y="772"/>
      <point x="255" y="778"/>
      <point x="306" y="778" type="curve" smooth="yes"/>
      <point x="420" y="778" type="line" smooth="yes"/>
      <point x="455" y="778"/>
      <point x="472" y="778"/>
      <point x="507" y="764" type="curve" smooth="yes"/>
      <point x="585" y="733"/>
      <point x="623" y="674"/>
      <point x="623" y="592" type="curve" smooth="yes"/>
      <point x="623" y="172" type="line" smooth="yes"/>
      <point x="623" y="125"/>
      <point x="624" y="94"/>
      <point x="593" y="56" type="curve" smooth="yes"/>
      <point x="567" y="24"/>
      <point x="524" y="0"/>
    </contour>
    <contour>
      <point x="336" y="266" type="curve" smooth="yes"/>
      <point x="391" y="266" type="line" smooth="yes"/>
      <point x="412" y="266"/>
      <point x="439" y="254"/>
      <point x="439" y="218" type="curve" smooth="yes"/>
      <point x="439" y="183"/>
      <point x="413" y="170"/>
      <point x="391" y="170" type="curve" smooth="yes"/>
      <point x="325" y="170" type="line" smooth="yes"/>
      <point x="260" y="170"/>
      <point x="217" y="200"/>
      <point x="190" y="255" type="curve" smooth="yes"/>
      <point x="168" y="300" type="line" smooth="yes"/>
      <point x="156" y="324"/>
      <point x="149" y="357"/>
      <point x="149" y="384" type="curve" smooth="yes"/>
      <point x="149" y="416"/>
      <point x="156" y="446"/>
      <point x="166" y="467" type="curve" smooth="yes"/>
      <point x="192" y="520" type="line" smooth="yes"/>
      <point x="223" y="581"/>
      <point x="263" y="606"/>
      <point x="331" y="606" type="curve" smooth="yes"/>
      <point x="391" y="606" type="line" smooth="yes"/>
      <point x="412" y="606"/>
      <point x="439" y="594"/>
      <point x="439" y="558" type="curve" smooth="yes"/>
      <point x="439" y="523"/>
      <point x="413" y="510"/>
      <point x="391" y="510" type="curve" smooth="yes"/>
      <point x="334" y="510" type="line" smooth="yes"/>
      <point x="299" y="510"/>
      <point x="293" y="507"/>
      <point x="277" y="476" type="curve" smooth="yes"/>
      <point x="263" y="448" type="line" smooth="yes"/>
      <point x="251" y="424"/>
      <point x="245" y="409"/>
      <point x="245" y="384" type="curve" smooth="yes"/>
      <point x="245" y="363"/>
      <point x="252" y="348"/>
      <point x="261" y="329" type="curve" smooth="yes"/>
      <point x="274" y="302" type="line" smooth="yes"/>
      <point x="289" y="271"/>
      <point x="300" y="266"/>
    </contour>
  </outline>
</glyph>
<glyph name="ordfeminine" format="1">
  <advance width="720"/>
  <unicode hex="00AA"/>
  <outline>
    <contour>
      <point x="382" y="682" type="curve" smooth="yes"/>
      <point x="290" y="682" type="line" smooth="yes"/>
      <point x="264" y="682"/>
      <point x="229" y="687"/>
      <point x="229" y="729" type="curve" smooth="yes"/>
      <point x="229" y="769"/>
      <point x="260" y="778"/>
      <point x="290" y="778" type="curve" smooth="yes"/>
      <point x="393" y="778" type="line" smooth="yes"/>
      <point x="434" y="778"/>
      <point x="464" y="774"/>
      <point x="497" y="741" type="curve" smooth="yes"/>
      <point x="529" y="709"/>
      <point x="532" y="686"/>
      <point x="533" y="645" type="curve" smooth="yes"/>
      <point x="541" y="391" type="line" smooth="yes"/>
      <point x="542" y="364"/>
      <point x="528" y="337"/>
      <point x="496" y="337" type="curve" smooth="yes"/>
      <point x="474" y="337"/>
      <point x="457" y="352"/>
      <point x="450" y="380" type="curve"/>
      <point x="397" y="353" type="line" smooth="yes"/>
      <point x="375" y="342"/>
      <point x="362" y="337"/>
      <point x="343" y="337" type="curve" smooth="yes"/>
      <point x="288" y="337" type="line" smooth="yes"/>
      <point x="253" y="337"/>
      <point x="226" y="343"/>
      <point x="197" y="366" type="curve" smooth="yes"/>
      <point x="164" y="394"/>
      <point x="154" y="425"/>
      <point x="154" y="466" type="curve" smooth="yes"/>
      <point x="154" y="497" type="line" smooth="yes"/>
      <point x="154" y="536"/>
      <point x="164" y="563"/>
      <point x="194" y="590" type="curve" smooth="yes"/>
      <point x="223" y="615"/>
      <point x="254" y="621"/>
      <point x="288" y="621" type="curve" smooth="yes"/>
      <point x="438" y="621" type="line"/>
      <point x="438" y="628" type="line" smooth="yes"/>
      <point x="438" y="676"/>
      <point x="428" y="682"/>
    </contour>
    <contour>
      <point x="400" y="525" type="curve" smooth="yes"/>
      <point x="290" y="525" type="line" smooth="yes"/>
      <point x="274" y="525"/>
      <point x="250" y="522"/>
      <point x="250" y="502" type="curve" smooth="yes"/>
      <point x="250" y="453" type="line" smooth="yes"/>
      <point x="250" y="436"/>
      <point x="275" y="433"/>
      <point x="289" y="433" type="curve" smooth="yes"/>
      <point x="367" y="433" type="line"/>
      <point x="443" y="472" type="line"/>
      <point x="443" y="481" type="line" smooth="yes"/>
      <point x="443" y="515"/>
      <point x="433" y="525"/>
    </contour>
  </outline>
</glyph>
<glyph name="guillemotleft" format="1">
  <advance width="720"/>
  <unicode hex="00AB"/>
  <outline>
    <contour>
      <point x="153" y="411" type="line"/>
      <point x="375" y="151" type="line" smooth="yes"/>
      <point x="386" y="138"/>
      <point x="392" y="127"/>
      <point x="392" y="111" type="curve" smooth="yes"/>
      <point x="392" y="87"/>
      <point x="375" y="67"/>
      <point x="346" y="67" type="curve" smooth="yes"/>
      <point x="325" y="67"/>
      <point x="312" y="78"/>
      <point x="300" y="92" type="curve" smooth="yes"/>
      <point x="89" y="336" type="line" smooth="yes"/>
      <point x="74" y="353"/>
      <point x="70" y="363"/>
      <point x="70" y="383" type="curve" smooth="yes"/>
      <point x="70" y="439" type="line" smooth="yes"/>
      <point x="70" y="459"/>
      <point x="74" y="469"/>
      <point x="89" y="486" type="curve" smooth="yes"/>
      <point x="300" y="730" type="line" smooth="yes"/>
      <point x="312" y="744"/>
      <point x="325" y="755"/>
      <point x="346" y="755" type="curve" smooth="yes"/>
      <point x="375" y="755"/>
      <point x="392" y="735"/>
      <point x="392" y="711" type="curve" smooth="yes"/>
      <point x="392" y="695"/>
      <point x="386" y="684"/>
      <point x="375" y="671" type="curve" smooth="yes"/>
    </contour>
    <contour>
      <point x="398" y="411" type="line"/>
      <point x="620" y="151" type="line" smooth="yes"/>
      <point x="631" y="138"/>
      <point x="637" y="127"/>
      <point x="637" y="111" type="curve" smooth="yes"/>
      <point x="637" y="87"/>
      <point x="620" y="67"/>
      <point x="591" y="67" type="curve" smooth="yes"/>
      <point x="570" y="67"/>
      <point x="557" y="78"/>
      <point x="545" y="92" type="curve" smooth="yes"/>
      <point x="334" y="336" type="line" smooth="yes"/>
      <point x="319" y="353"/>
      <point x="315" y="363"/>
      <point x="315" y="383" type="curve" smooth="yes"/>
      <point x="315" y="439" type="line" smooth="yes"/>
      <point x="315" y="459"/>
      <point x="319" y="469"/>
      <point x="334" y="486" type="curve" smooth="yes"/>
      <point x="545" y="730" type="line" smooth="yes"/>
      <point x="557" y="744"/>
      <point x="570" y="755"/>
      <point x="591" y="755" type="curve" smooth="yes"/>
      <point x="620" y="755"/>
      <point x="637" y="735"/>
      <point x="637" y="711" type="curve" smooth="yes"/>
      <point x="637" y="695"/>
      <point x="631" y="684"/>
      <point x="620" y="671" type="curve" smooth="yes"/>
    </contour>
  </outline>
</glyph>
<glyph name="macron" format="1">
  <advance width="720"/>
  <unicode hex="00AF"/>
  <outline>
    <contour>
      <point x="226" y="737" type="curve" smooth="yes"/>
      <point x="495" y="737" type="line" smooth="yes"/>
      <point x="526" y="737"/>
      <point x="540" y="725"/>
      <point x="540" y="689" type="curve" smooth="yes"/>
      <point x="540" y="654"/>
      <point x="526" y="640"/>
      <point x="495" y="640" type="curve" smooth="yes"/>
      <point x="226" y="640" type="line" smooth="yes"/>
      <point x="195" y="640"/>
      <point x="180" y="654"/>
      <point x="180" y="689" type="curve" smooth="yes"/>
      <point x="180" y="725"/>
      <point x="195" y="737"/>
    </contour>
  </outline>
</glyph>
<glyph name="degree" format="1">
  <advance width="720"/>
  <unicode hex="00B0"/>
  <outline>
    <contour>
      <point x="549" y="669" type="curve" smooth="yes"/>
      <point x="549" y="459" type="line" smooth="yes"/>
      <point x="549" y="386"/>
      <point x="511" y="350"/>
      <point x="437" y="350" type="curve" smooth="yes"/>
      <point x="283" y="350" type="line" smooth="yes"/>
      <point x="209" y="350"/>
      <point x="171" y="386"/>
      <point x="171" y="459" type="curve" smooth="yes"/>
      <point x="171" y="669" type="line" smooth="yes"/>
      <point x="171" y="742"/>
      <point x="209" y="778"/>
      <point x="283" y="778" type="curve" smooth="yes"/>
      <point x="437" y="778" type="line" smooth="yes"/>
      <point x="511" y="778"/>
      <point x="549" y="742"/>
    </contour>
    <contour>
      <point x="449" y="439" type="line"/>
      <point x="449" y="689" type="line"/>
      <point x="271" y="689" type="line"/>
      <point x="271" y="439" type="line"/>
    </contour>
  </outline>
</glyph>
<glyph name="plusminus" format="1">
  <advance width="720"/>
  <unicode hex="00B1"/>
  <outline>
    <contour>
      <point x="310" y="529" type="line"/>
      <point x="310" y="658" type="line" smooth="yes"/>
      <point x="310" y="690"/>
      <point x="324" y="708"/>
      <point x="360" y="708" type="curve" smooth="yes"/>
      <point x="396" y="708"/>
      <point x="410" y="690"/>
      <point x="410" y="658" type="curve" smooth="yes"/>
      <point x="410" y="529" type="line"/>
      <point x="557" y="529" type="line" smooth="yes"/>
      <point x="583" y="529"/>
      <point x="607" y="515"/>
      <point x="607" y="479" type="curve" smooth="yes"/>
      <point x="607" y="443"/>
      <point x="583" y="429"/>
      <point x="557" y="429" type="curve" smooth="yes"/>
      <point x="410" y="429" type="line"/>
      <point x="410" y="302" type="line" smooth="yes"/>
      <point x="410" y="270"/>
      <point x="396" y="252"/>
      <point x="360" y="252" type="curve" smooth="yes"/>
      <point x="324" y="252"/>
      <point x="310" y="270"/>
      <point x="310" y="302" type="curve" smooth="yes"/>
      <point x="310" y="429" type="line"/>
      <point x="163" y="429" type="line" smooth="yes"/>
      <point x="137" y="429"/>
      <point x="113" y="443"/>
      <point x="113" y="479" type="curve" smooth="yes"/>
      <point x="113" y="515"/>
      <point x="137" y="529"/>
      <point x="163" y="529" type="curve" smooth="yes"/>
    </contour>
    <contour>
      <point x="166" y="187" type="curve" smooth="yes"/>
      <point x="551" y="187" type="line" smooth="yes"/>
      <point x="594" y="187"/>
      <point x="607" y="163"/>
      <point x="607" y="139" type="curve" smooth="yes"/>
      <point x="607" y="115"/>
      <point x="594" y="90"/>
      <point x="551" y="90" type="curve" smooth="yes"/>
      <point x="166" y="90" type="line" smooth="yes"/>
      <point x="125" y="90"/>
      <point x="113" y="115"/>
      <point x="113" y="139" type="curve" smooth="yes"/>
      <point x="113" y="163"/>
      <point x="125" y="187"/>
    </contour>
  </outline>
</glyph>
<glyph name="acute" format="1">
  <advance width="720"/>
  <unicode hex="00B4"/>
  <outline>
    <contour>
      <point x="286" y="668" type="curve" smooth="yes"/>
      <point x="468" y="773" type="line" smooth="yes"/>
      <point x="473" y="776"/>
      <point x="481" y="778"/>
      <point x="488" y="778" type="curve" smooth="yes"/>
      <point x="517" y="778"/>
      <point x="543" y="743"/>
      <point x="541" y="714" type="curve" smooth="yes"/>
      <point x="540" y="701"/>
      <point x="534" y="689"/>
      <point x="520" y="682" type="curve" smooth="yes"/>
      <point x="329" y="588" type="line" smooth="yes"/>
      <point x="323" y="585"/>
      <point x="317" y="583"/>
      <point x="311" y="583" type="curve" smooth="yes"/>
      <point x="286" y="583"/>
      <point x="267" y="610"/>
      <point x="267" y="634" type="curve" smooth="yes"/>
      <point x="267" y="647"/>
      <point x="272" y="660"/>
    </contour>
  </outline>
</glyph>
<glyph name="mu" format="1">
  <advance width="720"/>
  <unicode hex="00B5"/>
  <outline>
    <contour>
      <point x="576" y="473" type="curve" smooth="yes"/>
      <point x="576" y="96" type="line"/>
      <point x="636" y="96" type="line" smooth="yes"/>
      <point x="696" y="96"/>
      <point x="696" y="0"/>
      <point x="636" y="0" type="curve" smooth="yes"/>
      <point x="573" y="0" type="line" smooth="yes"/>
      <point x="503" y="0"/>
      <point x="481" y="40"/>
      <point x="481" y="81" type="curve" smooth="yes"/>
      <point x="481" y="83" type="line"/>
      <point x="403" y="32" type="line" smooth="yes"/>
      <point x="372" y="12"/>
      <point x="346" y="0"/>
      <point x="320" y="0" type="curve" smooth="yes"/>
      <point x="307" y="0" type="line" smooth="yes"/>
      <point x="258" y="0"/>
      <point x="235" y="18"/>
      <point x="216" y="39" type="curve"/>
      <point x="214" y="39" type="line"/>
      <point x="214" y="-148" type="line" smooth="yes"/>
      <point x="214" y="-188"/>
      <point x="190" y="-204"/>
      <point x="164" y="-204" type="curve" smooth="yes"/>
      <point x="140" y="-204"/>
      <point x="119" y="-189"/>
      <point x="118" y="-151" type="curve" smooth="yes"/>
      <point x="118" y="85" type="line"/>
      <point x="106" y="467" type="line" smooth="yes"/>
      <point x="105" y="502"/>
      <point x="110" y="539"/>
      <point x="154" y="539" type="curve" smooth="yes"/>
      <point x="195" y="539"/>
      <point x="200" y="504"/>
      <point x="201" y="473" type="curve" smooth="yes"/>
      <point x="210" y="206" type="line" smooth="yes"/>
      <point x="213" y="145"/>
      <point x="242" y="96"/>
      <point x="282" y="96" type="curve" smooth="yes"/>
      <point x="309" y="96" type="line" smooth="yes"/>
      <point x="320" y="96"/>
      <point x="330" y="99"/>
      <point x="339" y="105" type="curve" smooth="yes"/>
      <point x="480" y="194" type="line"/>
      <point x="480" y="473" type="line" smooth="yes"/>
      <point x="480" y="506"/>
      <point x="487" y="539"/>
      <point x="528" y="539" type="curve" smooth="yes"/>
      <point x="569" y="539"/>
      <point x="576" y="506"/>
    </contour>
  </outline>
</glyph>
<glyph name="ordmasculine" format="1">
  <advance width="720"/>
  <unicode hex="00BA"/>
  <outline>
    <contour>
      <point x="167" y="487" type="curve" smooth="yes"/>
      <point x="167" y="628" type="line" smooth="yes"/>
      <point x="167" y="681"/>
      <point x="178" y="700"/>
      <point x="218" y="734" type="curve" smooth="yes"/>
      <point x="256" y="765"/>
      <point x="274" y="778"/>
      <point x="330" y="778" type="curve" smooth="yes"/>
      <point x="397" y="778" type="line" smooth="yes"/>
      <point x="453" y="778"/>
      <point x="471" y="765"/>
      <point x="509" y="734" type="curve" smooth="yes"/>
      <point x="549" y="700"/>
      <point x="560" y="681"/>
      <point x="560" y="628" type="curve" smooth="yes"/>
      <point x="560" y="487" type="line" smooth="yes"/>
      <point x="560" y="435"/>
      <point x="547" y="414"/>
      <point x="505" y="378" type="curve" smooth="yes"/>
      <point x="464" y="345"/>
      <point x="447" y="337"/>
      <point x="397" y="337" type="curve" smooth="yes"/>
      <point x="330" y="337" type="line" smooth="yes"/>
      <point x="280" y="337"/>
      <point x="263" y="345"/>
      <point x="222" y="378" type="curve" smooth="yes"/>
      <point x="180" y="414"/>
      <point x="167" y="435"/>
    </contour>
    <contour>
      <point x="262" y="628" type="curve" smooth="yes"/>
      <point x="262" y="487" type="line" smooth="yes"/>
      <point x="262" y="475"/>
      <point x="266" y="467"/>
      <point x="286" y="450" type="curve" smooth="yes"/>
      <point x="301" y="437"/>
      <point x="311" y="432"/>
      <point x="330" y="432" type="curve" smooth="yes"/>
      <point x="397" y="432" type="line" smooth="yes"/>
      <point x="416" y="432"/>
      <point x="426" y="437"/>
      <point x="441" y="450" type="curve" smooth="yes"/>
      <point x="461" y="467"/>
      <point x="465" y="475"/>
      <point x="465" y="487" type="curve" smooth="yes"/>
      <point x="465" y="628" type="line" smooth="yes"/>
      <point x="465" y="640"/>
      <point x="461" y="648"/>
      <point x="441" y="665" type="curve" smooth="yes"/>
      <point x="426" y="678"/>
      <point x="416" y="683"/>
      <point x="397" y="683" type="curve" smooth="yes"/>
      <point x="330" y="683" type="line" smooth="yes"/>
      <point x="311" y="683"/>
      <point x="301" y="678"/>
      <point x="286" y="665" type="curve" smooth="yes"/>
      <point x="266" y="648"/>
      <point x="262" y="640"/>
    </contour>
  </outline>
</glyph>
<glyph name="Aacute" format="1">
  <advance width="720"/>
  <unicode hex="00C1"/>
  <outline>
    <contour>
      <point x="468" y="127" type="line"/>
      <point x="252" y="127" type="line"/>
      <point x="217" y="50" type="line" smooth="yes"/>
      <point x="210" y="26"/>
      <point x="194" y="0"/>
      <point x="163" y="0" type="curve" smooth="yes"/>
      <point x="135" y="0"/>
      <point x="106" y="27"/>
      <point x="115" y="50" type="curve" smooth="yes"/>
      <point x="309" y="563" type="line" smooth="yes"/>
      <point x="319" y="588"/>
      <point x="329" y="608"/>
      <point x="360" y="608" type="curve" smooth="yes"/>
      <point x="390" y="608"/>
      <point x="403" y="586"/>
      <point x="412" y="563" type="curve" smooth="yes"/>
      <point x="605" y="50" type="line" smooth="yes"/>
      <point x="612" y="26"/>
      <point x="585" y="0"/>
      <point x="557" y="0" type="curve" smooth="yes"/>
      <point x="526" y="0"/>
      <point x="510" y="26"/>
      <point x="503" y="50" type="curve" smooth="yes"/>
    </contour>
    <contour>
      <point x="432" y="227" type="line"/>
      <point x="360" y="420" type="line"/>
      <point x="288" y="227" type="line"/>
    </contour>
    <contour>
      <point x="259" y="733" type="curve" smooth="yes"/>
      <point x="446" y="813" type="line" smooth="yes"/>
      <point x="454" y="817"/>
      <point x="462" y="818"/>
      <point x="468" y="818" type="curve" smooth="yes"/>
      <point x="495" y="818"/>
      <point x="518" y="789"/>
      <point x="518" y="761" type="curve" smooth="yes"/>
      <point x="518" y="743"/>
      <point x="514" y="728"/>
      <point x="494" y="719" type="curve" smooth="yes"/>
      <point x="292" y="650" type="line" smooth="yes"/>
      <point x="286" y="648"/>
      <point x="279" y="646"/>
      <point x="273" y="646" type="curve" smooth="yes"/>
      <point x="252" y="646"/>
      <point x="235" y="672"/>
      <point x="235" y="698" type="curve" smooth="yes"/>
      <point x="235" y="713"/>
      <point x="245" y="727"/>
    </contour>
  </outline>
</glyph>
<glyph name="Acircumflex" format="1">
  <advance width="720"/>
  <unicode hex="00C2"/>
  <outline>
    <contour>
      <point x="468" y="127" type="line"/>
      <point x="252" y="127" type="line"/>
      <point x="217" y="50" type="line" smooth="yes"/>
      <point x="210" y="26"/>
      <point x="194" y="0"/>
      <point x="163" y="0" type="curve" smooth="yes"/>
      <point x="135" y="0"/>
      <point x="106" y="27"/>
      <point x="115" y="50" type="curve" smooth="yes"/>
      <point x="309" y="563" type="line" smooth="yes"/>
      <point x="319" y="588"/>
      <point x="329" y="608"/>
      <point x="360" y="608" type="curve" smooth="yes"/>
      <point x="390" y="608"/>
      <point x="403" y="586"/>
      <point x="412" y="563" type="curve" smooth="yes"/>
      <point x="605" y="50" type="line" smooth="yes"/>
      <point x="612" y="26"/>
      <point x="585" y="0"/>
      <point x="557" y="0" type="curve" smooth="yes"/>
      <point x="526" y="0"/>
      <point x="510" y="26"/>
      <point x="503" y="50" type="curve" smooth="yes"/>
    </contour>
    <contour>
      <point x="432" y="227" type="line"/>
      <point x="360" y="420" type="line"/>
      <point x="288" y="227" type="line"/>
    </contour>
    <contour>
      <point x="360" y="723" type="line"/>
      <point x="228" y="658" type="line" smooth="yes"/>
      <point x="218" y="653"/>
      <point x="212" y="652"/>
      <point x="203" y="652" type="curve" smooth="yes"/>
      <point x="179" y="652"/>
      <point x="160" y="673"/>
      <point x="160" y="697" type="curve" smooth="yes"/>
      <point x="160" y="713"/>
      <point x="169" y="727"/>
      <point x="184" y="735" type="curve" smooth="yes"/>
      <point x="312" y="809" type="line" smooth="yes"/>
      <point x="328" y="818"/>
      <point x="345" y="823"/>
      <point x="360" y="823" type="curve" smooth="yes"/>
      <point x="375" y="823"/>
      <point x="392" y="818"/>
      <point x="408" y="809" type="curve" smooth="yes"/>
      <point x="536" y="735" type="line" smooth="yes"/>
      <point x="551" y="727"/>
      <point x="560" y="713"/>
      <point x="560" y="697" type="curve" smooth="yes"/>
      <point x="560" y="673"/>
      <point x="541" y="652"/>
      <point x="517" y="652" type="curve" smooth="yes"/>
      <point x="508" y="652"/>
      <point x="502" y="653"/>
      <point x="492" y="658" type="curve" smooth="yes"/>
    </contour>
  </outline>
</glyph>
<glyph name="Adieresis" format="1">
  <advance width="720"/>
  <unicode hex="00C4"/>
  <outline>
    <contour>
      <point x="468" y="127" type="line"/>
      <point x="252" y="127" type="line"/>
      <point x="217" y="50" type="line" smooth="yes"/>
      <point x="210" y="26"/>
      <point x="194" y="0"/>
      <point x="163" y="0" type="curve" smooth="yes"/>
      <point x="135" y="0"/>
      <point x="106" y="27"/>
      <point x="115" y="50" type="curve" smooth="yes"/>
      <point x="309" y="563" type="line" smooth="yes"/>
      <point x="319" y="588"/>
      <point x="329" y="608"/>
      <point x="360" y="608" type="curve" smooth="yes"/>
      <point x="390" y="608"/>
      <point x="403" y="586"/>
      <point x="412" y="563" type="curve" smooth="yes"/>
      <point x="605" y="50" type="line" smooth="yes"/>
      <point x="612" y="26"/>
      <point x="585" y="0"/>
      <point x="557" y="0" type="curve" smooth="yes"/>
      <point x="526" y="0"/>
      <point x="510" y="26"/>
      <point x="503" y="50" type="curve" smooth="yes"/>
    </contour>
    <contour>
      <point x="432" y="227" type="line"/>
      <point x="360" y="420" type="line"/>
      <point x="288" y="227" type="line"/>
    </contour>
    <contour>
      <point x="213" y="716" type="curve" smooth="yes"/>
      <point x="213" y="654" type="line" smooth="yes"/>
      <point x="213" y="624"/>
      <point x="200" y="593"/>
      <point x="163" y="593" type="curve" smooth="yes"/>
      <point x="126" y="593"/>
      <point x="113" y="624"/>
      <point x="113" y="654" type="curve" smooth="yes"/>
      <point x="113" y="716" type="line" smooth="yes"/>
      <point x="113" y="750"/>
      <point x="127" y="778"/>
      <point x="163" y="778" type="curve" smooth="yes"/>
      <point x="199" y="778"/>
      <point x="213" y="750"/>
    </contour>
    <contour>
      <point x="607" y="716" type="curve" smooth="yes"/>
      <point x="607" y="654" type="line" smooth="yes"/>
      <point x="607" y="624"/>
      <point x="594" y="593"/>
      <point x="557" y="593" type="curve" smooth="yes"/>
      <point x="520" y="593"/>
      <point x="507" y="624"/>
      <point x="507" y="654" type="curve" smooth="yes"/>
      <point x="507" y="716" type="line" smooth="yes"/>
      <point x="507" y="750"/>
      <point x="521" y="778"/>
      <point x="557" y="778" type="curve" smooth="yes"/>
      <point x="593" y="778"/>
      <point x="607" y="750"/>
    </contour>
  </outline>
</glyph>
<glyph name="Aring" format="1">
  <advance width="720"/>
  <unicode hex="00C5"/>
  <outline>
    <contour>
      <point x="113" y="50" type="curve" smooth="yes"/>
      <point x="244" y="507" type="line"/>
      <point x="187" y="521"/>
      <point x="161" y="559"/>
      <point x="161" y="616" type="curve" smooth="yes"/>
      <point x="161" y="666" type="line" smooth="yes"/>
      <point x="161" y="739"/>
      <point x="199" y="778"/>
      <point x="273" y="778" type="curve" smooth="yes"/>
      <point x="446" y="778" type="line" smooth="yes"/>
      <point x="520" y="778"/>
      <point x="558" y="739"/>
      <point x="558" y="666" type="curve" smooth="yes"/>
      <point x="558" y="616" type="line" smooth="yes"/>
      <point x="558" y="559"/>
      <point x="532" y="521"/>
      <point x="475" y="507" type="curve"/>
      <point x="605" y="50" type="line" smooth="yes"/>
      <point x="612" y="26"/>
      <point x="585" y="0"/>
      <point x="557" y="0" type="curve" smooth="yes"/>
      <point x="526" y="0"/>
      <point x="510" y="26"/>
      <point x="503" y="50" type="curve" smooth="yes"/>
      <point x="466" y="169" type="line"/>
      <point x="252" y="169" type="line"/>
      <point x="215" y="50" type="line" smooth="yes"/>
      <point x="208" y="26"/>
      <point x="192" y="0"/>
      <point x="161" y="0" type="curve" smooth="yes"/>
      <point x="133" y="0"/>
      <point x="106" y="26"/>
    </contour>
    <contour>
      <point x="439" y="269" type="line"/>
      <point x="371" y="507" type="line"/>
      <point x="347" y="507" type="line"/>
      <point x="279" y="269" type="line"/>
    </contour>
    <contour>
      <point x="458" y="607" type="line"/>
      <point x="458" y="678" type="line"/>
      <point x="261" y="678" type="line"/>
      <point x="261" y="607" type="line"/>
    </contour>
  </outline>
</glyph>
<glyph name="Eacute" format="1">
  <advance width="720"/>
  <unicode hex="00C9"/>
  <outline>
    <contour>
      <point x="213" y="100" type="line"/>
      <point x="557" y="100" type="line" smooth="yes"/>
      <point x="583" y="100"/>
      <point x="607" y="86"/>
      <point x="607" y="50" type="curve" smooth="yes"/>
      <point x="607" y="14"/>
      <point x="583" y="0"/>
      <point x="557" y="0" type="curve" smooth="yes"/>
      <point x="113" y="0" type="line"/>
      <point x="113" y="608" type="line"/>
      <point x="557" y="608" type="line" smooth="yes"/>
      <point x="583" y="608"/>
      <point x="607" y="594"/>
      <point x="607" y="558" type="curve" smooth="yes"/>
      <point x="607" y="522"/>
      <point x="583" y="508"/>
      <point x="557" y="508" type="curve" smooth="yes"/>
      <point x="213" y="508" type="line"/>
      <point x="213" y="367" type="line"/>
      <point x="360" y="367" type="line" smooth="yes"/>
      <point x="386" y="367"/>
      <point x="410" y="353"/>
      <point x="410" y="317" type="curve" smooth="yes"/>
      <point x="410" y="281"/>
      <point x="386" y="267"/>
      <point x="360" y="267" type="curve" smooth="yes"/>
      <point x="213" y="267" type="line"/>
    </contour>
    <contour>
      <point x="259" y="733" type="curve" smooth="yes"/>
      <point x="446" y="813" type="line" smooth="yes"/>
      <point x="454" y="817"/>
      <point x="462" y="818"/>
      <point x="468" y="818" type="curve" smooth="yes"/>
      <point x="495" y="818"/>
      <point x="518" y="789"/>
      <point x="518" y="761" type="curve" smooth="yes"/>
      <point x="518" y="743"/>
      <point x="514" y="728"/>
      <point x="494" y="719" type="curve" smooth="yes"/>
      <point x="292" y="650" type="line" smooth="yes"/>
      <point x="286" y="648"/>
      <point x="279" y="646"/>
      <point x="273" y="646" type="curve" smooth="yes"/>
      <point x="252" y="646"/>
      <point x="235" y="672"/>
      <point x="235" y="698" type="curve" smooth="yes"/>
      <point x="235" y="713"/>
      <point x="245" y="727"/>
    </contour>
  </outline>
</glyph>
<glyph name="Iacute" format="1">
  <advance width="720"/>
  <unicode hex="00CD"/>
  <outline>
    <contour>
      <point x="410" y="508" type="line"/>
      <point x="410" y="100" type="line"/>
      <point x="557" y="100" type="line" smooth="yes"/>
      <point x="583" y="100"/>
      <point x="607" y="86"/>
      <point x="607" y="50" type="curve" smooth="yes"/>
      <point x="607" y="14"/>
      <point x="583" y="0"/>
      <point x="557" y="0" type="curve" smooth="yes"/>
      <point x="163" y="0" type="line" smooth="yes"/>
      <point x="137" y="0"/>
      <point x="113" y="14"/>
      <point x="113" y="50" type="curve" smooth="yes"/>
      <point x="113" y="86"/>
      <point x="137" y="100"/>
      <point x="163" y="100" type="curve" smooth="yes"/>
      <point x="310" y="100" type="line"/>
      <point x="310" y="508" type="line"/>
      <point x="163" y="508" type="line" smooth="yes"/>
      <point x="137" y="508"/>
      <point x="113" y="522"/>
      <point x="113" y="558" type="curve" smooth="yes"/>
      <point x="113" y="594"/>
      <point x="137" y="608"/>
      <point x="163" y="608" type="curve" smooth="yes"/>
      <point x="557" y="608" type="line" smooth="yes"/>
      <point x="583" y="608"/>
      <point x="607" y="594"/>
      <point x="607" y="558" type="curve" smooth="yes"/>
      <point x="607" y="522"/>
      <point x="583" y="508"/>
      <point x="557" y="508" type="curve" smooth="yes"/>
    </contour>
    <contour>
      <point x="259" y="733" type="curve" smooth="yes"/>
      <point x="446" y="813" type="line" smooth="yes"/>
      <point x="454" y="817"/>
      <point x="462" y="818"/>
      <point x="468" y="818" type="curve" smooth="yes"/>
      <point x="495" y="818"/>
      <point x="518" y="789"/>
      <point x="518" y="761" type="curve" smooth="yes"/>
      <point x="518" y="743"/>
      <point x="514" y="728"/>
      <point x="494" y="719" type="curve" smooth="yes"/>
      <point x="292" y="650" type="line" smooth="yes"/>
      <point x="286" y="648"/>
      <point x="279" y="646"/>
      <point x="273" y="646" type="curve" smooth="yes"/>
      <point x="252" y="646"/>
      <point x="235" y="672"/>
      <point x="235" y="698" type="curve" smooth="yes"/>
      <point x="235" y="713"/>
      <point x="245" y="727"/>
    </contour>
  </outline>
</glyph>
<glyph name="Oacute" format="1">
  <advance width="720"/>
  <unicode hex="00D3"/>
  <outline>
    <contour>
      <point x="233" y="82" type="curve" smooth="yes"/>
      <point x="145" y="213" type="line" smooth="yes"/>
      <point x="125" y="243"/>
      <point x="114" y="265"/>
      <point x="113" y="304" type="curve" smooth="yes"/>
      <point x="114" y="343"/>
      <point x="125" y="365"/>
      <point x="145" y="395" type="curve" smooth="yes"/>
      <point x="233" y="526" type="line" smooth="yes"/>
      <point x="265" y="574"/>
      <point x="297" y="608"/>
      <point x="360" y="608" type="curve" smooth="yes"/>
      <point x="423" y="608"/>
      <point x="455" y="574"/>
      <point x="487" y="526" type="curve" smooth="yes"/>
      <point x="575" y="395" type="line" smooth="yes"/>
      <point x="595" y="365"/>
      <point x="606" y="343"/>
      <point x="607" y="304" type="curve" smooth="yes"/>
      <point x="606" y="265"/>
      <point x="595" y="243"/>
      <point x="575" y="213" type="curve" smooth="yes"/>
      <point x="487" y="82" type="line" smooth="yes"/>
      <point x="455" y="34"/>
      <point x="423" y="0"/>
      <point x="360" y="0" type="curve" smooth="yes"/>
      <point x="297" y="0"/>
      <point x="265" y="34"/>
    </contour>
    <contour>
      <point x="225" y="274" type="curve" smooth="yes"/>
      <point x="320" y="131" type="line" smooth="yes"/>
      <point x="331" y="115"/>
      <point x="338" y="100"/>
      <point x="360" y="100" type="curve" smooth="yes"/>
      <point x="382" y="100"/>
      <point x="389" y="115"/>
      <point x="400" y="131" type="curve" smooth="yes"/>
      <point x="495" y="274" type="line" smooth="yes"/>
      <point x="501" y="283"/>
      <point x="507" y="292"/>
      <point x="507" y="304" type="curve" smooth="yes"/>
      <point x="507" y="316"/>
      <point x="501" y="325"/>
      <point x="495" y="334" type="curve" smooth="yes"/>
      <point x="400" y="477" type="line" smooth="yes"/>
      <point x="389" y="493"/>
      <point x="382" y="508"/>
      <point x="360" y="508" type="curve" smooth="yes"/>
      <point x="338" y="508"/>
      <point x="331" y="493"/>
      <point x="320" y="477" type="curve" smooth="yes"/>
      <point x="225" y="334" type="line" smooth="yes"/>
      <point x="219" y="325"/>
      <point x="213" y="316"/>
      <point x="213" y="304" type="curve" smooth="yes"/>
      <point x="213" y="292"/>
      <point x="219" y="283"/>
    </contour>
    <contour>
      <point x="259" y="733" type="curve" smooth="yes"/>
      <point x="446" y="813" type="line" smooth="yes"/>
      <point x="454" y="817"/>
      <point x="462" y="818"/>
      <point x="468" y="818" type="curve" smooth="yes"/>
      <point x="495" y="818"/>
      <point x="518" y="789"/>
      <point x="518" y="761" type="curve" smooth="yes"/>
      <point x="518" y="743"/>
      <point x="514" y="728"/>
      <point x="494" y="719" type="curve" smooth="yes"/>
      <point x="292" y="650" type="line" smooth="yes"/>
      <point x="286" y="648"/>
      <point x="279" y="646"/>
      <point x="273" y="646" type="curve" smooth="yes"/>
      <point x="252" y="646"/>
      <point x="235" y="672"/>
      <point x="235" y="698" type="curve" smooth="yes"/>
      <point x="235" y="713"/>
      <point x="245" y="727"/>
    </contour>
  </outline>
</glyph>
<glyph name="Ocircumflex" format="1">
  <advance width="720"/>
  <unicode hex="00D4"/>
  <outline>
    <contour>
      <point x="233" y="82" type="curve" smooth="yes"/>
      <point x="145" y="213" type="line" smooth="yes"/>
      <point x="125" y="243"/>
      <point x="114" y="265"/>
      <point x="113" y="304" type="curve" smooth="yes"/>
      <point x="114" y="343"/>
      <point x="125" y="365"/>
      <point x="145" y="395" type="curve" smooth="yes"/>
      <point x="233" y="526" type="line" smooth="yes"/>
      <point x="265" y="574"/>
      <point x="297" y="608"/>
      <point x="360" y="608" type="curve" smooth="yes"/>
      <point x="423" y="608"/>
      <point x="455" y="574"/>
      <point x="487" y="526" type="curve" smooth="yes"/>
      <point x="575" y="395" type="line" smooth="yes"/>
      <point x="595" y="365"/>
      <point x="606" y="343"/>
      <point x="607" y="304" type="curve" smooth="yes"/>
      <point x="606" y="265"/>
      <point x="595" y="243"/>
      <point x="575" y="213" type="curve" smooth="yes"/>
      <point x="487" y="82" type="line" smooth="yes"/>
      <point x="455" y="34"/>
      <point x="423" y="0"/>
      <point x="360" y="0" type="curve" smooth="yes"/>
      <point x="297" y="0"/>
      <point x="265" y="34"/>
    </contour>
    <contour>
      <point x="225" y="274" type="curve" smooth="yes"/>
      <point x="320" y="131" type="line" smooth="yes"/>
      <point x="331" y="115"/>
      <point x="338" y="100"/>
      <point x="360" y="100" type="curve" smooth="yes"/>
      <point x="382" y="100"/>
      <point x="389" y="115"/>
      <point x="400" y="131" type="curve" smooth="yes"/>
      <point x="495" y="274" type="line" smooth="yes"/>
      <point x="501" y="283"/>
      <point x="507" y="292"/>
      <point x="507" y="304" type="curve" smooth="yes"/>
      <point x="507" y="316"/>
      <point x="501" y="325"/>
      <point x="495" y="334" type="curve" smooth="yes"/>
      <point x="400" y="477" type="line" smooth="yes"/>
      <point x="389" y="493"/>
      <point x="382" y="508"/>
      <point x="360" y="508" type="curve" smooth="yes"/>
      <point x="338" y="508"/>
      <point x="331" y="493"/>
      <point x="320" y="477" type="curve" smooth="yes"/>
      <point x="225" y="334" type="line" smooth="yes"/>
      <point x="219" y="325"/>
      <point x="213" y="316"/>
      <point x="213" y="304" type="curve" smooth="yes"/>
      <point x="213" y="292"/>
      <point x="219" y="283"/>
    </contour>
    <contour>
      <point x="360" y="723" type="line"/>
      <point x="228" y="658" type="line" smooth="yes"/>
      <point x="218" y="653"/>
      <point x="212" y="652"/>
      <point x="203" y="652" type="curve" smooth="yes"/>
      <point x="179" y="652"/>
      <point x="160" y="673"/>
      <point x="160" y="697" type="curve" smooth="yes"/>
      <point x="160" y="713"/>
      <point x="169" y="727"/>
      <point x="184" y="735" type="curve" smooth="yes"/>
      <point x="312" y="809" type="line" smooth="yes"/>
      <point x="328" y="818"/>
      <point x="345" y="823"/>
      <point x="360" y="823" type="curve" smooth="yes"/>
      <point x="375" y="823"/>
      <point x="392" y="818"/>
      <point x="408" y="809" type="curve" smooth="yes"/>
      <point x="536" y="735" type="line" smooth="yes"/>
      <point x="551" y="727"/>
      <point x="560" y="713"/>
      <point x="560" y="697" type="curve" smooth="yes"/>
      <point x="560" y="673"/>
      <point x="541" y="652"/>
      <point x="517" y="652" type="curve" smooth="yes"/>
      <point x="508" y="652"/>
      <point x="502" y="653"/>
      <point x="492" y="658" type="curve" smooth="yes"/>
    </contour>
  </outline>
</glyph>
<glyph name="Odieresis" format="1">
  <advance width="720"/>
  <unicode hex="00D6"/>
  <outline>
    <contour>
      <point x="213" y="716" type="curve" smooth="yes"/>
      <point x="213" y="654" type="line" smooth="yes"/>
      <point x="213" y="624"/>
      <point x="200" y="593"/>
      <point x="163" y="593" type="curve" smooth="yes"/>
      <point x="126" y="593"/>
      <point x="113" y="624"/>
      <point x="113" y="654" type="curve" smooth="yes"/>
      <point x="113" y="716" type="line" smooth="yes"/>
      <point x="113" y="750"/>
      <point x="127" y="778"/>
      <point x="163" y="778" type="curve" smooth="yes"/>
      <point x="199" y="778"/>
      <point x="213" y="750"/>
    </contour>
    <contour>
      <point x="607" y="716" type="curve" smooth="yes"/>
      <point x="607" y="654" type="line" smooth="yes"/>
      <point x="607" y="624"/>
      <point x="594" y="593"/>
      <point x="557" y="593" type="curve" smooth="yes"/>
      <point x="520" y="593"/>
      <point x="507" y="624"/>
      <point x="507" y="654" type="curve" smooth="yes"/>
      <point x="507" y="716" type="line" smooth="yes"/>
      <point x="507" y="750"/>
      <point x="521" y="778"/>
      <point x="557" y="778" type="curve" smooth="yes"/>
      <point x="593" y="778"/>
      <point x="607" y="750"/>
    </contour>
    <contour>
      <point x="233" y="82" type="curve" smooth="yes"/>
      <point x="145" y="213" type="line" smooth="yes"/>
      <point x="125" y="243"/>
      <point x="114" y="265"/>
      <point x="113" y="304" type="curve" smooth="yes"/>
      <point x="114" y="343"/>
      <point x="125" y="365"/>
      <point x="145" y="395" type="curve" smooth="yes"/>
      <point x="233" y="526" type="line" smooth="yes"/>
      <point x="265" y="574"/>
      <point x="297" y="608"/>
      <point x="360" y="608" type="curve" smooth="yes"/>
      <point x="423" y="608"/>
      <point x="455" y="574"/>
      <point x="487" y="526" type="curve" smooth="yes"/>
      <point x="575" y="395" type="line" smooth="yes"/>
      <point x="595" y="365"/>
      <point x="606" y="343"/>
      <point x="607" y="304" type="curve" smooth="yes"/>
      <point x="606" y="265"/>
      <point x="595" y="243"/>
      <point x="575" y="213" type="curve" smooth="yes"/>
      <point x="487" y="82" type="line" smooth="yes"/>
      <point x="455" y="34"/>
      <point x="423" y="0"/>
      <point x="360" y="0" type="curve" smooth="yes"/>
      <point x="297" y="0"/>
      <point x="265" y="34"/>
    </contour>
    <contour>
      <point x="225" y="274" type="curve" smooth="yes"/>
      <point x="320" y="131" type="line" smooth="yes"/>
      <point x="331" y="115"/>
      <point x="338" y="100"/>
      <point x="360" y="100" type="curve" smooth="yes"/>
      <point x="382" y="100"/>
      <point x="389" y="115"/>
      <point x="400" y="131" type="curve" smooth="yes"/>
      <point x="495" y="274" type="line" smooth="yes"/>
      <point x="501" y="283"/>
      <point x="507" y="292"/>
      <point x="507" y="304" type="curve" smooth="yes"/>
      <point x="507" y="316"/>
      <point x="501" y="325"/>
      <point x="495" y="334" type="curve" smooth="yes"/>
      <point x="400" y="477" type="line" smooth="yes"/>
      <point x="389" y="493"/>
      <point x="382" y="508"/>
      <point x="360" y="508" type="curve" smooth="yes"/>
      <point x="338" y="508"/>
      <point x="331" y="493"/>
      <point x="320" y="477" type="curve" smooth="yes"/>
      <point x="225" y="334" type="line" smooth="yes"/>
      <point x="219" y="325"/>
      <point x="213" y="316"/>
      <point x="213" y="304" type="curve" smooth="yes"/>
      <point x="213" y="292"/>
      <point x="219" y="283"/>
    </contour>
  </outline>
</glyph>
<glyph name="multiply" format="1">
  <advance width="720"/>
  <unicode hex="00D7"/>
  <outline>
    <contour>
      <point x="360" y="456" type="line"/>
      <point x="485" y="581" type="line" smooth="yes"/>
      <point x="498" y="594"/>
      <point x="513" y="599"/>
      <point x="526" y="599" type="curve" smooth="yes"/>
      <point x="552" y="599"/>
      <point x="573" y="579"/>
      <point x="573" y="554" type="curve" smooth="yes"/>
      <point x="573" y="541"/>
      <point x="568" y="526"/>
      <point x="554" y="512" type="curve" smooth="yes"/>
      <point x="429" y="388" type="line"/>
      <point x="555" y="263" type="line" smooth="yes"/>
      <point x="568" y="250"/>
      <point x="573" y="236"/>
      <point x="573" y="223" type="curve" smooth="yes"/>
      <point x="573" y="197"/>
      <point x="550" y="176"/>
      <point x="525" y="176" type="curve" smooth="yes"/>
      <point x="512" y="176"/>
      <point x="499" y="181"/>
      <point x="486" y="194" type="curve" smooth="yes"/>
      <point x="360" y="319" type="line"/>
      <point x="234" y="194" type="line" smooth="yes"/>
      <point x="221" y="181"/>
      <point x="208" y="176"/>
      <point x="195" y="176" type="curve" smooth="yes"/>
      <point x="170" y="176"/>
      <point x="147" y="197"/>
      <point x="147" y="223" type="curve" smooth="yes"/>
      <point x="147" y="236"/>
      <point x="152" y="250"/>
      <point x="165" y="263" type="curve" smooth="yes"/>
      <point x="291" y="388" type="line"/>
      <point x="166" y="512" type="line" smooth="yes"/>
      <point x="152" y="526"/>
      <point x="147" y="541"/>
      <point x="147" y="554" type="curve" smooth="yes"/>
      <point x="147" y="579"/>
      <point x="168" y="599"/>
      <point x="194" y="599" type="curve" smooth="yes"/>
      <point x="207" y="599"/>
      <point x="222" y="594"/>
      <point x="235" y="581" type="curve" smooth="yes"/>
    </contour>
  </outline>
</glyph>
<glyph name="Uacute" format="1">
  <advance width="720"/>
  <unicode hex="00DA"/>
  <outline>
    <contour>
      <point x="507" y="175" type="curve" smooth="yes"/>
      <point x="507" y="558" type="line" smooth="yes"/>
      <point x="507" y="590"/>
      <point x="521" y="608"/>
      <point x="557" y="608" type="curve" smooth="yes"/>
      <point x="593" y="608"/>
      <point x="607" y="590"/>
      <point x="607" y="558" type="curve" smooth="yes"/>
      <point x="607" y="167" type="line" smooth="yes"/>
      <point x="607" y="119"/>
      <point x="601" y="84"/>
      <point x="566" y="47" type="curve" smooth="yes"/>
      <point x="533" y="12"/>
      <point x="496" y="0"/>
      <point x="450" y="0" type="curve" smooth="yes"/>
      <point x="270" y="0" type="line" smooth="yes"/>
      <point x="224" y="0"/>
      <point x="187" y="12"/>
      <point x="154" y="47" type="curve" smooth="yes"/>
      <point x="119" y="84"/>
      <point x="113" y="119"/>
      <point x="113" y="167" type="curve" smooth="yes"/>
      <point x="113" y="558" type="line" smooth="yes"/>
      <point x="113" y="590"/>
      <point x="127" y="608"/>
      <point x="163" y="608" type="curve" smooth="yes"/>
      <point x="199" y="608"/>
      <point x="213" y="590"/>
      <point x="213" y="558" type="curve" smooth="yes"/>
      <point x="213" y="175" type="line" smooth="yes"/>
      <point x="213" y="151"/>
      <point x="209" y="130"/>
      <point x="228" y="113" type="curve" smooth="yes"/>
      <point x="245" y="97"/>
      <point x="269" y="100"/>
      <point x="290" y="100" type="curve" smooth="yes"/>
      <point x="430" y="100" type="line" smooth="yes"/>
      <point x="451" y="100"/>
      <point x="475" y="97"/>
      <point x="492" y="113" type="curve" smooth="yes"/>
      <point x="511" y="130"/>
      <point x="507" y="151"/>
    </contour>
    <contour>
      <point x="259" y="733" type="curve" smooth="yes"/>
      <point x="446" y="813" type="line" smooth="yes"/>
      <point x="454" y="817"/>
      <point x="462" y="818"/>
      <point x="468" y="818" type="curve" smooth="yes"/>
      <point x="495" y="818"/>
      <point x="518" y="789"/>
      <point x="518" y="761" type="curve" smooth="yes"/>
      <point x="518" y="743"/>
      <point x="514" y="728"/>
      <point x="494" y="719" type="curve" smooth="yes"/>
      <point x="292" y="650" type="line" smooth="yes"/>
      <point x="286" y="648"/>
      <point x="279" y="646"/>
      <point x="273" y="646" type="curve" smooth="yes"/>
      <point x="252" y="646"/>
      <point x="235" y="672"/>
      <point x="235" y="698" type="curve" smooth="yes"/>
      <point x="235" y="713"/>
      <point x="245" y="727"/>
    </contour>
  </outline>
</glyph>
<glyph name="Thorn" format="1">
  <advance width="720"/>
  <unicode hex="00DE"/>
  <outline>
    <contour>
      <point x="213" y="728" type="curve" smooth="yes"/>
      <point x="213" y="604" type="line"/>
      <point x="445" y="604" type="line" smooth="yes"/>
      <point x="491" y="604"/>
      <point x="524" y="597"/>
      <point x="560" y="563" type="curve" smooth="yes"/>
      <point x="603" y="523"/>
      <point x="607" y="486"/>
      <point x="607" y="432" type="curve" smooth="yes"/>
      <point x="607" y="360" type="line" smooth="yes"/>
      <point x="607" y="309"/>
      <point x="603" y="273"/>
      <point x="566" y="232" type="curve" smooth="yes"/>
      <point x="527" y="188"/>
      <point x="486" y="184"/>
      <point x="432" y="184" type="curve" smooth="yes"/>
      <point x="213" y="184" type="line"/>
      <point x="213" y="50" type="line" smooth="yes"/>
      <point x="213" y="18"/>
      <point x="199" y="0"/>
      <point x="163" y="0" type="curve" smooth="yes"/>
      <point x="127" y="0"/>
      <point x="113" y="18"/>
      <point x="113" y="50" type="curve" smooth="yes"/>
      <point x="113" y="728" type="line" smooth="yes"/>
      <point x="113" y="760"/>
      <point x="127" y="778"/>
      <point x="163" y="778" type="curve" smooth="yes"/>
      <point x="199" y="778"/>
      <point x="213" y="760"/>
    </contour>
    <contour>
      <point x="213" y="504" type="line"/>
      <point x="213" y="284" type="line"/>
      <point x="435" y="284" type="line" smooth="yes"/>
      <point x="494" y="284"/>
      <point x="507" y="299"/>
      <point x="507" y="356" type="curve" smooth="yes"/>
      <point x="507" y="432" type="line" smooth="yes"/>
      <point x="507" y="489"/>
      <point x="494" y="504"/>
      <point x="435" y="504" type="curve" smooth="yes"/>
    </contour>
  </outline>
</glyph>
<glyph name="germandbls" format="1">
  <advance width="720"/>
  <unicode hex="00DF"/>
  <outline>
    <contour>
      <point x="356" y="737" type="curve" smooth="yes"/>
      <point x="428" y="737" type="line" smooth="yes"/>
      <point x="513" y="737"/>
      <point x="562" y="674"/>
      <point x="562" y="623" type="curve" smooth="yes"/>
      <point x="562" y="547" type="line" smooth="yes"/>
      <point x="562" y="479"/>
      <point x="547" y="453"/>
      <point x="479" y="453" type="curve" smooth="yes"/>
      <point x="461" y="453" type="line" smooth="yes"/>
      <point x="443" y="453"/>
      <point x="439" y="446"/>
      <point x="439" y="436" type="curve" smooth="yes"/>
      <point x="439" y="426"/>
      <point x="467" y="397"/>
      <point x="478" y="385" type="curve" smooth="yes"/>
      <point x="591" y="273" type="line" smooth="yes"/>
      <point x="630" y="230"/>
      <point x="666" y="196"/>
      <point x="666" y="143" type="curve" smooth="yes"/>
      <point x="666" y="63"/>
      <point x="622" y="0"/>
      <point x="505" y="0" type="curve" smooth="yes"/>
      <point x="472" y="0" type="line" smooth="yes"/>
      <point x="438" y="0"/>
      <point x="400" y="3"/>
      <point x="361" y="30" type="curve" smooth="yes"/>
      <point x="342" y="43"/>
      <point x="317" y="62"/>
      <point x="317" y="86" type="curve" smooth="yes"/>
      <point x="317" y="113"/>
      <point x="340" y="134"/>
      <point x="367" y="134" type="curve" smooth="yes"/>
      <point x="382" y="134"/>
      <point x="393" y="129"/>
      <point x="404" y="117" type="curve" smooth="yes"/>
      <point x="421" y="98"/>
      <point x="442" y="96"/>
      <point x="473" y="96" type="curve" smooth="yes"/>
      <point x="504" y="96" type="line" smooth="yes"/>
      <point x="547" y="96"/>
      <point x="565" y="113"/>
      <point x="565" y="139" type="curve" smooth="yes"/>
      <point x="565" y="160"/>
      <point x="556" y="169"/>
      <point x="519" y="209" type="curve" smooth="yes"/>
      <point x="377" y="353" type="line" smooth="yes"/>
      <point x="351" y="382"/>
      <point x="340" y="411"/>
      <point x="340" y="441" type="curve" smooth="yes"/>
      <point x="340" y="503"/>
      <point x="381" y="539"/>
      <point x="442" y="539" type="curve" smooth="yes"/>
      <point x="466" y="539" type="line"/>
      <point x="466" y="578" type="line" smooth="yes"/>
      <point x="466" y="626"/>
      <point x="451" y="641"/>
      <point x="410" y="641" type="curve" smooth="yes"/>
      <point x="350" y="641" type="line" smooth="yes"/>
      <point x="285" y="641"/>
      <point x="258" y="628"/>
      <point x="258" y="558" type="curve" smooth="yes"/>
      <point x="258" y="66" type="line" smooth="yes"/>
      <point x="258" y="33"/>
      <point x="251" y="0"/>
      <point x="210" y="0" type="curve" smooth="yes"/>
      <point x="169" y="0"/>
      <point x="162" y="33"/>
      <point x="162" y="66" type="curve" smooth="yes"/>
      <point x="162" y="443" type="line"/>
      <point x="135" y="443" type="line" smooth="yes"/>
      <point x="107" y="443"/>
      <point x="69" y="449"/>
      <point x="69" y="491" type="curve" smooth="yes"/>
      <point x="69" y="532"/>
      <point x="103" y="539"/>
      <point x="135" y="539" type="curve" smooth="yes"/>
      <point x="162" y="539" type="line"/>
      <point x="162" y="552" type="line" smooth="yes"/>
      <point x="162" y="607"/>
      <point x="165" y="647"/>
      <point x="208" y="689" type="curve" smooth="yes"/>
      <point x="254" y="733"/>
      <point x="297" y="737"/>
    </contour>
  </outline>
</glyph>
<glyph name="agrave" format="1">
  <advance width="720"/>
  <unicode hex="00E0"/>
  <outline>
    <contour>
      <point x="405" y="443" type="curve" smooth="yes"/>
      <point x="286" y="443" type="line" smooth="yes"/>
      <point x="258" y="443"/>
      <point x="220" y="449"/>
      <point x="220" y="491" type="curve" smooth="yes"/>
      <point x="220" y="532"/>
      <point x="254" y="539"/>
      <point x="286" y="539" type="curve" smooth="yes"/>
      <point x="418" y="539" type="line" smooth="yes"/>
      <point x="468" y="539"/>
      <point x="504" y="534"/>
      <point x="542" y="496" type="curve" smooth="yes"/>
      <point x="579" y="459"/>
      <point x="584" y="430"/>
      <point x="585" y="382" type="curve" smooth="yes"/>
      <point x="595" y="56" type="line" smooth="yes"/>
      <point x="596" y="28"/>
      <point x="582" y="0"/>
      <point x="550" y="0" type="curve" smooth="yes"/>
      <point x="525" y="0"/>
      <point x="500" y="21"/>
      <point x="501" y="48" type="curve"/>
      <point x="435" y="14" type="line" smooth="yes"/>
      <point x="408" y="0"/>
      <point x="407" y="0"/>
      <point x="376" y="0" type="curve" smooth="yes"/>
      <point x="284" y="0" type="line" smooth="yes"/>
      <point x="241" y="0"/>
      <point x="210" y="5"/>
      <point x="175" y="34" type="curve" smooth="yes"/>
      <point x="135" y="67"/>
      <point x="125" y="102"/>
      <point x="125" y="152" type="curve" smooth="yes"/>
      <point x="125" y="194" type="line" smooth="yes"/>
      <point x="125" y="240"/>
      <point x="136" y="269"/>
      <point x="172" y="301" type="curve" smooth="yes"/>
      <point x="205" y="330"/>
      <point x="242" y="337"/>
      <point x="284" y="337" type="curve" smooth="yes"/>
      <point x="490" y="337" type="line"/>
      <point x="490" y="359" type="line" smooth="yes"/>
      <point x="490" y="431"/>
      <point x="474" y="443"/>
    </contour>
    <contour>
      <point x="427" y="241" type="curve" smooth="yes"/>
      <point x="285" y="241" type="line" smooth="yes"/>
      <point x="259" y="241"/>
      <point x="221" y="234"/>
      <point x="221" y="199" type="curve" smooth="yes"/>
      <point x="221" y="135" type="line" smooth="yes"/>
      <point x="221" y="103"/>
      <point x="260" y="96"/>
      <point x="283" y="96" type="curve" smooth="yes"/>
      <point x="389" y="96" type="line"/>
      <point x="495" y="151" type="line"/>
      <point x="495" y="172" type="line" smooth="yes"/>
      <point x="495" y="225"/>
      <point x="480" y="241"/>
    </contour>
    <contour>
      <point x="252" y="773" type="curve" smooth="yes"/>
      <point x="434" y="668" type="line" smooth="yes"/>
      <point x="448" y="660"/>
      <point x="453" y="647"/>
      <point x="453" y="634" type="curve" smooth="yes"/>
      <point x="453" y="610"/>
      <point x="434" y="583"/>
      <point x="409" y="583" type="curve" smooth="yes"/>
      <point x="403" y="583"/>
      <point x="397" y="585"/>
      <point x="391" y="588" type="curve" smooth="yes"/>
      <point x="200" y="682" type="line" smooth="yes"/>
      <point x="186" y="689"/>
      <point x="180" y="701"/>
      <point x="179" y="714" type="curve" smooth="yes"/>
      <point x="177" y="743"/>
      <point x="203" y="778"/>
      <point x="232" y="778" type="curve" smooth="yes"/>
      <point x="239" y="778"/>
      <point x="247" y="776"/>
    </contour>
  </outline>
</glyph>
<glyph name="acircumflex" format="1">
  <advance width="720"/>
  <unicode hex="00E2"/>
  <outline>
    <contour>
      <point x="405" y="443" type="curve" smooth="yes"/>
      <point x="286" y="443" type="line" smooth="yes"/>
      <point x="258" y="443"/>
      <point x="220" y="449"/>
      <point x="220" y="491" type="curve" smooth="yes"/>
      <point x="220" y="532"/>
      <point x="254" y="539"/>
      <point x="286" y="539" type="curve" smooth="yes"/>
      <point x="418" y="539" type="line" smooth="yes"/>
      <point x="468" y="539"/>
      <point x="504" y="534"/>
      <point x="542" y="496" type="curve" smooth="yes"/>
      <point x="579" y="459"/>
      <point x="584" y="430"/>
      <point x="585" y="382" type="curve" smooth="yes"/>
      <point x="595" y="56" type="line" smooth="yes"/>
      <point x="596" y="28"/>
      <point x="582" y="0"/>
      <point x="550" y="0" type="curve" smooth="yes"/>
      <point x="525" y="0"/>
      <point x="500" y="21"/>
      <point x="501" y="48" type="curve"/>
      <point x="435" y="14" type="line" smooth="yes"/>
      <point x="408" y="0"/>
      <point x="407" y="0"/>
      <point x="376" y="0" type="curve" smooth="yes"/>
      <point x="284" y="0" type="line" smooth="yes"/>
      <point x="241" y="0"/>
      <point x="210" y="5"/>
      <point x="175" y="34" type="curve" smooth="yes"/>
      <point x="135" y="67"/>
      <point x="125" y="102"/>
      <point x="125" y="152" type="curve" smooth="yes"/>
      <point x="125" y="194" type="line" smooth="yes"/>
      <point x="125" y="240"/>
      <point x="136" y="269"/>
      <point x="172" y="301" type="curve" smooth="yes"/>
      <point x="205" y="330"/>
      <point x="242" y="337"/>
      <point x="284" y="337" type="curve" smooth="yes"/>
      <point x="490" y="337" type="line"/>
      <point x="490" y="359" type="line" smooth="yes"/>
      <point x="490" y="431"/>
      <point x="474" y="443"/>
    </contour>
    <contour>
      <point x="427" y="241" type="curve" smooth="yes"/>
      <point x="285" y="241" type="line" smooth="yes"/>
      <point x="259" y="241"/>
      <point x="221" y="234"/>
      <point x="221" y="199" type="curve" smooth="yes"/>
      <point x="221" y="135" type="line" smooth="yes"/>
      <point x="221" y="103"/>
      <point x="260" y="96"/>
      <point x="283" y="96" type="curve" smooth="yes"/>
      <point x="389" y="96" type="line"/>
      <point x="495" y="151" type="line"/>
      <point x="495" y="172" type="line" smooth="yes"/>
      <point x="495" y="225"/>
      <point x="480" y="241"/>
    </contour>
    <contour>
      <point x="191" y="665" type="curve" smooth="yes"/>
      <point x="314" y="762" type="line" smooth="yes"/>
      <point x="328" y="773"/>
      <point x="342" y="778"/>
      <point x="360" y="778" type="curve" smooth="yes"/>
      <point x="378" y="778"/>
      <point x="392" y="773"/>
      <point x="406" y="762" type="curve" smooth="yes"/>
      <point x="529" y="665" type="line" smooth="yes"/>
      <point x="542" y="655"/>
      <point x="548" y="642"/>
      <point x="548" y="630" type="curve" smooth="yes"/>
      <point x="548" y="606"/>
      <point x="527" y="585"/>
      <point x="502" y="585" type="curve" smooth="yes"/>
      <point x="493" y="585"/>
      <point x="483" y="589"/>
      <point x="474" y="595" type="curve" smooth="yes"/>
      <point x="360" y="676" type="line"/>
      <point x="246" y="595" type="line" smooth="yes"/>
      <point x="237" y="589"/>
      <point x="227" y="585"/>
      <point x="218" y="585" type="curve" smooth="yes"/>
      <point x="193" y="585"/>
      <point x="172" y="606"/>
      <point x="172" y="630" type="curve" smooth="yes"/>
      <point x="172" y="642"/>
      <point x="178" y="655"/>
    </contour>
  </outline>
</glyph>
<glyph name="atilde" format="1">
  <advance width="720"/>
  <unicode hex="00E3"/>
  <outline>
    <contour>
      <point x="405" y="443" type="curve" smooth="yes"/>
      <point x="286" y="443" type="line" smooth="yes"/>
      <point x="258" y="443"/>
      <point x="220" y="449"/>
      <point x="220" y="491" type="curve" smooth="yes"/>
      <point x="220" y="532"/>
      <point x="254" y="539"/>
      <point x="286" y="539" type="curve" smooth="yes"/>
      <point x="418" y="539" type="line" smooth="yes"/>
      <point x="468" y="539"/>
      <point x="504" y="534"/>
      <point x="542" y="496" type="curve" smooth="yes"/>
      <point x="579" y="459"/>
      <point x="584" y="430"/>
      <point x="585" y="382" type="curve" smooth="yes"/>
      <point x="595" y="56" type="line" smooth="yes"/>
      <point x="596" y="28"/>
      <point x="582" y="0"/>
      <point x="550" y="0" type="curve" smooth="yes"/>
      <point x="525" y="0"/>
      <point x="500" y="21"/>
      <point x="501" y="48" type="curve"/>
      <point x="435" y="14" type="line" smooth="yes"/>
      <point x="408" y="0"/>
      <point x="407" y="0"/>
      <point x="376" y="0" type="curve" smooth="yes"/>
      <point x="284" y="0" type="line" smooth="yes"/>
      <point x="241" y="0"/>
      <point x="210" y="5"/>
      <point x="175" y="34" type="curve" smooth="yes"/>
      <point x="135" y="67"/>
      <point x="125" y="102"/>
      <point x="125" y="152" type="curve" smooth="yes"/>
      <point x="125" y="194" type="line" smooth="yes"/>
      <point x="125" y="240"/>
      <point x="136" y="269"/>
      <point x="172" y="301" type="curve" smooth="yes"/>
      <point x="205" y="330"/>
      <point x="242" y="337"/>
      <point x="284" y="337" type="curve" smooth="yes"/>
      <point x="490" y="337" type="line"/>
      <point x="490" y="359" type="line" smooth="yes"/>
      <point x="490" y="431"/>
      <point x="474" y="443"/>
    </contour>
    <contour>
      <point x="427" y="241" type="curve" smooth="yes"/>
      <point x="285" y="241" type="line" smooth="yes"/>
      <point x="259" y="241"/>
      <point x="221" y="234"/>
      <point x="221" y="199" type="curve" smooth="yes"/>
      <point x="221" y="135" type="line" smooth="yes"/>
      <point x="221" y="103"/>
      <point x="260" y="96"/>
      <point x="283" y="96" type="curve" smooth="yes"/>
      <point x="389" y="96" type="line"/>
      <point x="495" y="151" type="line"/>
      <point x="495" y="172" type="line" smooth="yes"/>
      <point x="495" y="225"/>
      <point x="480" y="241"/>
    </contour>
    <contour>
      <point x="242" y="769" type="curve" smooth="yes"/>
      <point x="467" y="722" type="line"/>
      <point x="475" y="744" type="line" smooth="yes"/>
      <point x="485" y="772"/>
      <point x="500" y="782"/>
      <point x="519" y="782" type="curve" smooth="yes"/>
      <point x="544" y="782"/>
      <point x="569" y="766"/>
      <point x="569" y="738" type="curve" smooth="yes"/>
      <point x="569" y="732"/>
      <point x="568" y="724"/>
      <point x="566" y="717" type="curve" smooth="yes"/>
      <point x="549" y="661" type="line" smooth="yes"/>
      <point x="540" y="634"/>
      <point x="523" y="622"/>
      <point x="501" y="622" type="curve" smooth="yes"/>
      <point x="494" y="622"/>
      <point x="483" y="624"/>
      <point x="478" y="625" type="curve" smooth="yes"/>
      <point x="253" y="672" type="line"/>
      <point x="245" y="650" type="line" smooth="yes"/>
      <point x="235" y="622"/>
      <point x="220" y="612"/>
      <point x="201" y="612" type="curve" smooth="yes"/>
      <point x="176" y="612"/>
      <point x="151" y="628"/>
      <point x="151" y="656" type="curve" smooth="yes"/>
      <point x="151" y="662"/>
      <point x="152" y="670"/>
      <point x="154" y="677" type="curve" smooth="yes"/>
      <point x="171" y="733" type="line" smooth="yes"/>
      <point x="180" y="760"/>
      <point x="197" y="772"/>
      <point x="219" y="772" type="curve" smooth="yes"/>
      <point x="226" y="772"/>
      <point x="237" y="770"/>
    </contour>
  </outline>
</glyph>
<glyph name="ccedilla" format="1">
  <advance width="720"/>
  <unicode hex="00E7"/>
  <outline>
    <contour>
      <point x="125" y="223" type="curve" smooth="yes"/>
      <point x="125" y="316" type="line" smooth="yes"/>
      <point x="125" y="375"/>
      <point x="136" y="404"/>
      <point x="182" y="442" type="curve" smooth="yes"/>
      <point x="253" y="501" type="line" smooth="yes"/>
      <point x="298" y="538"/>
      <point x="321" y="539"/>
      <point x="377" y="539" type="curve" smooth="yes"/>
      <point x="529" y="539" type="line" smooth="yes"/>
      <point x="561" y="539"/>
      <point x="595" y="532"/>
      <point x="595" y="491" type="curve" smooth="yes"/>
      <point x="595" y="449"/>
      <point x="557" y="443"/>
      <point x="529" y="443" type="curve" smooth="yes"/>
      <point x="360" y="443" type="line" smooth="yes"/>
      <point x="341" y="443"/>
      <point x="322" y="433"/>
      <point x="305" y="419" type="curve" smooth="yes"/>
      <point x="247" y="370" type="line" smooth="yes"/>
      <point x="232" y="358"/>
      <point x="221" y="348"/>
      <point x="221" y="329" type="curve" smooth="yes"/>
      <point x="221" y="210" type="line" smooth="yes"/>
      <point x="221" y="191"/>
      <point x="232" y="181"/>
      <point x="247" y="169" type="curve" smooth="yes"/>
      <point x="305" y="120" type="line" smooth="yes"/>
      <point x="322" y="106"/>
      <point x="341" y="96"/>
      <point x="360" y="96" type="curve" smooth="yes"/>
      <point x="529" y="96" type="line" smooth="yes"/>
      <point x="557" y="96"/>
      <point x="595" y="90"/>
      <point x="595" y="48" type="curve" smooth="yes"/>
      <point x="595" y="7"/>
      <point x="561" y="0"/>
      <point x="529" y="0" type="curve" smooth="yes"/>
      <point x="469" y="0" type="line"/>
      <point x="469" y="-144" type="line" smooth="yes"/>
      <point x="469" y="-185"/>
      <point x="445" y="-204"/>
      <point x="405" y="-204" type="curve" smooth="yes"/>
      <point x="290" y="-204" type="line" smooth="yes"/>
      <point x="258" y="-204"/>
      <point x="240" y="-190"/>
      <point x="240" y="-157" type="curve" smooth="yes"/>
      <point x="240" y="-125"/>
      <point x="258" y="-111"/>
      <point x="290" y="-111" type="curve" smooth="yes"/>
      <point x="376" y="-111" type="line"/>
      <point x="376" y="0" type="line"/>
      <point x="321" y="0"/>
      <point x="297" y="1"/>
      <point x="253" y="38" type="curve" smooth="yes"/>
      <point x="182" y="97" type="line" smooth="yes"/>
      <point x="136" y="135"/>
      <point x="125" y="164"/>
    </contour>
  </outline>
</glyph>
<glyph name="egrave" format="1">
  <advance width="720"/>
  <unicode hex="00E8"/>
  <outline>
    <contour>
      <point x="529" y="0" type="curve" smooth="yes"/>
      <point x="301" y="0" type="line" smooth="yes"/>
      <point x="261" y="0"/>
      <point x="245" y="0"/>
      <point x="215" y="26" type="curve" smooth="yes"/>
      <point x="174" y="62" type="line" smooth="yes"/>
      <point x="136" y="96"/>
      <point x="125" y="118"/>
      <point x="125" y="170" type="curve" smooth="yes"/>
      <point x="125" y="355" type="line" smooth="yes"/>
      <point x="125" y="406"/>
      <point x="132" y="436"/>
      <point x="172" y="470" type="curve" smooth="yes"/>
      <point x="206" y="499" type="line" smooth="yes"/>
      <point x="251" y="538"/>
      <point x="273" y="539"/>
      <point x="312" y="539" type="curve" smooth="yes"/>
      <point x="400" y="539" type="line" smooth="yes"/>
      <point x="447" y="539"/>
      <point x="469" y="534"/>
      <point x="506" y="504" type="curve" smooth="yes"/>
      <point x="545" y="473" type="line" smooth="yes"/>
      <point x="589" y="438"/>
      <point x="595" y="401"/>
      <point x="595" y="348" type="curve" smooth="yes"/>
      <point x="595" y="271" type="line" smooth="yes"/>
      <point x="595" y="216"/>
      <point x="586" y="200"/>
      <point x="529" y="200" type="curve" smooth="yes"/>
      <point x="221" y="200" type="line"/>
      <point x="221" y="168" type="line" smooth="yes"/>
      <point x="221" y="159"/>
      <point x="228" y="147"/>
      <point x="235" y="140" type="curve" smooth="yes"/>
      <point x="259" y="114" type="line" smooth="yes"/>
      <point x="272" y="100"/>
      <point x="291" y="96"/>
      <point x="323" y="96" type="curve" smooth="yes"/>
      <point x="529" y="96" type="line" smooth="yes"/>
      <point x="561" y="96"/>
      <point x="595" y="89"/>
      <point x="595" y="48" type="curve" smooth="yes"/>
      <point x="595" y="6"/>
      <point x="557" y="0"/>
    </contour>
    <contour>
      <point x="221" y="364" type="curve" smooth="yes"/>
      <point x="221" y="296" type="line"/>
      <point x="499" y="296" type="line"/>
      <point x="499" y="354" type="line" smooth="yes"/>
      <point x="499" y="372"/>
      <point x="500" y="387"/>
      <point x="487" y="399" type="curve" smooth="yes"/>
      <point x="450" y="431" type="line" smooth="yes"/>
      <point x="438" y="442"/>
      <point x="419" y="443"/>
      <point x="404" y="443" type="curve" smooth="yes"/>
      <point x="323" y="443" type="line" smooth="yes"/>
      <point x="305" y="443"/>
      <point x="290" y="443"/>
      <point x="274" y="432" type="curve" smooth="yes"/>
      <point x="241" y="408" type="line" smooth="yes"/>
      <point x="229" y="399"/>
      <point x="221" y="392"/>
    </contour>
    <contour>
      <point x="252" y="773" type="curve" smooth="yes"/>
      <point x="434" y="668" type="line" smooth="yes"/>
      <point x="448" y="660"/>
      <point x="453" y="647"/>
      <point x="453" y="634" type="curve" smooth="yes"/>
      <point x="453" y="610"/>
      <point x="434" y="583"/>
      <point x="409" y="583" type="curve" smooth="yes"/>
      <point x="403" y="583"/>
      <point x="397" y="585"/>
      <point x="391" y="588" type="curve" smooth="yes"/>
      <point x="200" y="682" type="line" smooth="yes"/>
      <point x="186" y="689"/>
      <point x="180" y="701"/>
      <point x="179" y="714" type="curve" smooth="yes"/>
      <point x="177" y="743"/>
      <point x="203" y="778"/>
      <point x="232" y="778" type="curve" smooth="yes"/>
      <point x="239" y="778"/>
      <point x="247" y="776"/>
    </contour>
  </outline>
</glyph>
<glyph name="eacute" format="1">
  <advance width="720"/>
  <unicode hex="00E9"/>
  <outline>
    <contour>
      <point x="529" y="0" type="curve" smooth="yes"/>
      <point x="301" y="0" type="line" smooth="yes"/>
      <point x="261" y="0"/>
      <point x="245" y="0"/>
      <point x="215" y="26" type="curve" smooth="yes"/>
      <point x="174" y="62" type="line" smooth="yes"/>
      <point x="136" y="96"/>
      <point x="125" y="118"/>
      <point x="125" y="170" type="curve" smooth="yes"/>
      <point x="125" y="355" type="line" smooth="yes"/>
      <point x="125" y="406"/>
      <point x="132" y="436"/>
      <point x="172" y="470" type="curve" smooth="yes"/>
      <point x="206" y="499" type="line" smooth="yes"/>
      <point x="251" y="538"/>
      <point x="273" y="539"/>
      <point x="312" y="539" type="curve" smooth="yes"/>
      <point x="400" y="539" type="line" smooth="yes"/>
      <point x="447" y="539"/>
      <point x="469" y="534"/>
      <point x="506" y="504" type="curve" smooth="yes"/>
      <point x="545" y="473" type="line" smooth="yes"/>
      <point x="589" y="438"/>
      <point x="595" y="401"/>
      <point x="595" y="348" type="curve" smooth="yes"/>
      <point x="595" y="271" type="line" smooth="yes"/>
      <point x="595" y="216"/>
      <point x="586" y="200"/>
      <point x="529" y="200" type="curve" smooth="yes"/>
      <point x="221" y="200" type="line"/>
      <point x="221" y="168" type="line" smooth="yes"/>
      <point x="221" y="159"/>
      <point x="228" y="147"/>
      <point x="235" y="140" type="curve" smooth="yes"/>
      <point x="259" y="114" type="line" smooth="yes"/>
      <point x="272" y="100"/>
      <point x="291" y="96"/>
      <point x="323" y="96" type="curve" smooth="yes"/>
      <point x="529" y="96" type="line" smooth="yes"/>
      <point x="561" y="96"/>
      <point x="595" y="89"/>
      <point x="595" y="48" type="curve" smooth="yes"/>
      <point x="595" y="6"/>
      <point x="557" y="0"/>
    </contour>
    <contour>
      <point x="221" y="364" type="curve" smooth="yes"/>
      <point x="221" y="296" type="line"/>
      <point x="499" y="296" type="line"/>
      <point x="499" y="354" type="line" smooth="yes"/>
      <point x="499" y="372"/>
      <point x="500" y="387"/>
      <point x="487" y="399" type="curve" smooth="yes"/>
      <point x="450" y="431" type="line" smooth="yes"/>
      <point x="438" y="442"/>
      <point x="419" y="443"/>
      <point x="404" y="443" type="curve" smooth="yes"/>
      <point x="323" y="443" type="line" smooth="yes"/>
      <point x="305" y="443"/>
      <point x="290" y="443"/>
      <point x="274" y="432" type="curve" smooth="yes"/>
      <point x="241" y="408" type="line" smooth="yes"/>
      <point x="229" y="399"/>
      <point x="221" y="392"/>
    </contour>
    <contour>
      <point x="286" y="668" type="curve" smooth="yes"/>
      <point x="468" y="773" type="line" smooth="yes"/>
      <point x="473" y="776"/>
      <point x="481" y="778"/>
      <point x="488" y="778" type="curve" smooth="yes"/>
      <point x="517" y="778"/>
      <point x="543" y="743"/>
      <point x="541" y="714" type="curve" smooth="yes"/>
      <point x="540" y="701"/>
      <point x="534" y="689"/>
      <point x="520" y="682" type="curve" smooth="yes"/>
      <point x="329" y="588" type="line" smooth="yes"/>
      <point x="323" y="585"/>
      <point x="317" y="583"/>
      <point x="311" y="583" type="curve" smooth="yes"/>
      <point x="286" y="583"/>
      <point x="267" y="610"/>
      <point x="267" y="634" type="curve" smooth="yes"/>
      <point x="267" y="647"/>
      <point x="272" y="660"/>
    </contour>
  </outline>
</glyph>
<glyph name="edieresis" format="1">
  <advance width="720"/>
  <unicode hex="00EB"/>
  <outline>
    <contour>
      <point x="529" y="0" type="curve" smooth="yes"/>
      <point x="301" y="0" type="line" smooth="yes"/>
      <point x="261" y="0"/>
      <point x="245" y="0"/>
      <point x="215" y="26" type="curve" smooth="yes"/>
      <point x="174" y="62" type="line" smooth="yes"/>
      <point x="136" y="96"/>
      <point x="125" y="118"/>
      <point x="125" y="170" type="curve" smooth="yes"/>
      <point x="125" y="355" type="line" smooth="yes"/>
      <point x="125" y="406"/>
      <point x="132" y="436"/>
      <point x="172" y="470" type="curve" smooth="yes"/>
      <point x="206" y="499" type="line" smooth="yes"/>
      <point x="251" y="538"/>
      <point x="273" y="539"/>
      <point x="312" y="539" type="curve" smooth="yes"/>
      <point x="400" y="539" type="line" smooth="yes"/>
      <point x="447" y="539"/>
      <point x="469" y="534"/>
      <point x="506" y="504" type="curve" smooth="yes"/>
      <point x="545" y="473" type="line" smooth="yes"/>
      <point x="589" y="438"/>
      <point x="595" y="401"/>
      <point x="595" y="348" type="curve" smooth="yes"/>
      <point x="595" y="271" type="line" smooth="yes"/>
      <point x="595" y="216"/>
      <point x="586" y="200"/>
      <point x="529" y="200" type="curve" smooth="yes"/>
      <point x="221" y="200" type="line"/>
      <point x="221" y="168" type="line" smooth="yes"/>
      <point x="221" y="159"/>
      <point x="228" y="147"/>
      <point x="235" y="140" type="curve" smooth="yes"/>
      <point x="259" y="114" type="line" smooth="yes"/>
      <point x="272" y="100"/>
      <point x="291" y="96"/>
      <point x="323" y="96" type="curve" smooth="yes"/>
      <point x="529" y="96" type="line" smooth="yes"/>
      <point x="561" y="96"/>
      <point x="595" y="89"/>
      <point x="595" y="48" type="curve" smooth="yes"/>
      <point x="595" y="6"/>
      <point x="557" y="0"/>
    </contour>
    <contour>
      <point x="221" y="364" type="curve" smooth="yes"/>
      <point x="221" y="296" type="line"/>
      <point x="499" y="296" type="line"/>
      <point x="499" y="354" type="line" smooth="yes"/>
      <point x="499" y="372"/>
      <point x="500" y="387"/>
      <point x="487" y="399" type="curve" smooth="yes"/>
      <point x="450" y="431" type="line" smooth="yes"/>
      <point x="438" y="442"/>
      <point x="419" y="443"/>
      <point x="404" y="443" type="curve" smooth="yes"/>
      <point x="323" y="443" type="line" smooth="yes"/>
      <point x="305" y="443"/>
      <point x="290" y="443"/>
      <point x="274" y="432" type="curve" smooth="yes"/>
      <point x="241" y="408" type="line" smooth="yes"/>
      <point x="229" y="399"/>
      <point x="221" y="392"/>
    </contour>
    <contour>
      <point x="279" y="716" type="curve" smooth="yes"/>
      <point x="279" y="654" type="line" smooth="yes"/>
      <point x="279" y="624"/>
      <point x="266" y="593"/>
      <point x="229" y="593" type="curve" smooth="yes"/>
      <point x="192" y="593"/>
      <point x="179" y="624"/>
      <point x="179" y="654" type="curve" smooth="yes"/>
      <point x="179" y="716" type="line" smooth="yes"/>
      <point x="179" y="750"/>
      <point x="193" y="778"/>
      <point x="229" y="778" type="curve" smooth="yes"/>
      <point x="265" y="778"/>
      <point x="279" y="750"/>
    </contour>
    <contour>
      <point x="534" y="716" type="curve" smooth="yes"/>
      <point x="534" y="654" type="line" smooth="yes"/>
      <point x="534" y="624"/>
      <point x="521" y="593"/>
      <point x="484" y="593" type="curve" smooth="yes"/>
      <point x="447" y="593"/>
      <point x="434" y="624"/>
      <point x="434" y="654" type="curve" smooth="yes"/>
      <point x="434" y="716" type="line" smooth="yes"/>
      <point x="434" y="750"/>
      <point x="448" y="778"/>
      <point x="484" y="778" type="curve" smooth="yes"/>
      <point x="520" y="778"/>
      <point x="534" y="750"/>
    </contour>
  </outline>
</glyph>
<glyph name="igrave" format="1">
  <advance width="720"/>
  <unicode hex="00EC"/>
  <outline>
    <contour>
      <point x="410" y="472" type="curve" smooth="yes"/>
      <point x="410" y="96" type="line"/>
      <point x="482" y="96" type="line" smooth="yes"/>
      <point x="514" y="96"/>
      <point x="548" y="89"/>
      <point x="548" y="48" type="curve" smooth="yes"/>
      <point x="548" y="6"/>
      <point x="510" y="0"/>
      <point x="482" y="0" type="curve" smooth="yes"/>
      <point x="238" y="0" type="line" smooth="yes"/>
      <point x="210" y="0"/>
      <point x="172" y="6"/>
      <point x="172" y="48" type="curve" smooth="yes"/>
      <point x="172" y="89"/>
      <point x="206" y="96"/>
      <point x="238" y="96" type="curve" smooth="yes"/>
      <point x="314" y="96" type="line"/>
      <point x="314" y="443" type="line"/>
      <point x="238" y="443" type="line" smooth="yes"/>
      <point x="210" y="443"/>
      <point x="172" y="449"/>
      <point x="172" y="491" type="curve" smooth="yes"/>
      <point x="172" y="532"/>
      <point x="206" y="539"/>
      <point x="238" y="539" type="curve" smooth="yes"/>
      <point x="339" y="539" type="line" smooth="yes"/>
      <point x="394" y="539"/>
      <point x="410" y="529"/>
    </contour>
    <contour>
      <point x="240" y="773" type="curve" smooth="yes"/>
      <point x="422" y="668" type="line" smooth="yes"/>
      <point x="436" y="660"/>
      <point x="441" y="647"/>
      <point x="441" y="634" type="curve" smooth="yes"/>
      <point x="441" y="610"/>
      <point x="422" y="583"/>
      <point x="397" y="583" type="curve" smooth="yes"/>
      <point x="391" y="583"/>
      <point x="385" y="585"/>
      <point x="379" y="588" type="curve" smooth="yes"/>
      <point x="188" y="682" type="line" smooth="yes"/>
      <point x="174" y="689"/>
      <point x="168" y="701"/>
      <point x="167" y="714" type="curve" smooth="yes"/>
      <point x="165" y="743"/>
      <point x="191" y="778"/>
      <point x="220" y="778" type="curve" smooth="yes"/>
      <point x="227" y="778"/>
      <point x="235" y="776"/>
    </contour>
  </outline>
</glyph>
<glyph name="idieresis" format="1">
  <advance width="720"/>
  <unicode hex="00EF"/>
  <outline>
    <contour>
      <point x="410" y="472" type="curve" smooth="yes"/>
      <point x="410" y="96" type="line"/>
      <point x="482" y="96" type="line" smooth="yes"/>
      <point x="514" y="96"/>
      <point x="548" y="89"/>
      <point x="548" y="48" type="curve" smooth="yes"/>
      <point x="548" y="6"/>
      <point x="510" y="0"/>
      <point x="482" y="0" type="curve" smooth="yes"/>
      <point x="238" y="0" type="line" smooth="yes"/>
      <point x="210" y="0"/>
      <point x="172" y="6"/>
      <point x="172" y="48" type="curve" smooth="yes"/>
      <point x="172" y="89"/>
      <point x="206" y="96"/>
      <point x="238" y="96" type="curve" smooth="yes"/>
      <point x="314" y="96" type="line"/>
      <point x="314" y="443" type="line"/>
      <point x="238" y="443" type="line" smooth="yes"/>
      <point x="210" y="443"/>
      <point x="172" y="449"/>
      <point x="172" y="491" type="curve" smooth="yes"/>
      <point x="172" y="532"/>
      <point x="206" y="539"/>
      <point x="238" y="539" type="curve" smooth="yes"/>
      <point x="339" y="539" type="line" smooth="yes"/>
      <point x="394" y="539"/>
      <point x="410" y="529"/>
    </contour>
    <contour>
      <point x="262" y="716" type="curve" smooth="yes"/>
      <point x="262" y="654" type="line" smooth="yes"/>
      <point x="262" y="624"/>
      <point x="249" y="593"/>
      <point x="212" y="593" type="curve" smooth="yes"/>
      <point x="175" y="593"/>
      <point x="162" y="624"/>
      <point x="162" y="654" type="curve" smooth="yes"/>
      <point x="162" y="716" type="line" smooth="yes"/>
      <point x="162" y="750"/>
      <point x="176" y="778"/>
      <point x="212" y="778" type="curve" smooth="yes"/>
      <point x="248" y="778"/>
      <point x="262" y="750"/>
    </contour>
    <contour>
      <point x="517" y="716" type="curve" smooth="yes"/>
      <point x="517" y="654" type="line" smooth="yes"/>
      <point x="517" y="624"/>
      <point x="504" y="593"/>
      <point x="467" y="593" type="curve" smooth="yes"/>
      <point x="430" y="593"/>
      <point x="417" y="624"/>
      <point x="417" y="654" type="curve" smooth="yes"/>
      <point x="417" y="716" type="line" smooth="yes"/>
      <point x="417" y="750"/>
      <point x="431" y="778"/>
      <point x="467" y="778" type="curve" smooth="yes"/>
      <point x="503" y="778"/>
      <point x="517" y="750"/>
    </contour>
  </outline>
</glyph>
<glyph name="otilde" format="1">
  <advance width="720"/>
  <unicode hex="00F5"/>
  <outline>
    <contour>
      <point x="125" y="179" type="curve" smooth="yes"/>
      <point x="125" y="360" type="line" smooth="yes"/>
      <point x="125" y="424"/>
      <point x="138" y="446"/>
      <point x="186" y="485" type="curve" smooth="yes"/>
      <point x="233" y="524"/>
      <point x="255" y="539"/>
      <point x="322" y="539" type="curve" smooth="yes"/>
      <point x="398" y="539" type="line" smooth="yes"/>
      <point x="465" y="539"/>
      <point x="487" y="524"/>
      <point x="534" y="485" type="curve" smooth="yes"/>
      <point x="582" y="446"/>
      <point x="595" y="424"/>
      <point x="595" y="360" type="curve" smooth="yes"/>
      <point x="595" y="179" type="line" smooth="yes"/>
      <point x="595" y="116"/>
      <point x="579" y="92"/>
      <point x="529" y="50" type="curve" smooth="yes"/>
      <point x="479" y="8"/>
      <point x="459" y="0"/>
      <point x="398" y="0" type="curve" smooth="yes"/>
      <point x="322" y="0" type="line" smooth="yes"/>
      <point x="261" y="0"/>
      <point x="241" y="8"/>
      <point x="191" y="50" type="curve" smooth="yes"/>
      <point x="141" y="92"/>
      <point x="125" y="116"/>
    </contour>
    <contour>
      <point x="221" y="360" type="curve" smooth="yes"/>
      <point x="221" y="179" type="line" smooth="yes"/>
      <point x="221" y="159"/>
      <point x="228" y="146"/>
      <point x="256" y="122" type="curve" smooth="yes"/>
      <point x="277" y="104"/>
      <point x="292" y="96"/>
      <point x="322" y="96" type="curve" smooth="yes"/>
      <point x="398" y="96" type="line" smooth="yes"/>
      <point x="428" y="96"/>
      <point x="443" y="104"/>
      <point x="464" y="122" type="curve" smooth="yes"/>
      <point x="492" y="146"/>
      <point x="499" y="159"/>
      <point x="499" y="179" type="curve" smooth="yes"/>
      <point x="499" y="360" type="line" smooth="yes"/>
      <point x="499" y="380"/>
      <point x="492" y="393"/>
      <point x="464" y="417" type="curve" smooth="yes"/>
      <point x="443" y="435"/>
      <point x="428" y="443"/>
      <point x="398" y="443" type="curve" smooth="yes"/>
      <point x="322" y="443" type="line" smooth="yes"/>
      <point x="292" y="443"/>
      <point x="277" y="435"/>
      <point x="256" y="417" type="curve" smooth="yes"/>
      <point x="228" y="393"/>
      <point x="221" y="380"/>
    </contour>
    <contour>
      <point x="242" y="769" type="curve" smooth="yes"/>
      <point x="467" y="722" type="line"/>
      <point x="475" y="744" type="line" smooth="yes"/>
      <point x="485" y="772"/>
      <point x="500" y="782"/>
      <point x="519" y="782" type="curve" smooth="yes"/>
      <point x="544" y="782"/>
      <point x="569" y="766"/>
      <point x="569" y="738" type="curve" smooth="yes"/>
      <point x="569" y="732"/>
      <point x="568" y="724"/>
      <point x="566" y="717" type="curve" smooth="yes"/>
      <point x="549" y="661" type="line" smooth="yes"/>
      <point x="540" y="634"/>
      <point x="523" y="622"/>
      <point x="501" y="622" type="curve" smooth="yes"/>
      <point x="494" y="622"/>
      <point x="483" y="624"/>
      <point x="478" y="625" type="curve" smooth="yes"/>
      <point x="253" y="672" type="line"/>
      <point x="245" y="650" type="line" smooth="yes"/>
      <point x="235" y="622"/>
      <point x="220" y="612"/>
      <point x="201" y="612" type="curve" smooth="yes"/>
      <point x="176" y="612"/>
      <point x="151" y="628"/>
      <point x="151" y="656" type="curve" smooth="yes"/>
      <point x="151" y="662"/>
      <point x="152" y="670"/>
      <point x="154" y="677" type="curve" smooth="yes"/>
      <point x="171" y="733" type="line" smooth="yes"/>
      <point x="180" y="760"/>
      <point x="197" y="772"/>
      <point x="219" y="772" type="curve" smooth="yes"/>
      <point x="226" y="772"/>
      <point x="237" y="770"/>
    </contour>
  </outline>
</glyph>
<glyph name="divide" format="1">
  <advance width="720"/>
  <unicode hex="00F7"/>
  <outline>
    <contour>
      <point x="165" y="437" type="curve" smooth="yes"/>
      <point x="552" y="437" type="line" smooth="yes"/>
      <point x="595" y="437"/>
      <point x="608" y="413"/>
      <point x="608" y="389" type="curve" smooth="yes"/>
      <point x="608" y="365"/>
      <point x="595" y="340"/>
      <point x="552" y="340" type="curve" smooth="yes"/>
      <point x="165" y="340" type="line" smooth="yes"/>
      <point x="124" y="340"/>
      <point x="112" y="365"/>
      <point x="112" y="389" type="curve" smooth="yes"/>
      <point x="112" y="413"/>
      <point x="124" y="437"/>
    </contour>
    <contour>
      <point x="387" y="509" type="curve" smooth="yes"/>
      <point x="335" y="509" type="line" smooth="yes"/>
      <point x="318" y="509"/>
      <point x="307" y="509"/>
      <point x="297" y="522" type="curve" smooth="yes"/>
      <point x="289" y="533"/>
      <point x="289" y="542"/>
      <point x="289" y="555" type="curve" smooth="yes"/>
      <point x="289" y="595" type="line" smooth="yes"/>
      <point x="289" y="609"/>
      <point x="289" y="617"/>
      <point x="297" y="628" type="curve" smooth="yes"/>
      <point x="307" y="642"/>
      <point x="318" y="642"/>
      <point x="335" y="642" type="curve" smooth="yes"/>
      <point x="387" y="642" type="line" smooth="yes"/>
      <point x="402" y="642"/>
      <point x="414" y="642"/>
      <point x="424" y="628" type="curve" smooth="yes"/>
      <point x="432" y="617"/>
      <point x="432" y="609"/>
      <point x="432" y="595" type="curve" smooth="yes"/>
      <point x="432" y="555" type="line" smooth="yes"/>
      <point x="432" y="542"/>
      <point x="432" y="533"/>
      <point x="424" y="522" type="curve" smooth="yes"/>
      <point x="414" y="509"/>
      <point x="402" y="509"/>
    </contour>
    <contour>
      <point x="387" y="135" type="curve" smooth="yes"/>
      <point x="335" y="135" type="line" smooth="yes"/>
      <point x="318" y="135"/>
      <point x="307" y="135"/>
      <point x="297" y="148" type="curve" smooth="yes"/>
      <point x="289" y="159"/>
      <point x="289" y="168"/>
      <point x="289" y="181" type="curve" smooth="yes"/>
      <point x="289" y="221" type="line" smooth="yes"/>
      <point x="289" y="235"/>
      <point x="289" y="243"/>
      <point x="297" y="254" type="curve" smooth="yes"/>
      <point x="307" y="268"/>
      <point x="318" y="268"/>
      <point x="335" y="268" type="curve" smooth="yes"/>
      <point x="387" y="268" type="line" smooth="yes"/>
      <point x="402" y="268"/>
      <point x="414" y="268"/>
      <point x="424" y="254" type="curve" smooth="yes"/>
      <point x="432" y="243"/>
      <point x="432" y="235"/>
      <point x="432" y="221" type="curve" smooth="yes"/>
      <point x="432" y="181" type="line" smooth="yes"/>
      <point x="432" y="168"/>
      <point x="432" y="159"/>
      <point x="424" y="148" type="curve" smooth="yes"/>
      <point x="414" y="135"/>
      <point x="402" y="135"/>
    </contour>
  </outline>
</glyph>
<glyph name="yacute" format="1">
  <advance width="720"/>
  <unicode hex="00FD"/>
  <outline>
    <contour>
      <point x="371" y="135" type="line"/>
      <point x="499" y="418" type="line"/>
      <point x="499" y="473" type="line" smooth="yes"/>
      <point x="499" y="506"/>
      <point x="506" y="539"/>
      <point x="547" y="539" type="curve" smooth="yes"/>
      <point x="588" y="539"/>
      <point x="595" y="506"/>
      <point x="595" y="473" type="curve" smooth="yes"/>
      <point x="595" y="434" type="line" smooth="yes"/>
      <point x="595" y="410"/>
      <point x="593" y="394"/>
      <point x="583" y="373" type="curve" smooth="yes"/>
      <point x="341" y="-154" type="line" smooth="yes"/>
      <point x="320" y="-199"/>
      <point x="309" y="-204"/>
      <point x="265" y="-204" type="curve" smooth="yes"/>
      <point x="191" y="-204" type="line" smooth="yes"/>
      <point x="163" y="-204"/>
      <point x="125" y="-198"/>
      <point x="125" y="-156" type="curve" smooth="yes"/>
      <point x="125" y="-115"/>
      <point x="159" y="-108"/>
      <point x="191" y="-108" type="curve" smooth="yes"/>
      <point x="257" y="-108" type="line"/>
      <point x="328" y="39" type="line"/>
      <point x="323" y="39" type="line" smooth="yes"/>
      <point x="283" y="39"/>
      <point x="281" y="57"/>
      <point x="266" y="90" type="curve" smooth="yes"/>
      <point x="148" y="351" type="line" smooth="yes"/>
      <point x="135" y="380"/>
      <point x="125" y="402"/>
      <point x="125" y="430" type="curve" smooth="yes"/>
      <point x="125" y="473" type="line" smooth="yes"/>
      <point x="125" y="506"/>
      <point x="132" y="539"/>
      <point x="173" y="539" type="curve" smooth="yes"/>
      <point x="214" y="539"/>
      <point x="221" y="506"/>
      <point x="221" y="473" type="curve" smooth="yes"/>
      <point x="221" y="418" type="line"/>
      <point x="350" y="135" type="line"/>
    </contour>
    <contour>
      <point x="286" y="668" type="curve" smooth="yes"/>
      <point x="468" y="773" type="line" smooth="yes"/>
      <point x="473" y="776"/>
      <point x="481" y="778"/>
      <point x="488" y="778" type="curve" smooth="yes"/>
      <point x="517" y="778"/>
      <point x="543" y="743"/>
      <point x="541" y="714" type="curve" smooth="yes"/>
      <point x="540" y="701"/>
      <point x="534" y="689"/>
      <point x="520" y="682" type="curve" smooth="yes"/>
      <point x="329" y="588" type="line" smooth="yes"/>
      <point x="323" y="585"/>
      <point x="317" y="583"/>
      <point x="311" y="583" type="curve" smooth="yes"/>
      <point x="286" y="583"/>
      <point x="267" y="610"/>
      <point x="267" y="634" type="curve" smooth="yes"/>
      <point x="267" y="647"/>
      <point x="272" y="660"/>
    </contour>
  </outline>
</glyph>
<glyph name="thorn" format="1">
  <advance width="720"/>
  <unicode hex="00FE"/>
  <outline>
    <contour>
      <point x="595" y="311" type="curve" smooth="yes"/>
      <point x="595" y="228" type="line" smooth="yes"/>
      <point x="595" y="159"/>
      <point x="590" y="133"/>
      <point x="534" y="89" type="curve" smooth="yes"/>
      <point x="476" y="43" type="line" smooth="yes"/>
      <point x="456" y="27"/>
      <point x="425" y="0"/>
      <point x="399" y="0" type="curve" smooth="yes"/>
      <point x="221" y="0" type="line"/>
      <point x="221" y="-138" type="line" smooth="yes"/>
      <point x="221" y="-171"/>
      <point x="214" y="-204"/>
      <point x="173" y="-204" type="curve" smooth="yes"/>
      <point x="132" y="-204"/>
      <point x="125" y="-171"/>
      <point x="125" y="-138" type="curve" smooth="yes"/>
      <point x="125" y="666" type="line" smooth="yes"/>
      <point x="125" y="700"/>
      <point x="129" y="737"/>
      <point x="173" y="737" type="curve" smooth="yes"/>
      <point x="212" y="737"/>
      <point x="221" y="706"/>
      <point x="221" y="674" type="curve" smooth="yes"/>
      <point x="221" y="539" type="line"/>
      <point x="396" y="539" type="line" smooth="yes"/>
      <point x="419" y="539"/>
      <point x="450" y="515"/>
      <point x="476" y="495" type="curve" smooth="yes"/>
      <point x="534" y="450" type="line" smooth="yes"/>
      <point x="590" y="406"/>
      <point x="595" y="379"/>
    </contour>
    <contour>
      <point x="499" y="215" type="curve" smooth="yes"/>
      <point x="499" y="324" type="line" smooth="yes"/>
      <point x="499" y="342"/>
      <point x="494" y="353"/>
      <point x="479" y="366" type="curve" smooth="yes"/>
      <point x="407" y="426" type="line" smooth="yes"/>
      <point x="398" y="434"/>
      <point x="387" y="443"/>
      <point x="374" y="443" type="curve" smooth="yes"/>
      <point x="221" y="443" type="line"/>
      <point x="221" y="96" type="line"/>
      <point x="374" y="96" type="line" smooth="yes"/>
      <point x="387" y="96"/>
      <point x="398" y="105"/>
      <point x="407" y="113" type="curve" smooth="yes"/>
      <point x="479" y="173" type="line" smooth="yes"/>
      <point x="494" y="186"/>
      <point x="499" y="197"/>
    </contour>
  </outline>
</glyph>
<glyph name="Scaron" format="1">
  <advance width="720"/>
  <unicode hex="0160"/>
  <outline>
    <contour>
      <point x="232" y="467" type="curve" smooth="yes"/>
      <point x="556" y="209" type="line" smooth="yes"/>
      <point x="594" y="179"/>
      <point x="607" y="147"/>
      <point x="607" y="113" type="curve" smooth="yes"/>
      <point x="607" y="38"/>
      <point x="550" y="0"/>
      <point x="481" y="0" type="curve" smooth="yes"/>
      <point x="261" y="0" type="line" smooth="yes"/>
      <point x="223" y="0"/>
      <point x="190" y="7"/>
      <point x="160" y="32" type="curve" smooth="yes"/>
      <point x="133" y="54"/>
      <point x="113" y="90"/>
      <point x="113" y="125" type="curve" smooth="yes"/>
      <point x="113" y="157"/>
      <point x="131" y="185"/>
      <point x="166" y="185" type="curve" smooth="yes"/>
      <point x="195" y="185"/>
      <point x="213" y="161"/>
      <point x="213" y="134" type="curve" smooth="yes"/>
      <point x="213" y="104"/>
      <point x="229" y="100"/>
      <point x="257" y="100" type="curve" smooth="yes"/>
      <point x="470" y="100" type="line" smooth="yes"/>
      <point x="492" y="100"/>
      <point x="503" y="102"/>
      <point x="503" y="117" type="curve" smooth="yes"/>
      <point x="503" y="125"/>
      <point x="496" y="132"/>
      <point x="485" y="141" type="curve" smooth="yes"/>
      <point x="162" y="399" type="line" smooth="yes"/>
      <point x="127" y="427"/>
      <point x="113" y="459"/>
      <point x="113" y="494" type="curve" smooth="yes"/>
      <point x="113" y="534"/>
      <point x="132" y="568"/>
      <point x="166" y="590" type="curve" smooth="yes"/>
      <point x="194" y="608"/>
      <point x="217" y="608"/>
      <point x="249" y="608" type="curve" smooth="yes"/>
      <point x="461" y="608" type="line" smooth="yes"/>
      <point x="499" y="608"/>
      <point x="531" y="600"/>
      <point x="560" y="575" type="curve" smooth="yes"/>
      <point x="586" y="552"/>
      <point x="607" y="515"/>
      <point x="607" y="480" type="curve" smooth="yes"/>
      <point x="607" y="448"/>
      <point x="591" y="422"/>
      <point x="555" y="422" type="curve" smooth="yes"/>
      <point x="525" y="422"/>
      <point x="507" y="441"/>
      <point x="507" y="469" type="curve" smooth="yes"/>
      <point x="507" y="503"/>
      <point x="490" y="508"/>
      <point x="459" y="508" type="curve" smooth="yes"/>
      <point x="251" y="508" type="line" smooth="yes"/>
      <point x="230" y="508"/>
      <point x="217" y="505"/>
      <point x="217" y="491" type="curve" smooth="yes"/>
      <point x="217" y="482"/>
      <point x="223" y="474"/>
    </contour>
    <contour>
      <point x="228" y="813" type="curve" smooth="yes"/>
      <point x="360" y="748" type="line"/>
      <point x="492" y="813" type="line" smooth="yes"/>
      <point x="502" y="818"/>
      <point x="508" y="819"/>
      <point x="517" y="819" type="curve" smooth="yes"/>
      <point x="541" y="819"/>
      <point x="560" y="798"/>
      <point x="560" y="774" type="curve" smooth="yes"/>
      <point x="560" y="758"/>
      <point x="551" y="744"/>
      <point x="536" y="736" type="curve" smooth="yes"/>
      <point x="408" y="662" type="line" smooth="yes"/>
      <point x="392" y="653"/>
      <point x="375" y="648"/>
      <point x="360" y="648" type="curve" smooth="yes"/>
      <point x="345" y="648"/>
      <point x="328" y="653"/>
      <point x="312" y="662" type="curve" smooth="yes"/>
      <point x="184" y="736" type="line" smooth="yes"/>
      <point x="169" y="744"/>
      <point x="160" y="758"/>
      <point x="160" y="774" type="curve" smooth="yes"/>
      <point x="160" y="798"/>
      <point x="179" y="819"/>
      <point x="203" y="819" type="curve" smooth="yes"/>
      <point x="212" y="819"/>
      <point x="218" y="818"/>
    </contour>
  </outline>
</glyph>
<glyph name="scaron" format="1">
  <advance width="720"/>
  <unicode hex="0161"/>
  <outline>
    <contour>
      <point x="435" y="443" type="curve" smooth="yes"/>
      <point x="289" y="443" type="line" smooth="yes"/>
      <point x="269" y="443"/>
      <point x="235" y="447"/>
      <point x="235" y="416" type="curve" smooth="yes"/>
      <point x="235" y="400"/>
      <point x="247" y="394"/>
      <point x="261" y="388" type="curve" smooth="yes"/>
      <point x="501" y="279" type="line" smooth="yes"/>
      <point x="563" y="251"/>
      <point x="595" y="212"/>
      <point x="595" y="143" type="curve" smooth="yes"/>
      <point x="595" y="46"/>
      <point x="529" y="0"/>
      <point x="437" y="0" type="curve" smooth="yes"/>
      <point x="289" y="0" type="line" smooth="yes"/>
      <point x="239" y="0"/>
      <point x="205" y="2"/>
      <point x="169" y="30" type="curve" smooth="yes"/>
      <point x="151" y="44"/>
      <point x="125" y="62"/>
      <point x="125" y="86" type="curve" smooth="yes"/>
      <point x="125" y="113"/>
      <point x="148" y="134"/>
      <point x="175" y="134" type="curve" smooth="yes"/>
      <point x="190" y="134"/>
      <point x="201" y="129"/>
      <point x="212" y="117" type="curve" smooth="yes"/>
      <point x="229" y="98"/>
      <point x="259" y="96"/>
      <point x="289" y="96" type="curve" smooth="yes"/>
      <point x="419" y="96" type="line" smooth="yes"/>
      <point x="453" y="96"/>
      <point x="499" y="93"/>
      <point x="499" y="149" type="curve" smooth="yes"/>
      <point x="499" y="172"/>
      <point x="471" y="187"/>
      <point x="449" y="197" type="curve" smooth="yes"/>
      <point x="223" y="300" type="line" smooth="yes"/>
      <point x="170" y="324"/>
      <point x="139" y="355"/>
      <point x="139" y="417" type="curve" smooth="yes"/>
      <point x="139" y="493"/>
      <point x="199" y="539"/>
      <point x="271" y="539" type="curve" smooth="yes"/>
      <point x="435" y="539" type="line" smooth="yes"/>
      <point x="488" y="539"/>
      <point x="510" y="536"/>
      <point x="546" y="506" type="curve" smooth="yes"/>
      <point x="564" y="491"/>
      <point x="584" y="479"/>
      <point x="584" y="452" type="curve" smooth="yes"/>
      <point x="584" y="425"/>
      <point x="561" y="404"/>
      <point x="535" y="404" type="curve" smooth="yes"/>
      <point x="517" y="404"/>
      <point x="506" y="411"/>
      <point x="494" y="424" type="curve" smooth="yes"/>
      <point x="478" y="441"/>
      <point x="461" y="443"/>
    </contour>
    <contour>
      <point x="360" y="687" type="line"/>
      <point x="474" y="768" type="line" smooth="yes"/>
      <point x="483" y="774"/>
      <point x="493" y="778"/>
      <point x="502" y="778" type="curve" smooth="yes"/>
      <point x="527" y="778"/>
      <point x="548" y="757"/>
      <point x="548" y="733" type="curve" smooth="yes"/>
      <point x="548" y="721"/>
      <point x="542" y="708"/>
      <point x="529" y="698" type="curve" smooth="yes"/>
      <point x="406" y="601" type="line" smooth="yes"/>
      <point x="392" y="590"/>
      <point x="378" y="585"/>
      <point x="360" y="585" type="curve" smooth="yes"/>
      <point x="342" y="585"/>
      <point x="328" y="590"/>
      <point x="314" y="601" type="curve" smooth="yes"/>
      <point x="191" y="698" type="line" smooth="yes"/>
      <point x="178" y="708"/>
      <point x="172" y="721"/>
      <point x="172" y="733" type="curve" smooth="yes"/>
      <point x="172" y="757"/>
      <point x="193" y="778"/>
      <point x="218" y="778" type="curve" smooth="yes"/>
      <point x="227" y="778"/>
      <point x="237" y="774"/>
      <point x="246" y="768" type="curve" smooth="yes"/>
    </contour>
  </outline>
</glyph>
<glyph name="Zcaron" format="1">
  <advance width="720"/>
  <unicode hex="017D"/>
  <outline>
    <contour>
      <point x="607" y="608" type="line"/>
      <point x="607" y="543" type="line"/>
      <point x="265" y="100" type="line"/>
      <point x="557" y="100" type="line" smooth="yes"/>
      <point x="583" y="100"/>
      <point x="607" y="86"/>
      <point x="607" y="50" type="curve" smooth="yes"/>
      <point x="607" y="14"/>
      <point x="583" y="0"/>
      <point x="557" y="0" type="curve" smooth="yes"/>
      <point x="113" y="0" type="line"/>
      <point x="113" y="63" type="line"/>
      <point x="454" y="508" type="line"/>
      <point x="163" y="508" type="line" smooth="yes"/>
      <point x="137" y="508"/>
      <point x="113" y="522"/>
      <point x="113" y="558" type="curve" smooth="yes"/>
      <point x="113" y="594"/>
      <point x="137" y="608"/>
      <point x="163" y="608" type="curve" smooth="yes"/>
    </contour>
    <contour>
      <point x="228" y="813" type="curve" smooth="yes"/>
      <point x="360" y="748" type="line"/>
      <point x="492" y="813" type="line" smooth="yes"/>
      <point x="502" y="818"/>
      <point x="508" y="819"/>
      <point x="517" y="819" type="curve" smooth="yes"/>
      <point x="541" y="819"/>
      <point x="560" y="798"/>
      <point x="560" y="774" type="curve" smooth="yes"/>
      <point x="560" y="758"/>
      <point x="551" y="744"/>
      <point x="536" y="736" type="curve" smooth="yes"/>
      <point x="408" y="662" type="line" smooth="yes"/>
      <point x="392" y="653"/>
      <point x="375" y="648"/>
      <point x="360" y="648" type="curve" smooth="yes"/>
      <point x="345" y="648"/>
      <point x="328" y="653"/>
      <point x="312" y="662" type="curve" smooth="yes"/>
      <point x="184" y="736" type="line" smooth="yes"/>
      <point x="169" y="744"/>
      <point x="160" y="758"/>
      <point x="160" y="774" type="curve" smooth="yes"/>
      <point x="160" y="798"/>
      <point x="179" y="819"/>
      <point x="203" y="819" type="curve" smooth="yes"/>
      <point x="212" y="819"/>
      <point x="218" y="818"/>
    </contour>
  </outline>
</glyph>
<glyph name="florin" format="1">
  <advance width="720"/>
  <unicode hex="0192"/>
  <outline>
    <contour>
      <point x="397" y="340" type="line"/>
      <point x="260" y="-134" type="line" smooth="yes"/>
      <point x="248" y="-176"/>
      <point x="203" y="-204"/>
      <point x="137" y="-204" type="curve" smooth="yes"/>
      <point x="101" y="-204" type="line" smooth="yes"/>
      <point x="75" y="-204"/>
      <point x="51" y="-190"/>
      <point x="51" y="-154" type="curve" smooth="yes"/>
      <point x="51" y="-118"/>
      <point x="75" y="-104"/>
      <point x="101" y="-104" type="curve" smooth="yes"/>
      <point x="132" y="-104" type="line" smooth="yes"/>
      <point x="159" y="-104"/>
      <point x="168" y="-87"/>
      <point x="173" y="-70" type="curve" smooth="yes"/>
      <point x="293" y="340" type="line"/>
      <point x="163" y="340" type="line" smooth="yes"/>
      <point x="137" y="340"/>
      <point x="113" y="354"/>
      <point x="113" y="390" type="curve" smooth="yes"/>
      <point x="113" y="426"/>
      <point x="137" y="440"/>
      <point x="163" y="440" type="curve" smooth="yes"/>
      <point x="321" y="440" type="line"/>
      <point x="398" y="708" type="line" smooth="yes"/>
      <point x="410" y="750"/>
      <point x="455" y="778"/>
      <point x="521" y="778" type="curve" smooth="yes"/>
      <point x="557" y="778" type="line" smooth="yes"/>
      <point x="583" y="778"/>
      <point x="607" y="764"/>
      <point x="607" y="728" type="curve" smooth="yes"/>
      <point x="607" y="692"/>
      <point x="583" y="678"/>
      <point x="557" y="678" type="curve" smooth="yes"/>
      <point x="526" y="678" type="line" smooth="yes"/>
      <point x="499" y="678"/>
      <point x="490" y="661"/>
      <point x="485" y="644" type="curve" smooth="yes"/>
      <point x="426" y="440" type="line"/>
      <point x="557" y="440" type="line" smooth="yes"/>
      <point x="583" y="440"/>
      <point x="607" y="426"/>
      <point x="607" y="390" type="curve" smooth="yes"/>
      <point x="607" y="354"/>
      <point x="583" y="340"/>
      <point x="557" y="340" type="curve" smooth="yes"/>
    </contour>
  </outline>
</glyph>
<glyph name="caron" format="1">
  <advance width="720"/>
  <unicode hex="02C7"/>
  <outline>
    <contour>
      <point x="360" y="687" type="line"/>
      <point x="474" y="768" type="line" smooth="yes"/>
      <point x="483" y="774"/>
      <point x="493" y="778"/>
      <point x="502" y="778" type="curve" smooth="yes"/>
      <point x="527" y="778"/>
      <point x="548" y="757"/>
      <point x="548" y="733" type="curve" smooth="yes"/>
      <point x="548" y="721"/>
      <point x="542" y="708"/>
      <point x="529" y="698" type="curve" smooth="yes"/>
      <point x="406" y="601" type="line" smooth="yes"/>
      <point x="392" y="590"/>
      <point x="378" y="585"/>
      <point x="360" y="585" type="curve" smooth="yes"/>
      <point x="342" y="585"/>
      <point x="328" y="590"/>
      <point x="314" y="601" type="curve" smooth="yes"/>
      <point x="191" y="698" type="line" smooth="yes"/>
      <point x="178" y="708"/>
      <point x="172" y="721"/>
      <point x="172" y="733" type="curve" smooth="yes"/>
      <point x="172" y="757"/>
      <point x="193" y="778"/>
      <point x="218" y="778" type="curve" smooth="yes"/>
      <point x="227" y="778"/>
      <point x="237" y="774"/>
      <point x="246" y="768" type="curve" smooth="yes"/>
    </contour>
  </outline>
</glyph>
<glyph name="breve" format="1">
  <advance width="720"/>
  <unicode hex="02D8"/>
  <outline>
    <contour>
      <point x="441" y="618" type="curve" smooth="yes"/>
      <point x="279" y="618" type="line" smooth="yes"/>
      <point x="256" y="618"/>
      <point x="233" y="624"/>
      <point x="213" y="647" type="curve" smooth="yes"/>
      <point x="184" y="682" type="line" smooth="yes"/>
      <point x="172" y="697"/>
      <point x="165" y="712"/>
      <point x="165" y="723" type="curve" smooth="yes"/>
      <point x="165" y="746"/>
      <point x="192" y="764"/>
      <point x="214" y="764" type="curve" smooth="yes"/>
      <point x="225" y="764"/>
      <point x="238" y="758"/>
      <point x="246" y="748" type="curve" smooth="yes"/>
      <point x="258" y="734" type="line" smooth="yes"/>
      <point x="279" y="709"/>
      <point x="286" y="708"/>
      <point x="320" y="708" type="curve" smooth="yes"/>
      <point x="400" y="708" type="line" smooth="yes"/>
      <point x="434" y="708"/>
      <point x="441" y="709"/>
      <point x="462" y="734" type="curve" smooth="yes"/>
      <point x="474" y="748" type="line" smooth="yes"/>
      <point x="482" y="758"/>
      <point x="495" y="764"/>
      <point x="506" y="764" type="curve" smooth="yes"/>
      <point x="528" y="764"/>
      <point x="555" y="746"/>
      <point x="555" y="723" type="curve" smooth="yes"/>
      <point x="555" y="712"/>
      <point x="548" y="697"/>
      <point x="536" y="682" type="curve" smooth="yes"/>
      <point x="507" y="647" type="line" smooth="yes"/>
      <point x="487" y="624"/>
      <point x="464" y="618"/>
    </contour>
  </outline>
</glyph>
<glyph name="dotaccent" format="1">
  <advance width="720"/>
  <unicode hex="02D9"/>
  <outline>
    <contour>
      <point x="265" y="687" type="curve" smooth="yes"/>
      <point x="265" y="733" type="line" smooth="yes"/>
      <point x="265" y="767"/>
      <point x="284" y="778"/>
      <point x="310" y="778" type="curve" smooth="yes"/>
      <point x="365" y="778" type="line" smooth="yes"/>
      <point x="391" y="778"/>
      <point x="410" y="767"/>
      <point x="410" y="733" type="curve" smooth="yes"/>
      <point x="410" y="687" type="line" smooth="yes"/>
      <point x="410" y="653"/>
      <point x="391" y="642"/>
      <point x="365" y="642" type="curve" smooth="yes"/>
      <point x="310" y="642" type="line" smooth="yes"/>
      <point x="284" y="642"/>
      <point x="265" y="653"/>
    </contour>
  </outline>
</glyph>
<glyph name="pi" format="1">
  <advance width="720"/>
  <unicode hex="03C0"/>
  <outline>
    <contour>
      <point x="192" y="205" type="line"/>
      <point x="192" y="443" type="line"/>
      <point x="133" y="443" type="line" smooth="yes"/>
      <point x="107" y="443"/>
      <point x="83" y="455"/>
      <point x="83" y="491" type="curve" smooth="yes"/>
      <point x="83" y="527"/>
      <point x="107" y="539"/>
      <point x="133" y="539" type="curve" smooth="yes"/>
      <point x="587" y="539" type="line" smooth="yes"/>
      <point x="613" y="539"/>
      <point x="637" y="527"/>
      <point x="637" y="491" type="curve" smooth="yes"/>
      <point x="637" y="455"/>
      <point x="613" y="443"/>
      <point x="587" y="443" type="curve" smooth="yes"/>
      <point x="534" y="443" type="line"/>
      <point x="534" y="50" type="line" smooth="yes"/>
      <point x="534" y="18"/>
      <point x="522" y="0"/>
      <point x="486" y="0" type="curve" smooth="yes"/>
      <point x="450" y="0"/>
      <point x="438" y="18"/>
      <point x="438" y="50" type="curve" smooth="yes"/>
      <point x="438" y="443" type="line"/>
      <point x="288" y="443" type="line"/>
      <point x="288" y="182" type="line"/>
      <point x="233" y="29" type="line" smooth="yes"/>
      <point x="226" y="9"/>
      <point x="208" y="0"/>
      <point x="189" y="0" type="curve" smooth="yes"/>
      <point x="158" y="0"/>
      <point x="130" y="24"/>
      <point x="144" y="65" type="curve" smooth="yes"/>
    </contour>
  </outline>
</glyph>
<glyph name="endash" format="1">
  <advance width="720"/>
  <unicode hex="2013"/>
  <outline>
    <contour>
      <point x="208" y="438" type="curve" smooth="yes"/>
      <point x="512" y="438" type="line" smooth="yes"/>
      <point x="553" y="438"/>
      <point x="572" y="424"/>
      <point x="572" y="388" type="curve" smooth="yes"/>
      <point x="572" y="353"/>
      <point x="553" y="338"/>
      <point x="512" y="338" type="curve" smooth="yes"/>
      <point x="208" y="338" type="line" smooth="yes"/>
      <point x="167" y="338"/>
      <point x="148" y="353"/>
      <point x="148" y="388" type="curve" smooth="yes"/>
      <point x="148" y="422"/>
      <point x="167" y="438"/>
    </contour>
  </outline>
</glyph>
<glyph name="quoteleft" format="1">
  <advance width="720"/>
  <unicode hex="2018"/>
  <outline>
    <contour>
      <point x="451" y="711" type="curve" smooth="yes"/>
      <point x="451" y="432" type="line" smooth="yes"/>
      <point x="451" y="406"/>
      <point x="441" y="382"/>
      <point x="390" y="382" type="curve" smooth="yes"/>
      <point x="330" y="382" type="line" smooth="yes"/>
      <point x="279" y="382"/>
      <point x="269" y="406"/>
      <point x="269" y="432" type="curve" smooth="yes"/>
      <point x="269" y="442"/>
      <point x="277" y="469"/>
      <point x="281" y="485" type="curve" smooth="yes"/>
      <point x="339" y="719" type="line" smooth="yes"/>
      <point x="348" y="754"/>
      <point x="355" y="778"/>
      <point x="396" y="778" type="curve" smooth="yes"/>
      <point x="441" y="778"/>
      <point x="451" y="751"/>
    </contour>
  </outline>
</glyph>
<glyph name="quotesinglbase" format="1">
  <advance width="720"/>
  <unicode hex="201A"/>
  <outline>
    <contour>
      <point x="269" y="-137" type="curve" smooth="yes"/>
      <point x="269" y="142" type="line" smooth="yes"/>
      <point x="269" y="168"/>
      <point x="279" y="192"/>
      <point x="330" y="192" type="curve" smooth="yes"/>
      <point x="390" y="192" type="line" smooth="yes"/>
      <point x="441" y="192"/>
      <point x="451" y="168"/>
      <point x="451" y="142" type="curve" smooth="yes"/>
      <point x="451" y="132"/>
      <point x="443" y="105"/>
      <point x="439" y="89" type="curve" smooth="yes"/>
      <point x="381" y="-145" type="line" smooth="yes"/>
      <point x="372" y="-180"/>
      <point x="365" y="-204"/>
      <point x="324" y="-204" type="curve" smooth="yes"/>
      <point x="279" y="-204"/>
      <point x="269" y="-177"/>
    </contour>
  </outline>
</glyph>
<glyph name="quotedblleft" format="1">
  <advance width="720"/>
  <unicode hex="201C"/>
  <outline>
    <contour>
      <point x="321" y="711" type="curve" smooth="yes"/>
      <point x="321" y="432" type="line" smooth="yes"/>
      <point x="321" y="406"/>
      <point x="311" y="382"/>
      <point x="260" y="382" type="curve" smooth="yes"/>
      <point x="200" y="382" type="line" smooth="yes"/>
      <point x="149" y="382"/>
      <point x="139" y="406"/>
      <point x="139" y="432" type="curve" smooth="yes"/>
      <point x="139" y="442"/>
      <point x="147" y="469"/>
      <point x="151" y="485" type="curve" smooth="yes"/>
      <point x="209" y="719" type="line" smooth="yes"/>
      <point x="218" y="754"/>
      <point x="225" y="778"/>
      <point x="266" y="778" type="curve" smooth="yes"/>
      <point x="311" y="778"/>
      <point x="321" y="751"/>
    </contour>
    <contour>
      <point x="581" y="711" type="curve" smooth="yes"/>
      <point x="581" y="432" type="line" smooth="yes"/>
      <point x="581" y="406"/>
      <point x="571" y="382"/>
      <point x="520" y="382" type="curve" smooth="yes"/>
      <point x="460" y="382" type="line" smooth="yes"/>
      <point x="409" y="382"/>
      <point x="399" y="406"/>
      <point x="399" y="432" type="curve" smooth="yes"/>
      <point x="399" y="442"/>
      <point x="407" y="469"/>
      <point x="411" y="485" type="curve" smooth="yes"/>
      <point x="469" y="719" type="line" smooth="yes"/>
      <point x="478" y="754"/>
      <point x="485" y="778"/>
      <point x="526" y="778" type="curve" smooth="yes"/>
      <point x="571" y="778"/>
      <point x="581" y="751"/>
    </contour>
  </outline>
</glyph>
<glyph name="quotedblright" format="1">
  <advance width="720"/>
  <unicode hex="201D"/>
  <outline>
    <contour>
      <point x="139" y="449" type="curve" smooth="yes"/>
      <point x="139" y="728" type="line" smooth="yes"/>
      <point x="139" y="754"/>
      <point x="149" y="778"/>
      <point x="200" y="778" type="curve" smooth="yes"/>
      <point x="260" y="778" type="line" smooth="yes"/>
      <point x="311" y="778"/>
      <point x="321" y="754"/>
      <point x="321" y="728" type="curve" smooth="yes"/>
      <point x="321" y="718"/>
      <point x="313" y="691"/>
      <point x="309" y="675" type="curve" smooth="yes"/>
      <point x="251" y="441" type="line" smooth="yes"/>
      <point x="242" y="406"/>
      <point x="235" y="382"/>
      <point x="194" y="382" type="curve" smooth="yes"/>
      <point x="149" y="382"/>
      <point x="139" y="409"/>
    </contour>
    <contour>
      <point x="399" y="449" type="curve" smooth="yes"/>
      <point x="399" y="728" type="line" smooth="yes"/>
      <point x="399" y="754"/>
      <point x="409" y="778"/>
      <point x="460" y="778" type="curve" smooth="yes"/>
      <point x="520" y="778" type="line" smooth="yes"/>
      <point x="571" y="778"/>
      <point x="581" y="754"/>
      <point x="581" y="728" type="curve" smooth="yes"/>
      <point x="581" y="718"/>
      <point x="573" y="691"/>
      <point x="569" y="675" type="curve" smooth="yes"/>
      <point x="511" y="441" type="line" smooth="yes"/>
      <point x="502" y="406"/>
      <point x="495" y="382"/>
      <point x="454" y="382" type="curve" smooth="yes"/>
      <point x="409" y="382"/>
      <point x="399" y="409"/>
    </contour>
  </outline>
</glyph>
